G04*
G04 #@! TF.GenerationSoftware,Altium Limited,Altium Designer,20.0.9 (164)*
G04*
G04 Layer_Color=16711935*
%FSLAX25Y25*%
%MOIN*%
G70*
G01*
G75*
%ADD28R,0.05524X0.05524*%
%ADD29C,0.05524*%
%ADD30C,0.06706*%
%ADD31R,0.06706X0.06706*%
%ADD32C,0.05721*%
%ADD33R,0.05721X0.05721*%
%ADD34R,0.06706X0.06706*%
%ADD35C,0.06312*%
%ADD36R,0.05524X0.05524*%
%ADD37C,0.07296*%
%ADD38C,0.05800*%
%ADD39C,0.04300*%
D28*
X73000Y227000D02*
D03*
X38000Y74354D02*
D03*
X38000Y158000D02*
D03*
X267500Y191500D02*
D03*
D29*
X73000Y197000D02*
D03*
X38000Y44354D02*
D03*
X38000Y128000D02*
D03*
X267500Y181500D02*
D03*
Y171500D02*
D03*
X106638Y32219D02*
D03*
X96638D02*
D03*
X208630Y204500D02*
D03*
X218630D02*
D03*
D30*
X22453Y235338D02*
D03*
Y375338D02*
D03*
Y385338D02*
D03*
Y395338D02*
D03*
Y405338D02*
D03*
Y335338D02*
D03*
Y325338D02*
D03*
X209453Y236338D02*
D03*
Y246338D02*
D03*
Y256338D02*
D03*
Y266338D02*
D03*
Y276338D02*
D03*
Y286338D02*
D03*
Y296338D02*
D03*
X179453Y236338D02*
D03*
Y246338D02*
D03*
Y256338D02*
D03*
Y266338D02*
D03*
Y276338D02*
D03*
Y286338D02*
D03*
X22453Y265338D02*
D03*
Y275338D02*
D03*
X57453Y340338D02*
D03*
X87453Y350338D02*
D03*
Y340338D02*
D03*
X410000Y250000D02*
D03*
Y240000D02*
D03*
Y230000D02*
D03*
Y220000D02*
D03*
Y210000D02*
D03*
Y200000D02*
D03*
Y190000D02*
D03*
Y180000D02*
D03*
Y170000D02*
D03*
Y160000D02*
D03*
Y150000D02*
D03*
Y140000D02*
D03*
Y130000D02*
D03*
Y405338D02*
D03*
Y395338D02*
D03*
Y385338D02*
D03*
Y375338D02*
D03*
Y365338D02*
D03*
Y355338D02*
D03*
Y345338D02*
D03*
Y335338D02*
D03*
Y325338D02*
D03*
Y315338D02*
D03*
Y305338D02*
D03*
Y295338D02*
D03*
Y285338D02*
D03*
D31*
X22453Y225338D02*
D03*
Y365338D02*
D03*
Y315338D02*
D03*
Y285338D02*
D03*
X410000Y120000D02*
D03*
Y275338D02*
D03*
D32*
X151453Y360338D02*
D03*
Y350338D02*
D03*
Y340338D02*
D03*
Y330338D02*
D03*
Y320338D02*
D03*
Y310338D02*
D03*
Y300338D02*
D03*
Y290338D02*
D03*
Y280338D02*
D03*
Y270338D02*
D03*
Y260338D02*
D03*
Y250338D02*
D03*
Y240338D02*
D03*
Y230338D02*
D03*
X120453D02*
D03*
Y240338D02*
D03*
Y250338D02*
D03*
Y260338D02*
D03*
Y270338D02*
D03*
Y280338D02*
D03*
Y290338D02*
D03*
Y300338D02*
D03*
Y310338D02*
D03*
Y320338D02*
D03*
Y330338D02*
D03*
Y340338D02*
D03*
Y350338D02*
D03*
D33*
Y360338D02*
D03*
D34*
X179453Y296338D02*
D03*
X57453Y350338D02*
D03*
D35*
X57213Y316653D02*
D03*
Y276653D02*
D03*
D36*
X116638Y32219D02*
D03*
X198630Y204500D02*
D03*
D37*
X240000Y420000D02*
D03*
Y410000D02*
D03*
X230000Y420000D02*
D03*
Y410000D02*
D03*
X220000D02*
D03*
Y420000D02*
D03*
X210000Y410000D02*
D03*
Y420000D02*
D03*
X200000Y410000D02*
D03*
Y420000D02*
D03*
D38*
X349000Y419500D02*
D03*
X419500Y255000D02*
D03*
X327500Y259000D02*
D03*
X350500Y263500D02*
D03*
X326500Y217500D02*
D03*
X188500Y29500D02*
D03*
X212500Y40000D02*
D03*
X210000Y33500D02*
D03*
X262500Y36500D02*
D03*
X351000Y108500D02*
D03*
X348500Y98500D02*
D03*
X392500Y141000D02*
D03*
X370500Y151000D02*
D03*
X263000Y29500D02*
D03*
X390000Y403000D02*
D03*
X296500Y339000D02*
D03*
X289000Y258500D02*
D03*
X312500Y242000D02*
D03*
X292000Y166000D02*
D03*
X274000Y131000D02*
D03*
X275000Y143000D02*
D03*
X262000Y118000D02*
D03*
X259500Y66500D02*
D03*
X182500Y83500D02*
D03*
X195500Y88500D02*
D03*
X203256Y97245D02*
D03*
X172500Y54000D02*
D03*
X176500Y36000D02*
D03*
X224500Y133000D02*
D03*
X291500Y137000D02*
D03*
X128000Y80500D02*
D03*
X102500Y80000D02*
D03*
X151000Y31000D02*
D03*
X212000Y370000D02*
D03*
X186500Y119500D02*
D03*
X300000Y399000D02*
D03*
X347500Y242000D02*
D03*
X347000Y272500D02*
D03*
X95500Y97000D02*
D03*
X307000Y310500D02*
D03*
X324000Y122500D02*
D03*
X285000Y120000D02*
D03*
X238000Y69500D02*
D03*
X198500Y110000D02*
D03*
X133000Y91000D02*
D03*
X197000Y122500D02*
D03*
X205000Y119500D02*
D03*
X99000Y281500D02*
D03*
X367000Y399000D02*
D03*
X224000Y143500D02*
D03*
X208000D02*
D03*
X214000Y108000D02*
D03*
X60500Y114500D02*
D03*
X81000Y135000D02*
D03*
X150500Y159000D02*
D03*
X132500Y106500D02*
D03*
X298000Y53500D02*
D03*
X317500D02*
D03*
X397000Y109000D02*
D03*
X330000Y143000D02*
D03*
X309500Y143500D02*
D03*
X290500Y144000D02*
D03*
X252500Y230500D02*
D03*
X386500Y240500D02*
D03*
X390500Y277000D02*
D03*
X366500Y270500D02*
D03*
X324000Y276500D02*
D03*
X96500Y398500D02*
D03*
X229500Y358000D02*
D03*
X220500Y285500D02*
D03*
X210500Y323500D02*
D03*
X220000Y325000D02*
D03*
X307848Y272152D02*
D03*
X213500Y117500D02*
D03*
X254500Y132500D02*
D03*
X134000Y115000D02*
D03*
X189000Y52250D02*
D03*
X395000Y174000D02*
D03*
X321000Y418000D02*
D03*
D39*
X281000Y85000D02*
D03*
X280151Y70171D02*
D03*
X112000Y51000D02*
D03*
X191000Y144000D02*
D03*
X172000Y145000D02*
D03*
X176000Y388000D02*
D03*
X189000Y351000D02*
D03*
M02*
