M48
;Layer_Color=9474304
;FILE_FORMAT=2:5
INCH,LZ
;TYPE=PLATED
T1F00S00C0.02756
T2F00S00C0.02800
T3F00S00C0.03000
T4F00S00C0.03268
T5F00S00C0.03346
T6F00S00C0.03543
T7F00S00C0.04331
%
T01
X0096638Y0032219
X0106638
X0116638
X0038Y0044354
Y0074354
X0038Y0128
Y0158
X0073Y0197
Y0227
X019863Y02045
X020863
X021863
X02675Y01915
Y01815
Y01715
T02
X0397Y0109
X0351Y01085
X03485Y00985
X0324Y01225
X0285Y012
X0274Y0131
X0262Y0118
X02135Y01175
X0214Y0108
X0238Y00695
X02595Y00665
X02625Y00365
X0263Y00295
X0298Y00535
X03175
X02125Y004
X021Y00335
X01885Y00295
X01765Y0036
X01725Y0054
X0189Y005225
X01825Y00835
X01955Y00885
X0203256Y0097245
X01985Y011
X0197Y01225
X0205Y01195
X01865
X0134Y0115
X01325Y01065
X0133Y0091
X0128Y00805
X01025Y008
X00955Y0097
X00605Y01145
X0151Y0031
X01505Y0159
X0208Y01435
X0081Y0135
X0099Y02815
X02205Y02855
X02525Y02305
X0289Y02585
X0307848Y0272152
X0324Y02765
X03275Y0259
X03505Y02635
X0347Y02725
X03665Y02705
X03475Y0242
X03125
X03265Y02175
X033Y0143
X03095Y01435
X02905Y0144
X02915Y0137
X0275Y0143
X02545Y01325
X02245Y0133
X0224Y01435
X0292Y0166
X03705Y0151
X03925Y0141
X0395Y0174
X03865Y02405
X03905Y0277
X04195Y0255
X039Y0403
X0367Y0399
X0349Y04195
X0321Y0418
X03Y0399
X02965Y0339
X0307Y03105
X022Y0325
X02295Y0358
X0212Y037
X02105Y03235
X00965Y03985
T03
X0280151Y0070171
X0281Y0085
X0112Y0051
X0172Y0145
X0191Y0144
X0189Y0351
X0176Y0388
T04
X0120453Y0230338
Y0240338
Y0250338
Y0260338
Y0270338
Y0280338
X0151453
Y0270338
Y0260338
Y0250338
Y0240338
Y0230338
Y0290338
Y0300338
Y0310338
Y0320338
Y0330338
Y0340338
Y0350338
Y0360338
X0120453
Y0350338
Y0340338
Y0330338
Y0320338
Y0310338
Y0300338
Y0290338
T05
X0057213Y0276653
Y0316653
T06
X041Y012
Y013
X0022453Y0225338
Y0235338
Y0265338
Y0275338
Y0285338
X0179453Y0286338
Y0276338
Y0266338
Y0256338
Y0246338
Y0236338
X0209453
Y0246338
Y0256338
Y0266338
Y0276338
Y0286338
X041Y0285338
Y0275338
Y025
Y024
Y023
Y022
Y021
Y02
Y019
Y018
Y017
Y016
Y015
Y014
Y0295338
Y0305338
Y0315338
Y0325338
Y0335338
Y0345338
Y0355338
Y0365338
Y0375338
Y0385338
Y0395338
Y0405338
X0209453Y0296338
X0179453
X0087453Y0340338
Y0350338
X0057453
Y0340338
X0022453Y0335338
Y0325338
Y0315338
Y0365338
Y0375338
Y0385338
Y0395338
Y0405338
T07
X022Y041
X023
X024
Y042
X023
X022
X021
Y041
X02
Y042
M30
