G04*
G04 #@! TF.GenerationSoftware,Altium Limited,Altium Designer,20.0.9 (164)*
G04*
G04 Layer_Color=16711935*
%FSLAX25Y25*%
%MOIN*%
G70*
G01*
G75*
%ADD10C,0.00787*%
%ADD13C,0.00500*%
%ADD15C,0.01000*%
%ADD66C,0.00394*%
D10*
X116268Y360338D02*
G03*
X116268Y360338I-394J0D01*
G01*
X180792Y117026D02*
G03*
X180792Y117026I-394J0D01*
G01*
X384567Y413406D02*
G03*
X384567Y413406I-394J0D01*
G01*
X314567D02*
G03*
X314567Y413406I-394J0D01*
G01*
X354816Y144011D02*
G03*
X354816Y144011I-394J0D01*
G01*
X358193Y210142D02*
G03*
X358193Y210142I-394J0D01*
G01*
X296586D02*
G03*
X296586Y210142I-394J0D01*
G01*
X265449Y113142D02*
G03*
X265449Y113142I-394J0D01*
G01*
X341034Y80858D02*
G03*
X341034Y80858I-394J0D01*
G01*
D13*
X150203Y227090D02*
Y363586D01*
X121703Y227090D02*
Y363586D01*
Y227090D02*
X150203D01*
X121703Y363586D02*
X150203D01*
X173494Y105000D02*
X184630Y93864D01*
Y116136D02*
X195765Y105000D01*
X184630Y93864D02*
X195765Y105000D01*
X173494D02*
X184630Y116136D01*
X390000Y362547D02*
Y398063D01*
X350000Y362547D02*
X390000D01*
X350000D02*
Y398063D01*
X390000D01*
X320000Y362547D02*
Y398063D01*
X280000Y362547D02*
X320000D01*
X280000D02*
Y398063D01*
X320000D01*
X362690Y144897D02*
X378044D01*
Y110842D02*
Y144897D01*
X362690Y110842D02*
X378044D01*
X362690D02*
Y144897D01*
X366067Y211028D02*
X381421D01*
Y176972D02*
Y211028D01*
X366067Y176972D02*
X381421D01*
X366067D02*
Y211028D01*
X304460D02*
X319815D01*
Y176972D02*
Y211028D01*
X304460Y176972D02*
X319815D01*
X304460D02*
Y211028D01*
X273323Y114028D02*
X288677D01*
Y79972D02*
Y114028D01*
X273323Y79972D02*
X288677D01*
X273323D02*
Y114028D01*
X317018Y79972D02*
X332372D01*
X317018D02*
Y114028D01*
X332372D01*
Y79972D02*
Y114028D01*
D15*
X245630Y417106D02*
X247296D01*
X246463D01*
Y422105D01*
X245630Y421272D01*
X249795D02*
X250628Y422105D01*
X252294D01*
X253128Y421272D01*
Y417939D01*
X252294Y417106D01*
X250628D01*
X249795Y417939D01*
Y421272D01*
X192500Y407500D02*
X194166D01*
X193333D01*
Y412498D01*
X192500Y411665D01*
D66*
X185792Y302559D02*
G03*
X185792Y302559I-1969J0D01*
G01*
X65563Y351637D02*
G03*
X65563Y351637I-1969J0D01*
G01*
X192091Y378876D02*
G03*
X192091Y378876I-1969J0D01*
G01*
Y343952D02*
G03*
X192091Y343952I-1969J0D01*
G01*
X212166Y144602D02*
X219253D01*
X212166Y131216D02*
X219253D01*
Y144602D01*
X212166Y131216D02*
Y144602D01*
X316234Y271293D02*
X323320D01*
X316234Y257908D02*
X323320D01*
Y271293D01*
X316234Y257908D02*
Y271293D01*
X54622Y102457D02*
Y109543D01*
X68008Y102457D02*
Y109543D01*
X54622D02*
X68008D01*
X54622Y102457D02*
X68008D01*
X204135Y51992D02*
X211222D01*
X204135Y65378D02*
X211222D01*
X204135Y51992D02*
Y65378D01*
X211222Y51992D02*
Y65378D01*
X180280Y226574D02*
X208626D01*
X180280Y306102D02*
X208626D01*
Y226574D02*
Y306102D01*
X180280Y226574D02*
Y306102D01*
X60051Y335496D02*
Y355181D01*
X84855Y335496D02*
Y355181D01*
X60051D02*
X84855D01*
X60051Y335496D02*
X84855D01*
X121910Y386645D02*
X128996D01*
X121910Y400031D02*
X128996D01*
X121910Y386645D02*
Y400031D01*
X128996Y386645D02*
Y400031D01*
X186579Y362735D02*
X202327D01*
X186579Y382420D02*
X202327D01*
Y362735D02*
Y382420D01*
X186579Y362735D02*
Y382420D01*
X81910Y400031D02*
X88996D01*
X81910Y386645D02*
X88996D01*
Y400031D01*
X81910Y386645D02*
Y400031D01*
X61910D02*
X68996D01*
X61910Y386645D02*
X68996D01*
Y400031D01*
X61910Y386645D02*
Y400031D01*
X101910D02*
X108996D01*
X101910Y386645D02*
X108996D01*
Y400031D01*
X101910Y386645D02*
Y400031D01*
X141910D02*
X148996D01*
X141910Y386645D02*
X148996D01*
Y400031D01*
X141910Y386645D02*
Y400031D01*
X161910D02*
X168996D01*
X161910Y386645D02*
X168996D01*
Y400031D01*
X161910Y386645D02*
Y400031D01*
X41910Y386645D02*
X48996D01*
X41910Y400031D02*
X48996D01*
X41910Y386645D02*
Y400031D01*
X48996Y386645D02*
Y400031D01*
X96457Y288622D02*
X103543D01*
X96457Y302008D02*
X103543D01*
X96457Y288622D02*
Y302008D01*
X103543Y288622D02*
Y302008D01*
X74910Y303346D02*
X81996D01*
X74910Y289960D02*
X81996D01*
Y303346D01*
X74910Y289960D02*
Y303346D01*
X223910Y363645D02*
X230996D01*
X223910Y377031D02*
X230996D01*
X223910Y363645D02*
Y377031D01*
X230996Y363645D02*
Y377031D01*
X223910Y278373D02*
X230996D01*
X223910Y264987D02*
X230996D01*
Y278373D01*
X223910Y264987D02*
Y278373D01*
X223910Y329960D02*
X230996D01*
X223910Y343346D02*
X230996D01*
X223910Y329960D02*
Y343346D01*
X230996Y329960D02*
Y343346D01*
X186579Y327811D02*
X202327D01*
X186579Y347496D02*
X202327D01*
Y327811D02*
Y347496D01*
X186579Y327811D02*
Y347496D01*
X184019Y51992D02*
Y65378D01*
X176933Y51992D02*
Y65378D01*
X184019D01*
X176933Y51992D02*
X184019D01*
X137764Y147307D02*
Y160693D01*
X144850Y147307D02*
Y160693D01*
X137764Y147307D02*
X144850D01*
X137764Y160693D02*
X144850D01*
X114252Y124457D02*
X127638D01*
X114252Y131543D02*
X127638D01*
Y124457D02*
Y131543D01*
X114252Y124457D02*
Y131543D01*
X127768Y59784D02*
Y70217D01*
X107492Y59784D02*
Y70217D01*
Y59784D02*
X127768D01*
X107492Y70217D02*
X127768D01*
X82622Y102457D02*
X96008D01*
X82622Y109543D02*
X96008D01*
Y102457D02*
Y109543D01*
X82622Y102457D02*
Y109543D01*
X140622Y82457D02*
X154008D01*
X140622Y89543D02*
X154008D01*
Y82457D02*
Y89543D01*
X140622Y82457D02*
Y89543D01*
X111937Y109543D02*
X125323D01*
X111937Y102457D02*
X125323D01*
X111937D02*
Y109543D01*
X125323Y102457D02*
Y109543D01*
X86252Y124457D02*
X99638D01*
X86252Y131543D02*
X99638D01*
Y124457D02*
Y131543D01*
X86252Y124457D02*
Y131543D01*
X82937Y81957D02*
X96323D01*
X82937Y89043D02*
X96323D01*
Y81957D02*
Y89043D01*
X82937Y81957D02*
Y89043D01*
X82622Y61457D02*
X96008D01*
X82622Y68543D02*
X96008D01*
Y61457D02*
Y68543D01*
X82622Y61457D02*
Y68543D01*
X228634Y131216D02*
Y144602D01*
X235720Y131216D02*
Y144602D01*
X228634Y131216D02*
X235720D01*
X228634Y144602D02*
X235720D01*
X236173Y158122D02*
Y171508D01*
X229087Y158122D02*
Y171508D01*
X236173D01*
X229087Y158122D02*
X236173D01*
X191506Y51992D02*
Y65378D01*
X198593Y51992D02*
Y65378D01*
X191506Y51992D02*
X198593D01*
X191506Y65378D02*
X198593D01*
X158726Y51992D02*
Y65378D01*
X165813Y51992D02*
Y65378D01*
X158726Y51992D02*
X165813D01*
X158726Y65378D02*
X165813D01*
X147126Y51992D02*
Y65378D01*
X140040Y51992D02*
Y65378D01*
X147126D01*
X140040Y51992D02*
X147126D01*
X140937Y121457D02*
X154323D01*
X140937Y128543D02*
X154323D01*
Y121457D02*
Y128543D01*
X140937Y121457D02*
Y128543D01*
Y101457D02*
X154323D01*
X140937Y108543D02*
X154323D01*
Y101457D02*
Y108543D01*
X140937Y101457D02*
Y108543D01*
X82087Y147307D02*
Y160693D01*
X89173Y147307D02*
Y160693D01*
X82087Y147307D02*
X89173D01*
X82087Y160693D02*
X89173D01*
X161064Y195118D02*
X174449D01*
X161064Y202205D02*
X174449D01*
Y195118D02*
Y202205D01*
X161064Y195118D02*
Y202205D01*
X100087Y147307D02*
Y160693D01*
X107173Y147307D02*
Y160693D01*
X100087Y147307D02*
X107173D01*
X100087Y160693D02*
X107173D01*
X161622Y176957D02*
X175008D01*
X161622Y184043D02*
X175008D01*
Y176957D02*
Y184043D01*
X161622Y176957D02*
Y184043D01*
X118238Y147307D02*
Y160693D01*
X125325Y147307D02*
Y160693D01*
X118238Y147307D02*
X125325D01*
X118238Y160693D02*
X125325D01*
X196173Y158122D02*
Y171508D01*
X189087Y158122D02*
Y171508D01*
X196173D01*
X189087Y158122D02*
X196173D01*
X161937Y155957D02*
X175323D01*
X161937Y163043D02*
X175323D01*
Y155957D02*
Y163043D01*
X161937Y155957D02*
Y163043D01*
X216173Y158122D02*
Y171508D01*
X209087Y158122D02*
Y171508D01*
X216173D01*
X209087Y158122D02*
X216173D01*
X261307Y307457D02*
X274693D01*
X261307Y314543D02*
X274693D01*
Y307457D02*
Y314543D01*
X261307Y307457D02*
Y314543D01*
X307300Y328307D02*
Y341693D01*
X300213Y328307D02*
Y341693D01*
X307300D01*
X300213Y328307D02*
X307300D01*
X283954Y314543D02*
X297340D01*
X283954Y307457D02*
X297340D01*
X283954D02*
Y314543D01*
X297340Y307457D02*
Y314543D01*
X324543Y328307D02*
Y341693D01*
X317457Y328307D02*
Y341693D01*
X324543D01*
X317457Y328307D02*
X324543D01*
X290056Y328598D02*
Y341984D01*
X282969Y328598D02*
Y341984D01*
X290056D01*
X282969Y328598D02*
X290056D01*
X272905Y332244D02*
Y337756D01*
X261094Y332244D02*
Y337756D01*
X272905D01*
X261094Y332244D02*
X272905D01*
X202898Y131216D02*
Y144602D01*
X195811Y131216D02*
Y144602D01*
X202898D01*
X195811Y131216D02*
X202898D01*
X384720Y281311D02*
Y282689D01*
X387280Y281311D02*
Y282689D01*
X384720D02*
X387280D01*
X384720Y281311D02*
X387280D01*
X185773Y131216D02*
Y144602D01*
X178686Y131216D02*
Y144602D01*
X185773D01*
X178686Y131216D02*
X185773D01*
X335434Y257908D02*
Y271293D01*
X342520Y257908D02*
Y271293D01*
X335434Y257908D02*
X342520D01*
X335434Y271293D02*
X342520D01*
X361720Y228966D02*
Y242352D01*
X354634Y228966D02*
Y242352D01*
X361720D01*
X354634Y228966D02*
X361720D01*
X354634Y257908D02*
Y271293D01*
X361720Y257908D02*
Y271293D01*
X354634Y257908D02*
X361720D01*
X354634Y271293D02*
X361720D01*
X277834Y228966D02*
Y242352D01*
X284920Y228966D02*
Y242352D01*
X277834Y228966D02*
X284920D01*
X277834Y242352D02*
X284920D01*
X265389Y228966D02*
Y242352D01*
X258302Y228966D02*
Y242352D01*
X265389D01*
X258302Y228966D02*
X265389D01*
X373834D02*
Y242352D01*
X380920Y228966D02*
Y242352D01*
X373834Y228966D02*
X380920D01*
X373834Y242352D02*
X380920D01*
X335434Y228966D02*
Y242352D01*
X342520Y228966D02*
Y242352D01*
X335434Y228966D02*
X342520D01*
X335434Y242352D02*
X342520D01*
X297034Y228966D02*
Y242352D01*
X304120Y228966D02*
Y242352D01*
X297034Y228966D02*
X304120D01*
X297034Y242352D02*
X304120D01*
X316234Y228966D02*
Y242352D01*
X323320Y228966D02*
Y242352D01*
X316234Y228966D02*
X323320D01*
X316234Y242352D02*
X323320D01*
X304120Y257908D02*
Y271293D01*
X297034Y257908D02*
Y271293D01*
X304120D01*
X297034Y257908D02*
X304120D01*
X284920D02*
Y271293D01*
X277834Y257908D02*
Y271293D01*
X284920D01*
X277834Y257908D02*
X284920D01*
X323071Y131216D02*
Y144602D01*
X315985Y131216D02*
Y144602D01*
X323071D01*
X315985Y131216D02*
X323071D01*
X334873D02*
Y144602D01*
X341960Y131216D02*
Y144602D01*
X334873Y131216D02*
X341960D01*
X334873Y144602D02*
X341960D01*
X324315Y51992D02*
Y65378D01*
X331401Y51992D02*
Y65378D01*
X324315Y51992D02*
X331401D01*
X324315Y65378D02*
X331401D01*
X311742Y51992D02*
Y65378D01*
X304656Y51992D02*
Y65378D01*
X311742D01*
X304656Y51992D02*
X311742D01*
X294389Y31330D02*
X307775D01*
X294389Y38417D02*
X307775D01*
Y31330D02*
Y38417D01*
X294389Y31330D02*
Y38417D01*
X268765Y31330D02*
X282151D01*
X268765Y38417D02*
X282151D01*
Y31330D02*
Y38417D01*
X268765Y31330D02*
Y38417D01*
X243190Y90315D02*
X256576D01*
X243190Y97401D02*
X256576D01*
Y90315D02*
Y97401D01*
X243190Y90315D02*
Y97401D01*
X219307Y90315D02*
X232693D01*
X219307Y97401D02*
X232693D01*
Y90315D02*
Y97401D01*
X219307Y90315D02*
Y97401D01*
X293067Y51992D02*
Y65378D01*
X285980Y51992D02*
Y65378D01*
X293067D01*
X285980Y51992D02*
X293067D01*
X353457Y79307D02*
Y92693D01*
X360543Y79307D02*
Y92693D01*
X353457Y79307D02*
X360543D01*
X353457Y92693D02*
X360543D01*
X380088Y79307D02*
Y92693D01*
X373002Y79307D02*
Y92693D01*
X380088D01*
X373002Y79307D02*
X380088D01*
X274868Y51992D02*
Y65378D01*
X267781Y51992D02*
Y65378D01*
X274868D01*
X267781Y51992D02*
X274868D01*
X219353Y70312D02*
X232739D01*
X219353Y77398D02*
X232739D01*
Y70312D02*
Y77398D01*
X219353Y70312D02*
Y77398D01*
X297971Y131216D02*
Y144602D01*
X305057Y131216D02*
Y144602D01*
X297971Y131216D02*
X305057D01*
X297971Y144602D02*
X305057D01*
X243236Y77398D02*
X256622D01*
X243236Y70312D02*
X256622D01*
X243236D02*
Y77398D01*
X256622Y70312D02*
Y77398D01*
X279665Y131216D02*
Y144602D01*
X286751Y131216D02*
Y144602D01*
X279665Y131216D02*
X286751D01*
X279665Y144602D02*
X286751D01*
X219353Y48911D02*
X232739D01*
X219353Y55997D02*
X232739D01*
Y48911D02*
Y55997D01*
X219353Y48911D02*
Y55997D01*
X243236Y55997D02*
X256622D01*
X243236Y48911D02*
X256622D01*
X243236D02*
Y55997D01*
X256622Y48911D02*
Y55997D01*
X219353Y29184D02*
X232739D01*
X219353Y36270D02*
X232739D01*
Y29184D02*
Y36270D01*
X219353Y29184D02*
Y36270D01*
X243236Y36270D02*
X256622D01*
X243236Y29184D02*
X256622D01*
X243236D02*
Y36270D01*
X256622Y29184D02*
Y36270D01*
X249292Y131216D02*
Y144602D01*
X242206Y131216D02*
Y144602D01*
X249292D01*
X242206Y131216D02*
X249292D01*
X268295D02*
Y144602D01*
X261208Y131216D02*
Y144602D01*
X268295D01*
X261208Y131216D02*
X268295D01*
X219307Y110457D02*
X232693D01*
X219307Y117543D02*
X232693D01*
Y110457D02*
Y117543D01*
X219307Y110457D02*
Y117543D01*
X243190Y117543D02*
X256576D01*
X243190Y110457D02*
X256576D01*
X243190D02*
Y117543D01*
X256576Y110457D02*
Y117543D01*
M02*
