G04*
G04 #@! TF.GenerationSoftware,Altium Limited,Altium Designer,20.0.9 (164)*
G04*
G04 Layer_Physical_Order=2*
G04 Layer_Color=16711680*
%FSLAX25Y25*%
%MOIN*%
G70*
G01*
G75*
%ADD13C,0.00500*%
%ADD52C,0.02000*%
%ADD53C,0.01500*%
%ADD54R,0.04724X0.04724*%
%ADD55C,0.04724*%
%ADD56C,0.05906*%
%ADD57R,0.05906X0.05906*%
%ADD58C,0.04921*%
%ADD59R,0.04921X0.04921*%
%ADD60R,0.05906X0.05906*%
%ADD61C,0.05512*%
%ADD62R,0.04724X0.04724*%
%ADD63C,0.06496*%
%ADD64C,0.05000*%
%ADD65C,0.03500*%
G36*
X425000Y426000D02*
Y25000D01*
X400000Y0D01*
X25000D01*
X0Y25000D01*
Y425000D01*
X25000Y450000D01*
X401000D01*
X425000Y426000D01*
D02*
G37*
%LPC*%
G36*
X230500Y424232D02*
Y420500D01*
X234232D01*
X234001Y421658D01*
X233063Y423063D01*
X231658Y424002D01*
X230500Y424232D01*
D02*
G37*
G36*
X229500D02*
X228343Y424002D01*
X226937Y423063D01*
X225998Y421658D01*
X225768Y420500D01*
X229500D01*
Y424232D01*
D02*
G37*
G36*
X220500D02*
Y420500D01*
X224232D01*
X224002Y421658D01*
X223063Y423063D01*
X221657Y424002D01*
X220500Y424232D01*
D02*
G37*
G36*
X219500D02*
X218342Y424002D01*
X216937Y423063D01*
X215999Y421658D01*
X215768Y420500D01*
X219500D01*
Y424232D01*
D02*
G37*
G36*
X210500D02*
Y420500D01*
X214232D01*
X214001Y421658D01*
X213063Y423063D01*
X211658Y424002D01*
X210500Y424232D01*
D02*
G37*
G36*
X209500D02*
X208343Y424002D01*
X206937Y423063D01*
X205998Y421658D01*
X205768Y420500D01*
X209500D01*
Y424232D01*
D02*
G37*
G36*
X234232Y419500D02*
X230500D01*
Y415768D01*
X231658Y415998D01*
X233063Y416937D01*
X234001Y418342D01*
X234232Y419500D01*
D02*
G37*
G36*
X229500D02*
X225768D01*
X225998Y418342D01*
X226937Y416937D01*
X228343Y415998D01*
X229500Y415768D01*
Y419500D01*
D02*
G37*
G36*
X224232D02*
X220500D01*
Y415768D01*
X221657Y415998D01*
X223063Y416937D01*
X224002Y418342D01*
X224232Y419500D01*
D02*
G37*
G36*
X219500D02*
X215768D01*
X215999Y418342D01*
X216937Y416937D01*
X218342Y415998D01*
X219500Y415768D01*
Y419500D01*
D02*
G37*
G36*
X214232D02*
X210500D01*
Y415768D01*
X211658Y415998D01*
X213063Y416937D01*
X214001Y418342D01*
X214232Y419500D01*
D02*
G37*
G36*
X209500D02*
X205768D01*
X205998Y418342D01*
X206937Y416937D01*
X208343Y415998D01*
X209500Y415768D01*
Y419500D01*
D02*
G37*
G36*
X240000Y424331D02*
X238342Y424002D01*
X236937Y423063D01*
X235999Y421658D01*
X235669Y420000D01*
X235999Y418342D01*
X236937Y416937D01*
X238342Y415998D01*
X240000Y415669D01*
X241657Y415998D01*
X243063Y416937D01*
X244002Y418342D01*
X244331Y420000D01*
X244002Y421658D01*
X243063Y423063D01*
X241657Y424002D01*
X240000Y424331D01*
D02*
G37*
G36*
X200000D02*
X198343Y424002D01*
X196937Y423063D01*
X195999Y421658D01*
X195669Y420000D01*
X195999Y418342D01*
X196937Y416937D01*
X198343Y415998D01*
X200000Y415669D01*
X201658Y415998D01*
X203063Y416937D01*
X204001Y418342D01*
X204331Y420000D01*
X204001Y421658D01*
X203063Y423063D01*
X201658Y424002D01*
X200000Y424331D01*
D02*
G37*
G36*
X230500Y414232D02*
Y410500D01*
X234232D01*
X234001Y411657D01*
X233063Y413063D01*
X231658Y414002D01*
X230500Y414232D01*
D02*
G37*
G36*
X229500D02*
X228343Y414002D01*
X226937Y413063D01*
X225998Y411657D01*
X225768Y410500D01*
X229500D01*
Y414232D01*
D02*
G37*
G36*
X220500D02*
Y410500D01*
X224232D01*
X224002Y411657D01*
X223063Y413063D01*
X221657Y414002D01*
X220500Y414232D01*
D02*
G37*
G36*
X219500D02*
X218342Y414002D01*
X216937Y413063D01*
X215999Y411657D01*
X215768Y410500D01*
X219500D01*
Y414232D01*
D02*
G37*
G36*
X210500D02*
Y410500D01*
X214232D01*
X214001Y411657D01*
X213063Y413063D01*
X211658Y414002D01*
X210500Y414232D01*
D02*
G37*
G36*
X209500D02*
X208343Y414002D01*
X206937Y413063D01*
X205998Y411657D01*
X205768Y410500D01*
X209500D01*
Y414232D01*
D02*
G37*
G36*
X234232Y409500D02*
X230500D01*
Y405768D01*
X231658Y405999D01*
X233063Y406937D01*
X234001Y408343D01*
X234232Y409500D01*
D02*
G37*
G36*
X229500D02*
X225768D01*
X225998Y408343D01*
X226937Y406937D01*
X228343Y405999D01*
X229500Y405768D01*
Y409500D01*
D02*
G37*
G36*
X224232D02*
X220500D01*
Y405768D01*
X221657Y405999D01*
X223063Y406937D01*
X224002Y408343D01*
X224232Y409500D01*
D02*
G37*
G36*
X219500D02*
X215768D01*
X215999Y408343D01*
X216937Y406937D01*
X218342Y405999D01*
X219500Y405768D01*
Y409500D01*
D02*
G37*
G36*
X214232D02*
X210500D01*
Y405768D01*
X211658Y405999D01*
X213063Y406937D01*
X214001Y408343D01*
X214232Y409500D01*
D02*
G37*
G36*
X209500D02*
X205768D01*
X205998Y408343D01*
X206937Y406937D01*
X208343Y405999D01*
X209500Y405768D01*
Y409500D01*
D02*
G37*
G36*
X240000Y414331D02*
X238342Y414002D01*
X236937Y413063D01*
X235999Y411657D01*
X235669Y410000D01*
X235999Y408343D01*
X236937Y406937D01*
X238342Y405999D01*
X240000Y405669D01*
X241657Y405999D01*
X243063Y406937D01*
X244002Y408343D01*
X244331Y410000D01*
X244002Y411657D01*
X243063Y413063D01*
X241657Y414002D01*
X240000Y414331D01*
D02*
G37*
G36*
X200000D02*
X198343Y414002D01*
X196937Y413063D01*
X195999Y411657D01*
X195669Y410000D01*
X195999Y408343D01*
X196937Y406937D01*
X198343Y405999D01*
X200000Y405669D01*
X201658Y405999D01*
X203063Y406937D01*
X204001Y408343D01*
X204331Y410000D01*
X204001Y411657D01*
X203063Y413063D01*
X201658Y414002D01*
X200000Y414331D01*
D02*
G37*
G36*
X22453Y409368D02*
X20911Y409061D01*
X19603Y408188D01*
X18730Y406880D01*
X18423Y405338D01*
X18730Y403796D01*
X19603Y402488D01*
X20911Y401615D01*
X22453Y401308D01*
X23995Y401615D01*
X25303Y402488D01*
X26176Y403796D01*
X26483Y405338D01*
X26176Y406880D01*
X25303Y408188D01*
X23995Y409061D01*
X22453Y409368D01*
D02*
G37*
G36*
X300500Y402469D02*
Y399500D01*
X303469D01*
X303297Y400366D01*
X302523Y401523D01*
X301366Y402297D01*
X300500Y402469D01*
D02*
G37*
G36*
X299500D02*
X298634Y402297D01*
X297477Y401523D01*
X296703Y400366D01*
X296531Y399500D01*
X299500D01*
Y402469D01*
D02*
G37*
G36*
X97000Y401969D02*
Y399000D01*
X99969D01*
X99797Y399866D01*
X99023Y401023D01*
X97866Y401797D01*
X97000Y401969D01*
D02*
G37*
G36*
X96000D02*
X95134Y401797D01*
X93977Y401023D01*
X93203Y399866D01*
X93031Y399000D01*
X96000D01*
Y401969D01*
D02*
G37*
G36*
X370469Y398500D02*
X367500D01*
Y395531D01*
X368366Y395703D01*
X369523Y396477D01*
X370297Y397634D01*
X370469Y398500D01*
D02*
G37*
G36*
X303469D02*
X300500D01*
Y395531D01*
X301366Y395703D01*
X302523Y396477D01*
X303297Y397634D01*
X303469Y398500D01*
D02*
G37*
G36*
X299500D02*
X296531D01*
X296703Y397634D01*
X297477Y396477D01*
X298634Y395703D01*
X299500Y395531D01*
Y398500D01*
D02*
G37*
G36*
X99969Y398000D02*
X97000D01*
Y395031D01*
X97866Y395203D01*
X99023Y395977D01*
X99797Y397134D01*
X99969Y398000D01*
D02*
G37*
G36*
X96000D02*
X93031D01*
X93203Y397134D01*
X93977Y395977D01*
X95134Y395203D01*
X96000Y395031D01*
Y398000D01*
D02*
G37*
G36*
X22453Y399368D02*
X20911Y399061D01*
X19603Y398188D01*
X18730Y396880D01*
X18423Y395338D01*
X18730Y393796D01*
X19603Y392488D01*
X20911Y391615D01*
X22453Y391308D01*
X23995Y391615D01*
X25303Y392488D01*
X26176Y393796D01*
X26483Y395338D01*
X26176Y396880D01*
X25303Y398188D01*
X23995Y399061D01*
X22453Y399368D01*
D02*
G37*
G36*
X374964Y431284D02*
X374282Y431148D01*
X373703Y430762D01*
X331001Y388060D01*
X330539Y388251D01*
Y410500D01*
X330384Y411280D01*
X329942Y411942D01*
X324455Y417429D01*
X324569Y418000D01*
X324297Y419366D01*
X323523Y420523D01*
X322366Y421297D01*
X321000Y421569D01*
X319634Y421297D01*
X318477Y420523D01*
X317703Y419366D01*
X317431Y418000D01*
X317703Y416634D01*
X318477Y415477D01*
X319634Y414703D01*
X321000Y414431D01*
X321571Y414545D01*
X326461Y409655D01*
Y279595D01*
X326020Y279360D01*
X325366Y279797D01*
X324500Y279969D01*
Y276500D01*
Y273031D01*
X325366Y273203D01*
X326020Y273640D01*
X326461Y273405D01*
Y262431D01*
X326407Y262351D01*
X326134Y262297D01*
X324977Y261523D01*
X324203Y260366D01*
X323931Y259000D01*
X324036Y258473D01*
X323575Y258227D01*
X311094Y270709D01*
X311145Y270786D01*
X311417Y272152D01*
X311145Y273517D01*
X310372Y274675D01*
X309214Y275449D01*
X307848Y275720D01*
X306483Y275449D01*
X305325Y274675D01*
X304551Y273517D01*
X304280Y272152D01*
X304551Y270786D01*
X305325Y269628D01*
X306483Y268855D01*
X307848Y268583D01*
X309214Y268855D01*
X309291Y268906D01*
X325225Y252972D01*
Y220815D01*
X325134Y220797D01*
X323977Y220023D01*
X323203Y218866D01*
X322931Y217500D01*
X323203Y216134D01*
X323977Y214977D01*
X325134Y214203D01*
X326500Y213931D01*
X327700Y214170D01*
X327946Y213709D01*
X325521Y211284D01*
X236500D01*
X235817Y211149D01*
X235238Y210762D01*
X235238Y210762D01*
X172234Y147757D01*
X172000Y147804D01*
X170927Y147590D01*
X170017Y146983D01*
X169410Y146073D01*
X169196Y145000D01*
X169410Y143927D01*
X170017Y143017D01*
X170927Y142410D01*
X172000Y142196D01*
X173073Y142410D01*
X173983Y143017D01*
X174591Y143927D01*
X174804Y145000D01*
X174757Y145234D01*
X237239Y207716D01*
X251539D01*
X251730Y207254D01*
X191234Y146757D01*
X191000Y146804D01*
X189927Y146590D01*
X189017Y145983D01*
X188409Y145073D01*
X188196Y144000D01*
X188409Y142927D01*
X189017Y142017D01*
X189927Y141410D01*
X190207Y141354D01*
X190352Y140875D01*
X131761Y82284D01*
X131017D01*
X130523Y83023D01*
X129366Y83797D01*
X128000Y84069D01*
X126634Y83797D01*
X125477Y83023D01*
X124703Y81866D01*
X124431Y80500D01*
X124703Y79134D01*
X125477Y77977D01*
X126634Y77203D01*
X128000Y76931D01*
X129366Y77203D01*
X130523Y77977D01*
X131017Y78716D01*
X132500D01*
X133183Y78851D01*
X133762Y79238D01*
X257239Y202716D01*
X328331D01*
X329014Y202852D01*
X329593Y203238D01*
X338012Y211657D01*
X338012Y211657D01*
X338399Y212236D01*
X338534Y212918D01*
Y374021D01*
X363070Y398557D01*
X363548Y398412D01*
X363703Y397634D01*
X364477Y396477D01*
X365634Y395703D01*
X366500Y395531D01*
Y399000D01*
X367000D01*
Y399500D01*
X370469D01*
X370297Y400366D01*
X369523Y401523D01*
X368366Y402297D01*
X367588Y402452D01*
X367443Y402930D01*
X378229Y413716D01*
X388913D01*
X398697Y403932D01*
X398697Y403931D01*
X406189Y396440D01*
X405970Y395338D01*
X406277Y393796D01*
X407150Y392488D01*
X407534Y392232D01*
X407428Y391701D01*
X407369Y391689D01*
X406790Y391303D01*
X406790Y391302D01*
X401536Y386048D01*
X401149Y385469D01*
X401013Y384786D01*
Y332541D01*
X401149Y331858D01*
X401536Y331279D01*
X406220Y326595D01*
X405970Y325338D01*
X406277Y323796D01*
X407150Y322488D01*
X408458Y321615D01*
X410000Y321308D01*
X411542Y321615D01*
X412850Y322488D01*
X413723Y323796D01*
X414030Y325338D01*
X413723Y326880D01*
X412850Y328188D01*
X411542Y329062D01*
X410000Y329368D01*
X408743Y329118D01*
X404581Y333280D01*
Y337580D01*
X405044Y337771D01*
X406220Y336595D01*
X405970Y335338D01*
X406277Y333796D01*
X407150Y332488D01*
X408458Y331615D01*
X410000Y331308D01*
X411542Y331615D01*
X412850Y332488D01*
X413723Y333796D01*
X414030Y335338D01*
X413723Y336880D01*
X412850Y338188D01*
X411542Y339061D01*
X410000Y339368D01*
X408743Y339118D01*
X407082Y340780D01*
Y341933D01*
X407582Y342200D01*
X408458Y341615D01*
X410000Y341308D01*
X411542Y341615D01*
X412850Y342488D01*
X413723Y343796D01*
X414030Y345338D01*
X413723Y346880D01*
X412850Y348188D01*
X411542Y349061D01*
X410000Y349368D01*
X408458Y349061D01*
X407582Y348476D01*
X407082Y348743D01*
Y351933D01*
X407582Y352200D01*
X408458Y351615D01*
X410000Y351308D01*
X411542Y351615D01*
X412850Y352488D01*
X413723Y353796D01*
X414030Y355338D01*
X413723Y356880D01*
X412850Y358188D01*
X411542Y359062D01*
X410000Y359368D01*
X408458Y359062D01*
X407582Y358476D01*
X407082Y358743D01*
Y361933D01*
X407582Y362200D01*
X408458Y361615D01*
X410000Y361308D01*
X411542Y361615D01*
X412850Y362488D01*
X413723Y363796D01*
X414030Y365338D01*
X413723Y366880D01*
X412850Y368188D01*
X411542Y369061D01*
X410000Y369368D01*
X408458Y369061D01*
X407582Y368476D01*
X407082Y368743D01*
Y371933D01*
X407582Y372200D01*
X408458Y371615D01*
X410000Y371308D01*
X411542Y371615D01*
X412850Y372488D01*
X413723Y373796D01*
X414030Y375338D01*
X413723Y376880D01*
X412850Y378188D01*
X412666Y378311D01*
X412666Y378912D01*
X412912Y379076D01*
X418762Y384926D01*
X419148Y385505D01*
X419284Y386187D01*
X419284Y386188D01*
Y412500D01*
X419148Y413183D01*
X418762Y413762D01*
X401762Y430762D01*
X401183Y431148D01*
X400500Y431284D01*
X374964D01*
X374964Y431284D01*
D02*
G37*
G36*
X22453Y389368D02*
X20911Y389061D01*
X19603Y388188D01*
X18730Y386880D01*
X18423Y385338D01*
X18730Y383796D01*
X19603Y382488D01*
X20911Y381615D01*
X22453Y381308D01*
X23995Y381615D01*
X25303Y382488D01*
X26176Y383796D01*
X26483Y385338D01*
X26176Y386880D01*
X25303Y388188D01*
X23995Y389061D01*
X22453Y389368D01*
D02*
G37*
G36*
X22953Y379269D02*
Y375838D01*
X26384D01*
X26176Y376880D01*
X25303Y378188D01*
X23995Y379062D01*
X22953Y379269D01*
D02*
G37*
G36*
X21953D02*
X20911Y379062D01*
X19603Y378188D01*
X18730Y376880D01*
X18522Y375838D01*
X21953D01*
Y379269D01*
D02*
G37*
G36*
X26384Y374838D02*
X22953D01*
Y371407D01*
X23995Y371615D01*
X25303Y372488D01*
X26176Y373796D01*
X26384Y374838D01*
D02*
G37*
G36*
X21953D02*
X18522D01*
X18730Y373796D01*
X19603Y372488D01*
X20911Y371615D01*
X21953Y371407D01*
Y374838D01*
D02*
G37*
G36*
X212500Y373469D02*
Y370500D01*
X215469D01*
X215297Y371366D01*
X214523Y372523D01*
X213366Y373297D01*
X212500Y373469D01*
D02*
G37*
G36*
X211500D02*
X210634Y373297D01*
X209477Y372523D01*
X208703Y371366D01*
X208531Y370500D01*
X211500D01*
Y373469D01*
D02*
G37*
G36*
X215469Y369500D02*
X212500D01*
Y366531D01*
X213366Y366703D01*
X214523Y367477D01*
X215297Y368634D01*
X215469Y369500D01*
D02*
G37*
G36*
X211500D02*
X208531D01*
X208703Y368634D01*
X209477Y367477D01*
X210634Y366703D01*
X211500Y366531D01*
Y369500D01*
D02*
G37*
G36*
X26406Y369291D02*
X18500D01*
Y361385D01*
X26406D01*
Y369291D01*
D02*
G37*
G36*
X230000Y361469D02*
Y358500D01*
X232969D01*
X232797Y359366D01*
X232023Y360523D01*
X230866Y361297D01*
X230000Y361469D01*
D02*
G37*
G36*
X229000D02*
X228134Y361297D01*
X226977Y360523D01*
X226203Y359366D01*
X226031Y358500D01*
X229000D01*
Y361469D01*
D02*
G37*
G36*
X123914Y363799D02*
X116992D01*
Y356877D01*
X123914D01*
Y363799D01*
D02*
G37*
G36*
X151453Y363867D02*
X150103Y363598D01*
X148958Y362833D01*
X148193Y361688D01*
X147924Y360338D01*
X148193Y358988D01*
X148958Y357843D01*
X150103Y357078D01*
X151453Y356810D01*
X152803Y357078D01*
X153948Y357843D01*
X154713Y358988D01*
X154981Y360338D01*
X154713Y361688D01*
X153948Y362833D01*
X152803Y363598D01*
X151453Y363867D01*
D02*
G37*
G36*
X232969Y357500D02*
X230000D01*
Y354531D01*
X230866Y354703D01*
X232023Y355477D01*
X232797Y356634D01*
X232969Y357500D01*
D02*
G37*
G36*
X229000D02*
X226031D01*
X226203Y356634D01*
X226977Y355477D01*
X228134Y354703D01*
X229000Y354531D01*
Y357500D01*
D02*
G37*
G36*
X151453Y353867D02*
X150103Y353598D01*
X148958Y352833D01*
X148193Y351688D01*
X147924Y350338D01*
X148193Y348988D01*
X148958Y347843D01*
X150103Y347078D01*
X151453Y346810D01*
X152803Y347078D01*
X153948Y347843D01*
X154713Y348988D01*
X154981Y350338D01*
X154713Y351688D01*
X153948Y352833D01*
X152803Y353598D01*
X151453Y353867D01*
D02*
G37*
G36*
X120453D02*
X119103Y353598D01*
X117958Y352833D01*
X117193Y351688D01*
X116925Y350338D01*
X117193Y348988D01*
X117958Y347843D01*
X119103Y347078D01*
X120453Y346810D01*
X121803Y347078D01*
X122948Y347843D01*
X123713Y348988D01*
X123981Y350338D01*
X123713Y351688D01*
X122948Y352833D01*
X121803Y353598D01*
X120453Y353867D01*
D02*
G37*
G36*
X61406Y354291D02*
X53500D01*
Y346385D01*
X61406D01*
Y354291D01*
D02*
G37*
G36*
X87453Y354368D02*
X85911Y354062D01*
X84603Y353188D01*
X83729Y351880D01*
X83423Y350338D01*
X83729Y348796D01*
X84603Y347488D01*
X85911Y346615D01*
X87453Y346308D01*
X88995Y346615D01*
X90303Y347488D01*
X91176Y348796D01*
X91483Y350338D01*
X91176Y351880D01*
X90303Y353188D01*
X88995Y354062D01*
X87453Y354368D01*
D02*
G37*
G36*
X87953Y344269D02*
Y340838D01*
X91384D01*
X91176Y341880D01*
X90303Y343188D01*
X88995Y344061D01*
X87953Y344269D01*
D02*
G37*
G36*
X86953D02*
X85911Y344061D01*
X84603Y343188D01*
X83729Y341880D01*
X83522Y340838D01*
X86953D01*
Y344269D01*
D02*
G37*
G36*
X151453Y343867D02*
X150103Y343598D01*
X148958Y342833D01*
X148193Y341688D01*
X147924Y340338D01*
X148193Y338988D01*
X148958Y337843D01*
X150103Y337078D01*
X151453Y336810D01*
X152803Y337078D01*
X153948Y337843D01*
X154713Y338988D01*
X154981Y340338D01*
X154713Y341688D01*
X153948Y342833D01*
X152803Y343598D01*
X151453Y343867D01*
D02*
G37*
G36*
X120453D02*
X119103Y343598D01*
X117958Y342833D01*
X117193Y341688D01*
X116925Y340338D01*
X117193Y338988D01*
X117958Y337843D01*
X119103Y337078D01*
X120453Y336810D01*
X121803Y337078D01*
X122948Y337843D01*
X123713Y338988D01*
X123981Y340338D01*
X123713Y341688D01*
X122948Y342833D01*
X121803Y343598D01*
X120453Y343867D01*
D02*
G37*
G36*
X91384Y339838D02*
X87953D01*
Y336407D01*
X88995Y336615D01*
X90303Y337488D01*
X91176Y338796D01*
X91384Y339838D01*
D02*
G37*
G36*
X86953D02*
X83522D01*
X83729Y338796D01*
X84603Y337488D01*
X85911Y336615D01*
X86953Y336407D01*
Y339838D01*
D02*
G37*
G36*
X57453Y344368D02*
X55911Y344061D01*
X54603Y343188D01*
X53729Y341880D01*
X53423Y340338D01*
X53729Y338796D01*
X54603Y337488D01*
X55911Y336615D01*
X57453Y336308D01*
X58995Y336615D01*
X60303Y337488D01*
X61176Y338796D01*
X61483Y340338D01*
X61176Y341880D01*
X60303Y343188D01*
X58995Y344061D01*
X57453Y344368D01*
D02*
G37*
G36*
X22453Y339368D02*
X20911Y339061D01*
X19603Y338188D01*
X18730Y336880D01*
X18423Y335338D01*
X18730Y333796D01*
X19603Y332488D01*
X20911Y331615D01*
X22453Y331308D01*
X23995Y331615D01*
X25303Y332488D01*
X26176Y333796D01*
X26483Y335338D01*
X26176Y336880D01*
X25303Y338188D01*
X23995Y339061D01*
X22453Y339368D01*
D02*
G37*
G36*
X151453Y333867D02*
X150103Y333598D01*
X148958Y332833D01*
X148193Y331688D01*
X147924Y330338D01*
X148193Y328988D01*
X148958Y327843D01*
X150103Y327078D01*
X151453Y326810D01*
X152803Y327078D01*
X153948Y327843D01*
X154713Y328988D01*
X154981Y330338D01*
X154713Y331688D01*
X153948Y332833D01*
X152803Y333598D01*
X151453Y333867D01*
D02*
G37*
G36*
X120453D02*
X119103Y333598D01*
X117958Y332833D01*
X117193Y331688D01*
X116925Y330338D01*
X117193Y328988D01*
X117958Y327843D01*
X119103Y327078D01*
X120453Y326810D01*
X121803Y327078D01*
X122948Y327843D01*
X123713Y328988D01*
X123981Y330338D01*
X123713Y331688D01*
X122948Y332833D01*
X121803Y333598D01*
X120453Y333867D01*
D02*
G37*
G36*
X220500Y328469D02*
Y325500D01*
X223469D01*
X223297Y326366D01*
X222523Y327523D01*
X221366Y328297D01*
X220500Y328469D01*
D02*
G37*
G36*
X219500D02*
X218634Y328297D01*
X217477Y327523D01*
X216703Y326366D01*
X216531Y325500D01*
X219500D01*
Y328469D01*
D02*
G37*
G36*
X211000Y326969D02*
Y324000D01*
X213969D01*
X213797Y324866D01*
X213023Y326023D01*
X211866Y326797D01*
X211000Y326969D01*
D02*
G37*
G36*
X210000D02*
X209134Y326797D01*
X207977Y326023D01*
X207203Y324866D01*
X207031Y324000D01*
X210000D01*
Y326969D01*
D02*
G37*
G36*
X223469Y324500D02*
X220500D01*
Y321531D01*
X221366Y321703D01*
X222523Y322477D01*
X223297Y323634D01*
X223469Y324500D01*
D02*
G37*
G36*
X219500D02*
X216531D01*
X216703Y323634D01*
X217477Y322477D01*
X218634Y321703D01*
X219500Y321531D01*
Y324500D01*
D02*
G37*
G36*
X22453Y329368D02*
X20911Y329062D01*
X19603Y328188D01*
X18730Y326880D01*
X18423Y325338D01*
X18730Y323796D01*
X19603Y322488D01*
X20911Y321615D01*
X22453Y321308D01*
X23995Y321615D01*
X25303Y322488D01*
X26176Y323796D01*
X26483Y325338D01*
X26176Y326880D01*
X25303Y328188D01*
X23995Y329062D01*
X22453Y329368D01*
D02*
G37*
G36*
X151953Y323767D02*
Y320838D01*
X154882D01*
X154713Y321688D01*
X153948Y322833D01*
X152803Y323598D01*
X151953Y323767D01*
D02*
G37*
G36*
X150953D02*
X150103Y323598D01*
X148958Y322833D01*
X148193Y321688D01*
X148024Y320838D01*
X150953D01*
Y323767D01*
D02*
G37*
G36*
X213969Y323000D02*
X211000D01*
Y320031D01*
X211866Y320203D01*
X213023Y320977D01*
X213797Y322134D01*
X213969Y323000D01*
D02*
G37*
G36*
X210000D02*
X207031D01*
X207203Y322134D01*
X207977Y320977D01*
X209134Y320203D01*
X210000Y320031D01*
Y323000D01*
D02*
G37*
G36*
X154882Y319838D02*
X151953D01*
Y316909D01*
X152803Y317078D01*
X153948Y317843D01*
X154713Y318988D01*
X154882Y319838D01*
D02*
G37*
G36*
X150953D02*
X148024D01*
X148193Y318988D01*
X148958Y317843D01*
X150103Y317078D01*
X150953Y316909D01*
Y319838D01*
D02*
G37*
G36*
X120453Y323867D02*
X119103Y323598D01*
X117958Y322833D01*
X117193Y321688D01*
X116925Y320338D01*
X117193Y318988D01*
X117958Y317843D01*
X119103Y317078D01*
X120453Y316810D01*
X121803Y317078D01*
X122948Y317843D01*
X123713Y318988D01*
X123981Y320338D01*
X123713Y321688D01*
X122948Y322833D01*
X121803Y323598D01*
X120453Y323867D01*
D02*
G37*
G36*
X57213Y320483D02*
X55747Y320191D01*
X54505Y319361D01*
X53675Y318119D01*
X53383Y316653D01*
X53675Y315188D01*
X54505Y313945D01*
X55747Y313115D01*
X57213Y312824D01*
X58678Y313115D01*
X59921Y313945D01*
X60751Y315188D01*
X61042Y316653D01*
X60751Y318119D01*
X59921Y319361D01*
X58678Y320191D01*
X57213Y320483D01*
D02*
G37*
G36*
X26406Y319291D02*
X18500D01*
Y311385D01*
X26406D01*
Y319291D01*
D02*
G37*
G36*
X410000Y319368D02*
X408458Y319061D01*
X407150Y318188D01*
X406277Y316880D01*
X405970Y315338D01*
X406277Y313796D01*
X407150Y312488D01*
X408458Y311615D01*
X410000Y311308D01*
X411542Y311615D01*
X412850Y312488D01*
X413723Y313796D01*
X414030Y315338D01*
X413723Y316880D01*
X412850Y318188D01*
X411542Y319061D01*
X410000Y319368D01*
D02*
G37*
G36*
X307500Y313969D02*
Y311000D01*
X310469D01*
X310297Y311866D01*
X309523Y313023D01*
X308366Y313797D01*
X307500Y313969D01*
D02*
G37*
G36*
X306500D02*
X305634Y313797D01*
X304477Y313023D01*
X303703Y311866D01*
X303531Y311000D01*
X306500D01*
Y313969D01*
D02*
G37*
G36*
X310469Y310000D02*
X307500D01*
Y307031D01*
X308366Y307203D01*
X309523Y307977D01*
X310297Y309134D01*
X310469Y310000D01*
D02*
G37*
G36*
X306500D02*
X303531D01*
X303703Y309134D01*
X304477Y307977D01*
X305634Y307203D01*
X306500Y307031D01*
Y310000D01*
D02*
G37*
G36*
X151453Y313867D02*
X150103Y313598D01*
X148958Y312833D01*
X148193Y311688D01*
X147924Y310338D01*
X148193Y308988D01*
X148958Y307843D01*
X150103Y307078D01*
X151453Y306810D01*
X152803Y307078D01*
X153948Y307843D01*
X154713Y308988D01*
X154981Y310338D01*
X154713Y311688D01*
X153948Y312833D01*
X152803Y313598D01*
X151453Y313867D01*
D02*
G37*
G36*
X120453D02*
X119103Y313598D01*
X117958Y312833D01*
X117193Y311688D01*
X116925Y310338D01*
X117193Y308988D01*
X117958Y307843D01*
X119103Y307078D01*
X120453Y306810D01*
X121803Y307078D01*
X122948Y307843D01*
X123713Y308988D01*
X123981Y310338D01*
X123713Y311688D01*
X122948Y312833D01*
X121803Y313598D01*
X120453Y313867D01*
D02*
G37*
G36*
X410000Y309368D02*
X408458Y309062D01*
X407150Y308188D01*
X406277Y306880D01*
X405970Y305338D01*
X406277Y303796D01*
X407150Y302488D01*
X408458Y301615D01*
X410000Y301308D01*
X411542Y301615D01*
X412850Y302488D01*
X413723Y303796D01*
X414030Y305338D01*
X413723Y306880D01*
X412850Y308188D01*
X411542Y309062D01*
X410000Y309368D01*
D02*
G37*
G36*
X151953Y303767D02*
Y300838D01*
X154882D01*
X154713Y301688D01*
X153948Y302833D01*
X152803Y303598D01*
X151953Y303767D01*
D02*
G37*
G36*
X150953D02*
X150103Y303598D01*
X148958Y302833D01*
X148193Y301688D01*
X148024Y300838D01*
X150953D01*
Y303767D01*
D02*
G37*
G36*
X154882Y299838D02*
X151953D01*
Y296909D01*
X152803Y297078D01*
X153948Y297843D01*
X154713Y298988D01*
X154882Y299838D01*
D02*
G37*
G36*
X150953D02*
X148024D01*
X148193Y298988D01*
X148958Y297843D01*
X150103Y297078D01*
X150953Y296909D01*
Y299838D01*
D02*
G37*
G36*
X183406Y300291D02*
X175500D01*
Y292385D01*
X183406D01*
Y300291D01*
D02*
G37*
G36*
X209453Y300368D02*
X207911Y300061D01*
X206603Y299188D01*
X205730Y297880D01*
X205423Y296338D01*
X205730Y294796D01*
X206603Y293488D01*
X207911Y292615D01*
X209453Y292308D01*
X210995Y292615D01*
X212303Y293488D01*
X213176Y294796D01*
X213483Y296338D01*
X213176Y297880D01*
X212303Y299188D01*
X210995Y300061D01*
X209453Y300368D01*
D02*
G37*
G36*
X410000Y299368D02*
X408458Y299061D01*
X407150Y298188D01*
X406277Y296880D01*
X405970Y295338D01*
X406277Y293796D01*
X407150Y292488D01*
X408458Y291615D01*
X410000Y291308D01*
X411542Y291615D01*
X412850Y292488D01*
X413723Y293796D01*
X414030Y295338D01*
X413723Y296880D01*
X412850Y298188D01*
X411542Y299061D01*
X410000Y299368D01*
D02*
G37*
G36*
X120953Y293767D02*
Y290838D01*
X123882D01*
X123713Y291688D01*
X122948Y292833D01*
X121803Y293598D01*
X120953Y293767D01*
D02*
G37*
G36*
X119953D02*
X119103Y293598D01*
X117958Y292833D01*
X117193Y291688D01*
X117024Y290838D01*
X119953D01*
Y293767D01*
D02*
G37*
G36*
X123882Y289838D02*
X120953D01*
Y286909D01*
X121803Y287078D01*
X122948Y287843D01*
X123713Y288988D01*
X123882Y289838D01*
D02*
G37*
G36*
X119953D02*
X117024D01*
X117193Y288988D01*
X117958Y287843D01*
X119103Y287078D01*
X119953Y286909D01*
Y289838D01*
D02*
G37*
G36*
X151453Y293867D02*
X150103Y293598D01*
X148958Y292833D01*
X148193Y291688D01*
X147924Y290338D01*
X148193Y288988D01*
X148958Y287843D01*
X150103Y287078D01*
X151453Y286810D01*
X152803Y287078D01*
X153948Y287843D01*
X154713Y288988D01*
X154981Y290338D01*
X154713Y291688D01*
X153948Y292833D01*
X152803Y293598D01*
X151453Y293867D01*
D02*
G37*
G36*
X221000Y288969D02*
Y286000D01*
X223969D01*
X223797Y286866D01*
X223023Y288023D01*
X221866Y288797D01*
X221000Y288969D01*
D02*
G37*
G36*
X220000D02*
X219134Y288797D01*
X217977Y288023D01*
X217203Y286866D01*
X217031Y286000D01*
X220000D01*
Y288969D01*
D02*
G37*
G36*
X176000Y390804D02*
X174927Y390591D01*
X174017Y389983D01*
X173409Y389073D01*
X173196Y388000D01*
X173409Y386927D01*
X173961Y386102D01*
Y364000D01*
X174116Y363220D01*
X174558Y362558D01*
X186216Y350900D01*
X186409Y349927D01*
X186961Y349102D01*
Y318730D01*
X151991Y283760D01*
X151453Y283867D01*
X150103Y283598D01*
X148958Y282833D01*
X148653Y282377D01*
X141298D01*
X123874Y299800D01*
X123981Y300338D01*
X123713Y301688D01*
X122948Y302833D01*
X121803Y303598D01*
X120453Y303867D01*
X119103Y303598D01*
X117958Y302833D01*
X117193Y301688D01*
X116925Y300338D01*
X117193Y298988D01*
X117958Y297843D01*
X119103Y297078D01*
X120453Y296810D01*
X120991Y296917D01*
X139011Y278896D01*
X139673Y278454D01*
X140453Y278299D01*
X148653D01*
X148958Y277843D01*
X150103Y277078D01*
X151453Y276810D01*
X152803Y277078D01*
X153948Y277843D01*
X154713Y278988D01*
X154981Y280338D01*
X154874Y280876D01*
X190442Y316443D01*
X190884Y317105D01*
X191039Y317885D01*
Y349102D01*
X191590Y349927D01*
X191804Y351000D01*
X191590Y352073D01*
X190983Y352983D01*
X190073Y353590D01*
X189100Y353784D01*
X178039Y364845D01*
Y386102D01*
X178591Y386927D01*
X178804Y388000D01*
X178591Y389073D01*
X177983Y389983D01*
X177073Y390591D01*
X176000Y390804D01*
D02*
G37*
G36*
X209453Y290368D02*
X207911Y290061D01*
X206603Y289188D01*
X205730Y287880D01*
X205423Y286338D01*
X205730Y284796D01*
X206603Y283488D01*
X207911Y282615D01*
X209453Y282308D01*
X210995Y282615D01*
X212303Y283488D01*
X213176Y284796D01*
X213483Y286338D01*
X213176Y287880D01*
X212303Y289188D01*
X210995Y290061D01*
X209453Y290368D01*
D02*
G37*
G36*
X179453D02*
X177911Y290061D01*
X176603Y289188D01*
X175730Y287880D01*
X175423Y286338D01*
X175730Y284796D01*
X176603Y283488D01*
X177911Y282615D01*
X179453Y282308D01*
X180995Y282615D01*
X182303Y283488D01*
X183176Y284796D01*
X183483Y286338D01*
X183176Y287880D01*
X182303Y289188D01*
X180995Y290061D01*
X179453Y290368D01*
D02*
G37*
G36*
X223969Y285000D02*
X221000D01*
Y282031D01*
X221866Y282203D01*
X223023Y282977D01*
X223797Y284134D01*
X223969Y285000D01*
D02*
G37*
G36*
X220000D02*
X217031D01*
X217203Y284134D01*
X217977Y282977D01*
X219134Y282203D01*
X220000Y282031D01*
Y285000D01*
D02*
G37*
G36*
X99500Y284969D02*
Y282000D01*
X102469D01*
X102297Y282866D01*
X101523Y284023D01*
X100366Y284797D01*
X99500Y284969D01*
D02*
G37*
G36*
X98500D02*
X97634Y284797D01*
X96477Y284023D01*
X95703Y282866D01*
X95531Y282000D01*
X98500D01*
Y284969D01*
D02*
G37*
G36*
X26406Y289291D02*
X18500D01*
Y281385D01*
X26406D01*
Y289291D01*
D02*
G37*
G36*
X402500Y438039D02*
X365500D01*
X364720Y437884D01*
X364058Y437442D01*
X349571Y422955D01*
X349000Y423069D01*
X347634Y422797D01*
X346477Y422023D01*
X345703Y420866D01*
X345431Y419500D01*
X345703Y418134D01*
X346477Y416977D01*
X347634Y416203D01*
X349000Y415931D01*
X350366Y416203D01*
X351523Y416977D01*
X352297Y418134D01*
X352569Y419500D01*
X352455Y420071D01*
X366345Y433961D01*
X401655D01*
X419961Y415655D01*
Y272845D01*
X413155Y266039D01*
X408000D01*
X407220Y265884D01*
X406558Y265442D01*
X394058Y252942D01*
X393616Y252280D01*
X393461Y251500D01*
Y234500D01*
X393616Y233720D01*
X394058Y233058D01*
X398558Y228558D01*
X399220Y228116D01*
X400000Y227961D01*
X406609D01*
X407150Y227150D01*
X407534Y226894D01*
X407428Y226363D01*
X407369Y226351D01*
X406790Y225964D01*
X406790Y225964D01*
X377246Y196420D01*
X376784Y196612D01*
Y241771D01*
X401928Y266915D01*
X401960Y266936D01*
X406409Y271385D01*
X413953D01*
Y279291D01*
X407129D01*
X406938Y279753D01*
X408743Y281558D01*
X410000Y281308D01*
X411542Y281615D01*
X412850Y282488D01*
X413723Y283796D01*
X414030Y285338D01*
X413723Y286880D01*
X412850Y288188D01*
X411542Y289061D01*
X410000Y289368D01*
X408458Y289061D01*
X407150Y288188D01*
X406277Y286880D01*
X405970Y285338D01*
X406220Y284081D01*
X370738Y248600D01*
X370352Y248021D01*
X370216Y247338D01*
Y193810D01*
X340738Y164333D01*
X340352Y163754D01*
X340216Y163071D01*
Y127810D01*
X287539Y75134D01*
X287039Y75341D01*
Y89709D01*
X287039Y89709D01*
X286884Y90489D01*
X286442Y91151D01*
X286442Y91151D01*
X279289Y98304D01*
Y123709D01*
X282266Y126686D01*
X287139D01*
X287919Y126841D01*
X288581Y127283D01*
X295442Y134144D01*
X295884Y134805D01*
X296039Y135586D01*
Y137155D01*
X353442Y194558D01*
X353884Y195220D01*
X354039Y196000D01*
X354039Y196000D01*
Y243864D01*
X353884Y244644D01*
X353442Y245306D01*
X352539Y246209D01*
Y260653D01*
X353023Y260977D01*
X353797Y262134D01*
X354069Y263500D01*
X353797Y264866D01*
X353023Y266023D01*
X352716Y266229D01*
X352675Y266791D01*
X391442Y305558D01*
X391442Y305558D01*
X391884Y306220D01*
X392039Y307000D01*
X392039Y307000D01*
Y400153D01*
X392523Y400477D01*
X393297Y401634D01*
X393569Y403000D01*
X393297Y404366D01*
X392523Y405523D01*
X391366Y406297D01*
X390000Y406569D01*
X388634Y406297D01*
X387477Y405523D01*
X386703Y404366D01*
X386431Y403000D01*
X386703Y401634D01*
X387477Y400477D01*
X387961Y400153D01*
Y307845D01*
X350189Y270073D01*
X349801Y270392D01*
X350297Y271134D01*
X350469Y272000D01*
X347500D01*
Y269031D01*
X348366Y269203D01*
X349109Y269699D01*
X349427Y269311D01*
X349058Y268942D01*
X348616Y268280D01*
X348461Y267500D01*
Y266347D01*
X347977Y266023D01*
X347203Y264866D01*
X346931Y263500D01*
X347203Y262134D01*
X347977Y260977D01*
X348461Y260653D01*
Y245772D01*
X348074Y245454D01*
X348000Y245469D01*
Y242000D01*
Y238531D01*
X348866Y238703D01*
X349520Y239140D01*
X349961Y238905D01*
Y196845D01*
X293194Y140078D01*
X292866Y140297D01*
X292320Y140405D01*
X292215Y140936D01*
X293023Y141477D01*
X293797Y142634D01*
X293969Y143500D01*
X287031D01*
X287203Y142634D01*
X287977Y141477D01*
X289134Y140703D01*
X289680Y140595D01*
X289785Y140064D01*
X288977Y139523D01*
X288203Y138366D01*
X287931Y137000D01*
X288203Y135634D01*
X288977Y134477D01*
X289267Y134283D01*
X289316Y133785D01*
X286294Y130764D01*
X281422D01*
X281422Y130764D01*
X280641Y130609D01*
X279980Y130167D01*
X279980Y130167D01*
X279524Y129712D01*
X279025Y129919D01*
Y132553D01*
X278927Y133041D01*
X278651Y133455D01*
X276274Y135831D01*
Y139685D01*
X276366Y139703D01*
X277523Y140477D01*
X278297Y141634D01*
X278569Y143000D01*
X278297Y144366D01*
X277523Y145523D01*
X276366Y146297D01*
X275000Y146569D01*
X273634Y146297D01*
X272477Y145523D01*
X271703Y144366D01*
X271431Y143000D01*
X271703Y141634D01*
X272477Y140477D01*
X273634Y139703D01*
X273726Y139685D01*
Y135303D01*
X273822Y134816D01*
X273695Y134508D01*
X273128Y134395D01*
X269784Y137739D01*
Y154261D01*
X279739Y164216D01*
X288983D01*
X289477Y163477D01*
X290634Y162703D01*
X292000Y162431D01*
X293366Y162703D01*
X294523Y163477D01*
X295297Y164634D01*
X295569Y166000D01*
X295297Y167366D01*
X294523Y168523D01*
X293366Y169297D01*
X292000Y169569D01*
X290634Y169297D01*
X289477Y168523D01*
X288983Y167784D01*
X279000D01*
X279000Y167784D01*
X278317Y167648D01*
X277738Y167262D01*
X266738Y156262D01*
X266352Y155683D01*
X266216Y155000D01*
Y137000D01*
X266352Y136317D01*
X266738Y135738D01*
X270605Y131872D01*
X270431Y131000D01*
X270703Y129634D01*
X270866Y129390D01*
X262872Y121395D01*
X262000Y121569D01*
X260634Y121297D01*
X259477Y120523D01*
X258703Y119366D01*
X258431Y118000D01*
X258703Y116634D01*
X258845Y116421D01*
X258238Y115815D01*
X257852Y115236D01*
X257716Y114553D01*
Y69517D01*
X256977Y69023D01*
X256203Y67866D01*
X255931Y66500D01*
X256203Y65134D01*
X256977Y63977D01*
X258134Y63203D01*
X259500Y62931D01*
X260866Y63203D01*
X262023Y63977D01*
X262797Y65134D01*
X263069Y66500D01*
X262797Y67866D01*
X262023Y69023D01*
X261284Y69517D01*
Y113814D01*
X261918Y114448D01*
X262000Y114431D01*
X263366Y114703D01*
X264523Y115477D01*
X265297Y116634D01*
X265569Y118000D01*
X265395Y118872D01*
X273229Y126706D01*
X273726Y126495D01*
Y96000D01*
X273822Y95512D01*
X274099Y95099D01*
X279726Y89472D01*
Y87456D01*
X279017Y86983D01*
X278410Y86073D01*
X278196Y85000D01*
X278410Y83927D01*
X279017Y83017D01*
X279927Y82410D01*
X281000Y82196D01*
X282073Y82410D01*
X282520Y82708D01*
X282961Y82472D01*
Y75866D01*
X280051Y72955D01*
X279078Y72762D01*
X278168Y72154D01*
X277560Y71244D01*
X277347Y70171D01*
X277560Y69098D01*
X278168Y68189D01*
X279078Y67581D01*
X279316Y67534D01*
X279461Y67055D01*
X274190Y61784D01*
X179500D01*
X178817Y61648D01*
X178238Y61262D01*
X174110Y57134D01*
X173866Y57297D01*
X172500Y57569D01*
X171134Y57297D01*
X169977Y56523D01*
X169203Y55366D01*
X168931Y54000D01*
X169203Y52634D01*
X169977Y51477D01*
X171134Y50703D01*
X172500Y50431D01*
X173866Y50703D01*
X175023Y51477D01*
X175797Y52634D01*
X176069Y54000D01*
X176061Y54038D01*
X180239Y58216D01*
X191789D01*
X191980Y57754D01*
X189872Y55645D01*
X189000Y55819D01*
X187634Y55547D01*
X186477Y54773D01*
X185703Y53616D01*
X185431Y52250D01*
X185703Y50884D01*
X186477Y49727D01*
X187634Y48953D01*
X189000Y48681D01*
X190366Y48953D01*
X191523Y49727D01*
X192297Y50884D01*
X192569Y52250D01*
X192395Y53122D01*
X194989Y55716D01*
X274039D01*
X274230Y55254D01*
X271511Y52534D01*
X196478D01*
X195795Y52399D01*
X195216Y52012D01*
X188989Y45784D01*
X164239D01*
X161284Y48739D01*
Y66761D01*
X178548Y84025D01*
X178594Y84000D01*
X182000D01*
Y87406D01*
X181975Y87452D01*
X198489Y103966D01*
X200260D01*
X200943Y104102D01*
X201522Y104488D01*
X204012Y106978D01*
X204012Y106978D01*
X204398Y107557D01*
X204534Y108240D01*
X204534Y108240D01*
Y111760D01*
X204534Y111760D01*
X204398Y112443D01*
X204012Y113022D01*
X200477Y116557D01*
X199898Y116944D01*
X199215Y117080D01*
X191444D01*
X189895Y118628D01*
X190069Y119500D01*
X189797Y120866D01*
X189023Y122023D01*
X187866Y122797D01*
X186749Y123019D01*
X186579Y123555D01*
X194239Y131216D01*
X221483D01*
X221977Y130477D01*
X223134Y129703D01*
X224500Y129431D01*
X225866Y129703D01*
X227023Y130477D01*
X227797Y131634D01*
X228069Y133000D01*
X227797Y134366D01*
X227023Y135523D01*
X225866Y136297D01*
X224500Y136569D01*
X223134Y136297D01*
X221977Y135523D01*
X221483Y134784D01*
X193500D01*
X192817Y134649D01*
X192238Y134262D01*
X192238Y134262D01*
X157964Y99988D01*
X157578Y99409D01*
X157442Y98726D01*
Y91015D01*
X133711Y67284D01*
X118739D01*
X106061Y79962D01*
X106069Y80000D01*
X105797Y81366D01*
X105023Y82523D01*
X103866Y83297D01*
X102500Y83569D01*
X101134Y83297D01*
X100706Y83011D01*
X100158Y83246D01*
X100142Y83339D01*
X130263Y113461D01*
X130269Y113463D01*
X130880Y113370D01*
X131477Y112477D01*
X132634Y111703D01*
X134000Y111431D01*
X135366Y111703D01*
X136523Y112477D01*
X137297Y113634D01*
X137569Y115000D01*
X137297Y116366D01*
X136523Y117523D01*
X135366Y118297D01*
X134000Y118569D01*
X133925Y118554D01*
X133690Y118995D01*
X199892Y185197D01*
X200278Y185775D01*
X200414Y186458D01*
X200414Y186458D01*
Y201138D01*
X201992D01*
Y207862D01*
X195268D01*
Y201138D01*
X196846D01*
Y187197D01*
X95238Y85590D01*
X94851Y85011D01*
X94716Y84328D01*
Y74246D01*
X94851Y73563D01*
X95238Y72984D01*
X110216Y58006D01*
Y53115D01*
X110017Y52983D01*
X109409Y52073D01*
X109196Y51000D01*
X109409Y49927D01*
X110017Y49017D01*
X110927Y48410D01*
X112000Y48196D01*
X112234Y48243D01*
X121238Y39238D01*
X121238Y39238D01*
X121817Y38851D01*
X122500Y38716D01*
X173504D01*
X173771Y38216D01*
X173203Y37366D01*
X173031Y36500D01*
X179969D01*
X179797Y37366D01*
X179229Y38216D01*
X179496Y38716D01*
X188331D01*
X188522Y38254D01*
X187558Y37289D01*
X185750D01*
X184970Y37134D01*
X184308Y36692D01*
X180655Y33039D01*
X179200D01*
X179065Y33539D01*
X179797Y34634D01*
X179969Y35500D01*
X173031D01*
X173203Y34634D01*
X173935Y33539D01*
X173800Y33039D01*
X153847D01*
X153523Y33523D01*
X152366Y34297D01*
X151000Y34569D01*
X149634Y34297D01*
X148477Y33523D01*
X148153Y33039D01*
X126254D01*
X121270Y38023D01*
X120609Y38465D01*
X119828Y38620D01*
X114292D01*
X88039Y64873D01*
Y86655D01*
X94929Y93545D01*
X95500Y93431D01*
X96866Y93703D01*
X98023Y94477D01*
X98797Y95634D01*
X99069Y97000D01*
X98797Y98366D01*
X98023Y99523D01*
X96866Y100297D01*
X95500Y100569D01*
X94134Y100297D01*
X92977Y99523D01*
X92483Y98784D01*
X60646D01*
X59963Y98649D01*
X59385Y98262D01*
X59385Y98262D01*
X38839Y77716D01*
X34638D01*
Y70992D01*
X41362D01*
Y75193D01*
X61385Y95216D01*
X90179D01*
X90370Y94754D01*
X84558Y88942D01*
X84116Y88280D01*
X83961Y87500D01*
Y64028D01*
X84116Y63248D01*
X84558Y62586D01*
X112005Y35139D01*
X112667Y34697D01*
X113276Y34576D01*
Y28857D01*
X120000D01*
Y32872D01*
X120462Y33064D01*
X123968Y29558D01*
X123968Y29558D01*
X124629Y29116D01*
X125409Y28961D01*
X148153D01*
X148477Y28477D01*
X149634Y27703D01*
X151000Y27431D01*
X152366Y27703D01*
X153523Y28477D01*
X153847Y28961D01*
X181500D01*
X182280Y29116D01*
X182942Y29558D01*
X185311Y31927D01*
X185699Y31609D01*
X185203Y30866D01*
X184931Y29500D01*
X185203Y28134D01*
X185977Y26977D01*
X187134Y26203D01*
X188500Y25931D01*
X189866Y26203D01*
X191023Y26977D01*
X191797Y28134D01*
X191815Y28225D01*
X206000D01*
X206488Y28322D01*
X206901Y28599D01*
X208557Y30255D01*
X208634Y30203D01*
X210000Y29931D01*
X211366Y30203D01*
X212523Y30977D01*
X213297Y32134D01*
X213569Y33500D01*
X213297Y34866D01*
X212575Y35945D01*
X212649Y36286D01*
X212741Y36479D01*
X213866Y36703D01*
X215023Y37477D01*
X215517Y38216D01*
X258881D01*
X259173Y37716D01*
X259031Y37000D01*
X265969D01*
X265797Y37866D01*
X265356Y38525D01*
X265592Y38966D01*
X274099D01*
X274782Y39101D01*
X275361Y39488D01*
X405528Y169656D01*
X406071Y169491D01*
X406277Y168458D01*
X407150Y167150D01*
X408458Y166277D01*
X410000Y165970D01*
X411542Y166277D01*
X412850Y167150D01*
X413723Y168458D01*
X414030Y170000D01*
X413780Y171257D01*
X415964Y173441D01*
X415964Y173441D01*
X416351Y174020D01*
X416487Y174703D01*
X416487Y174703D01*
Y221948D01*
X416351Y222631D01*
X415964Y223210D01*
X415964Y223210D01*
X413210Y225964D01*
X412631Y226351D01*
X412572Y226363D01*
X412466Y226894D01*
X412850Y227150D01*
X413723Y228458D01*
X414030Y230000D01*
X413723Y231542D01*
X412850Y232850D01*
X411542Y233723D01*
X410000Y234030D01*
X408458Y233723D01*
X407150Y232850D01*
X406609Y232039D01*
X400845D01*
X397539Y235345D01*
Y250655D01*
X408845Y261961D01*
X414000D01*
X414780Y262116D01*
X415442Y262558D01*
X423442Y270558D01*
X423884Y271220D01*
X424039Y272000D01*
Y416500D01*
X423884Y417280D01*
X423442Y417942D01*
X423442Y417942D01*
X403942Y437442D01*
X403280Y437884D01*
X402500Y438039D01*
D02*
G37*
G36*
X102469Y281000D02*
X99500D01*
Y278031D01*
X100366Y278203D01*
X101523Y278977D01*
X102297Y280134D01*
X102469Y281000D01*
D02*
G37*
G36*
X98500D02*
X95531D01*
X95703Y280134D01*
X96477Y278977D01*
X97634Y278203D01*
X98500Y278031D01*
Y281000D01*
D02*
G37*
G36*
X391000Y280469D02*
Y277500D01*
X393969D01*
X393797Y278366D01*
X393023Y279523D01*
X391866Y280297D01*
X391000Y280469D01*
D02*
G37*
G36*
X390000D02*
X389134Y280297D01*
X387977Y279523D01*
X387203Y278366D01*
X387031Y277500D01*
X390000D01*
Y280469D01*
D02*
G37*
G36*
X323500Y279969D02*
X322634Y279797D01*
X321477Y279023D01*
X320703Y277866D01*
X320531Y277000D01*
X323500D01*
Y279969D01*
D02*
G37*
G36*
X120453Y283867D02*
X119103Y283598D01*
X117958Y282833D01*
X117193Y281688D01*
X116925Y280338D01*
X117193Y278988D01*
X117958Y277843D01*
X119103Y277078D01*
X120453Y276810D01*
X121803Y277078D01*
X122948Y277843D01*
X123713Y278988D01*
X123981Y280338D01*
X123713Y281688D01*
X122948Y282833D01*
X121803Y283598D01*
X120453Y283867D01*
D02*
G37*
G36*
X22953Y279269D02*
Y275838D01*
X26384D01*
X26176Y276880D01*
X25303Y278188D01*
X23995Y279062D01*
X22953Y279269D01*
D02*
G37*
G36*
X21953D02*
X20911Y279062D01*
X19603Y278188D01*
X18730Y276880D01*
X18522Y275838D01*
X21953D01*
Y279269D01*
D02*
G37*
G36*
X393969Y276500D02*
X391000D01*
Y273531D01*
X391866Y273703D01*
X393023Y274477D01*
X393797Y275634D01*
X393969Y276500D01*
D02*
G37*
G36*
X390000D02*
X387031D01*
X387203Y275634D01*
X387977Y274477D01*
X389134Y273703D01*
X390000Y273531D01*
Y276500D01*
D02*
G37*
G36*
X323500Y276000D02*
X320531D01*
X320703Y275134D01*
X321477Y273977D01*
X322634Y273203D01*
X323500Y273031D01*
Y276000D01*
D02*
G37*
G36*
X347500Y275969D02*
Y273000D01*
X350469D01*
X350297Y273866D01*
X349523Y275023D01*
X348366Y275797D01*
X347500Y275969D01*
D02*
G37*
G36*
X346500D02*
X345634Y275797D01*
X344477Y275023D01*
X343703Y273866D01*
X343531Y273000D01*
X346500D01*
Y275969D01*
D02*
G37*
G36*
X57213Y280483D02*
X55747Y280191D01*
X54505Y279361D01*
X53675Y278119D01*
X53383Y276653D01*
X53675Y275188D01*
X54505Y273945D01*
X55747Y273115D01*
X57213Y272824D01*
X58678Y273115D01*
X59921Y273945D01*
X60751Y275188D01*
X61042Y276653D01*
X60751Y278119D01*
X59921Y279361D01*
X58678Y280191D01*
X57213Y280483D01*
D02*
G37*
G36*
X209453Y280368D02*
X207911Y280062D01*
X206603Y279188D01*
X205730Y277880D01*
X205423Y276338D01*
X205730Y274796D01*
X206603Y273488D01*
X207911Y272615D01*
X209453Y272308D01*
X210995Y272615D01*
X212303Y273488D01*
X213176Y274796D01*
X213483Y276338D01*
X213176Y277880D01*
X212303Y279188D01*
X210995Y280062D01*
X209453Y280368D01*
D02*
G37*
G36*
X179453D02*
X177911Y280062D01*
X176603Y279188D01*
X175730Y277880D01*
X175423Y276338D01*
X175730Y274796D01*
X176603Y273488D01*
X177911Y272615D01*
X179453Y272308D01*
X180995Y272615D01*
X182303Y273488D01*
X183176Y274796D01*
X183483Y276338D01*
X183176Y277880D01*
X182303Y279188D01*
X180995Y280062D01*
X179453Y280368D01*
D02*
G37*
G36*
X26384Y274838D02*
X22953D01*
Y271407D01*
X23995Y271615D01*
X25303Y272488D01*
X26176Y273796D01*
X26384Y274838D01*
D02*
G37*
G36*
X21953D02*
X18522D01*
X18730Y273796D01*
X19603Y272488D01*
X20911Y271615D01*
X21953Y271407D01*
Y274838D01*
D02*
G37*
G36*
X367000Y273969D02*
Y271000D01*
X369969D01*
X369797Y271866D01*
X369023Y273023D01*
X367866Y273797D01*
X367000Y273969D01*
D02*
G37*
G36*
X366000D02*
X365134Y273797D01*
X363977Y273023D01*
X363203Y271866D01*
X363031Y271000D01*
X366000D01*
Y273969D01*
D02*
G37*
G36*
X346500Y272000D02*
X343531D01*
X343703Y271134D01*
X344477Y269977D01*
X345634Y269203D01*
X346500Y269031D01*
Y272000D01*
D02*
G37*
G36*
X369969Y270000D02*
X367000D01*
Y267031D01*
X367866Y267203D01*
X369023Y267977D01*
X369797Y269134D01*
X369969Y270000D01*
D02*
G37*
G36*
X366000D02*
X363031D01*
X363203Y269134D01*
X363977Y267977D01*
X365134Y267203D01*
X366000Y267031D01*
Y270000D01*
D02*
G37*
G36*
X179953Y270269D02*
Y266838D01*
X183384D01*
X183176Y267880D01*
X182303Y269188D01*
X180995Y270061D01*
X179953Y270269D01*
D02*
G37*
G36*
X178953D02*
X177911Y270061D01*
X176603Y269188D01*
X175730Y267880D01*
X175522Y266838D01*
X178953D01*
Y270269D01*
D02*
G37*
G36*
X151453Y273867D02*
X150103Y273598D01*
X148958Y272833D01*
X148193Y271688D01*
X147924Y270338D01*
X148193Y268988D01*
X148958Y267843D01*
X150103Y267078D01*
X151453Y266810D01*
X152803Y267078D01*
X153948Y267843D01*
X154713Y268988D01*
X154981Y270338D01*
X154713Y271688D01*
X153948Y272833D01*
X152803Y273598D01*
X151453Y273867D01*
D02*
G37*
G36*
X120453D02*
X119103Y273598D01*
X117958Y272833D01*
X117193Y271688D01*
X116925Y270338D01*
X117193Y268988D01*
X117958Y267843D01*
X119103Y267078D01*
X120453Y266810D01*
X121803Y267078D01*
X122948Y267843D01*
X123713Y268988D01*
X123981Y270338D01*
X123713Y271688D01*
X122948Y272833D01*
X121803Y273598D01*
X120453Y273867D01*
D02*
G37*
G36*
X183384Y265838D02*
X179953D01*
Y262407D01*
X180995Y262615D01*
X182303Y263488D01*
X183176Y264796D01*
X183384Y265838D01*
D02*
G37*
G36*
X178953D02*
X175522D01*
X175730Y264796D01*
X176603Y263488D01*
X177911Y262615D01*
X178953Y262407D01*
Y265838D01*
D02*
G37*
G36*
X209453Y270368D02*
X207911Y270061D01*
X206603Y269188D01*
X205730Y267880D01*
X205423Y266338D01*
X205730Y264796D01*
X206603Y263488D01*
X207911Y262615D01*
X209453Y262308D01*
X210995Y262615D01*
X212303Y263488D01*
X213176Y264796D01*
X213483Y266338D01*
X213176Y267880D01*
X212303Y269188D01*
X210995Y270061D01*
X209453Y270368D01*
D02*
G37*
G36*
X296500Y342569D02*
X295134Y342297D01*
X293977Y341523D01*
X293203Y340366D01*
X292931Y339000D01*
X293203Y337634D01*
X293977Y336477D01*
X294461Y336153D01*
Y266845D01*
X289571Y261955D01*
X289000Y262069D01*
X287634Y261797D01*
X286477Y261023D01*
X285703Y259866D01*
X285431Y258500D01*
X285703Y257134D01*
X286477Y255977D01*
X287634Y255203D01*
X289000Y254931D01*
X289872Y255105D01*
X304238Y240738D01*
X304238Y240738D01*
X304817Y240352D01*
X305500Y240216D01*
X309483D01*
X309977Y239477D01*
X311134Y238703D01*
X312500Y238431D01*
X313866Y238703D01*
X315023Y239477D01*
X315797Y240634D01*
X316069Y242000D01*
X315797Y243366D01*
X315023Y244523D01*
X313866Y245297D01*
X312500Y245569D01*
X311134Y245297D01*
X309977Y244523D01*
X309483Y243784D01*
X306239D01*
X292395Y257628D01*
X292569Y258500D01*
X292455Y259071D01*
X297942Y264558D01*
X298384Y265220D01*
X298539Y266000D01*
Y336153D01*
X299023Y336477D01*
X299797Y337634D01*
X300069Y339000D01*
X299797Y340366D01*
X299023Y341523D01*
X297866Y342297D01*
X296500Y342569D01*
D02*
G37*
G36*
X22453Y269368D02*
X20911Y269061D01*
X19603Y268188D01*
X18730Y266880D01*
X18423Y265338D01*
X18730Y263796D01*
X19603Y262488D01*
X20911Y261615D01*
X22453Y261308D01*
X23995Y261615D01*
X25303Y262488D01*
X26176Y263796D01*
X26483Y265338D01*
X26176Y266880D01*
X25303Y268188D01*
X23995Y269061D01*
X22453Y269368D01*
D02*
G37*
G36*
X151453Y263867D02*
X150103Y263598D01*
X148958Y262833D01*
X148193Y261688D01*
X147924Y260338D01*
X148193Y258988D01*
X148958Y257843D01*
X150103Y257078D01*
X151453Y256810D01*
X152803Y257078D01*
X153948Y257843D01*
X154713Y258988D01*
X154981Y260338D01*
X154713Y261688D01*
X153948Y262833D01*
X152803Y263598D01*
X151453Y263867D01*
D02*
G37*
G36*
X120453D02*
X119103Y263598D01*
X117958Y262833D01*
X117193Y261688D01*
X116925Y260338D01*
X117193Y258988D01*
X117958Y257843D01*
X119103Y257078D01*
X120453Y256810D01*
X121803Y257078D01*
X122948Y257843D01*
X123713Y258988D01*
X123981Y260338D01*
X123713Y261688D01*
X122948Y262833D01*
X121803Y263598D01*
X120453Y263867D01*
D02*
G37*
G36*
X209453Y260368D02*
X207911Y260062D01*
X206603Y259188D01*
X205730Y257880D01*
X205423Y256338D01*
X205730Y254796D01*
X206603Y253488D01*
X207911Y252615D01*
X209453Y252308D01*
X210995Y252615D01*
X212303Y253488D01*
X213176Y254796D01*
X213483Y256338D01*
X213176Y257880D01*
X212303Y259188D01*
X210995Y260062D01*
X209453Y260368D01*
D02*
G37*
G36*
X179453D02*
X177911Y260062D01*
X176603Y259188D01*
X175730Y257880D01*
X175423Y256338D01*
X175730Y254796D01*
X176603Y253488D01*
X177911Y252615D01*
X179453Y252308D01*
X180995Y252615D01*
X182303Y253488D01*
X183176Y254796D01*
X183483Y256338D01*
X183176Y257880D01*
X182303Y259188D01*
X180995Y260062D01*
X179453Y260368D01*
D02*
G37*
G36*
X410500Y253931D02*
Y250500D01*
X413931D01*
X413723Y251542D01*
X412850Y252850D01*
X411542Y253723D01*
X410500Y253931D01*
D02*
G37*
G36*
X409500D02*
X408458Y253723D01*
X407150Y252850D01*
X406277Y251542D01*
X406069Y250500D01*
X409500D01*
Y253931D01*
D02*
G37*
G36*
X151453Y253867D02*
X150103Y253598D01*
X148958Y252833D01*
X148193Y251688D01*
X147924Y250338D01*
X148193Y248988D01*
X148958Y247843D01*
X150103Y247078D01*
X151453Y246810D01*
X152803Y247078D01*
X153948Y247843D01*
X154713Y248988D01*
X154981Y250338D01*
X154713Y251688D01*
X153948Y252833D01*
X152803Y253598D01*
X151453Y253867D01*
D02*
G37*
G36*
X120453D02*
X119103Y253598D01*
X117958Y252833D01*
X117193Y251688D01*
X116925Y250338D01*
X117193Y248988D01*
X117958Y247843D01*
X119103Y247078D01*
X120453Y246810D01*
X121803Y247078D01*
X122948Y247843D01*
X123713Y248988D01*
X123981Y250338D01*
X123713Y251688D01*
X122948Y252833D01*
X121803Y253598D01*
X120453Y253867D01*
D02*
G37*
G36*
X413931Y249500D02*
X410500D01*
Y246069D01*
X411542Y246277D01*
X412850Y247150D01*
X413723Y248458D01*
X413931Y249500D01*
D02*
G37*
G36*
X409500D02*
X406069D01*
X406277Y248458D01*
X407150Y247150D01*
X408458Y246277D01*
X409500Y246069D01*
Y249500D01*
D02*
G37*
G36*
X347000Y245469D02*
X346134Y245297D01*
X344977Y244523D01*
X344203Y243366D01*
X344031Y242500D01*
X347000D01*
Y245469D01*
D02*
G37*
G36*
X209453Y250368D02*
X207911Y250061D01*
X206603Y249188D01*
X205730Y247880D01*
X205423Y246338D01*
X205730Y244796D01*
X206603Y243488D01*
X207911Y242615D01*
X209453Y242308D01*
X210995Y242615D01*
X212303Y243488D01*
X213176Y244796D01*
X213483Y246338D01*
X213176Y247880D01*
X212303Y249188D01*
X210995Y250061D01*
X209453Y250368D01*
D02*
G37*
G36*
X387000Y243969D02*
Y241000D01*
X389969D01*
X389797Y241866D01*
X389023Y243023D01*
X387866Y243797D01*
X387000Y243969D01*
D02*
G37*
G36*
X386000D02*
X385134Y243797D01*
X383977Y243023D01*
X383203Y241866D01*
X383031Y241000D01*
X386000D01*
Y243969D01*
D02*
G37*
G36*
X410500Y243931D02*
Y240500D01*
X413931D01*
X413723Y241542D01*
X412850Y242850D01*
X411542Y243723D01*
X410500Y243931D01*
D02*
G37*
G36*
X409500D02*
X408458Y243723D01*
X407150Y242850D01*
X406277Y241542D01*
X406069Y240500D01*
X409500D01*
Y243931D01*
D02*
G37*
G36*
X347000Y241500D02*
X344031D01*
X344203Y240634D01*
X344977Y239477D01*
X346134Y238703D01*
X347000Y238531D01*
Y241500D01*
D02*
G37*
G36*
X389969Y240000D02*
X387000D01*
Y237031D01*
X387866Y237203D01*
X389023Y237977D01*
X389797Y239134D01*
X389969Y240000D01*
D02*
G37*
G36*
X386000D02*
X383031D01*
X383203Y239134D01*
X383977Y237977D01*
X385134Y237203D01*
X386000Y237031D01*
Y240000D01*
D02*
G37*
G36*
X151453Y243867D02*
X150103Y243598D01*
X148958Y242833D01*
X148193Y241688D01*
X147924Y240338D01*
X148193Y238988D01*
X148958Y237843D01*
X150103Y237078D01*
X151453Y236810D01*
X152803Y237078D01*
X153948Y237843D01*
X154713Y238988D01*
X154981Y240338D01*
X154713Y241688D01*
X153948Y242833D01*
X152803Y243598D01*
X151453Y243867D01*
D02*
G37*
G36*
X120453D02*
X119103Y243598D01*
X117958Y242833D01*
X117193Y241688D01*
X116925Y240338D01*
X117193Y238988D01*
X117958Y237843D01*
X119103Y237078D01*
X120453Y236810D01*
X121803Y237078D01*
X122948Y237843D01*
X123713Y238988D01*
X123981Y240338D01*
X123713Y241688D01*
X122948Y242833D01*
X121803Y243598D01*
X120453Y243867D01*
D02*
G37*
G36*
X413931Y239500D02*
X410500D01*
Y236069D01*
X411542Y236277D01*
X412850Y237150D01*
X413723Y238458D01*
X413931Y239500D01*
D02*
G37*
G36*
X409500D02*
X406069D01*
X406277Y238458D01*
X407150Y237150D01*
X408458Y236277D01*
X409500Y236069D01*
Y239500D01*
D02*
G37*
G36*
X22953Y239269D02*
Y235838D01*
X26384D01*
X26176Y236880D01*
X25303Y238188D01*
X23995Y239061D01*
X22953Y239269D01*
D02*
G37*
G36*
X21953D02*
X20911Y239061D01*
X19603Y238188D01*
X18730Y236880D01*
X18522Y235838D01*
X21953D01*
Y239269D01*
D02*
G37*
G36*
X209453Y240368D02*
X207911Y240061D01*
X206603Y239188D01*
X205730Y237880D01*
X205423Y236338D01*
X205730Y234796D01*
X206603Y233488D01*
X207911Y232615D01*
X209453Y232308D01*
X210995Y232615D01*
X212303Y233488D01*
X213176Y234796D01*
X213483Y236338D01*
X213176Y237880D01*
X212303Y239188D01*
X210995Y240061D01*
X209453Y240368D01*
D02*
G37*
G36*
X179453Y250368D02*
X177911Y250061D01*
X176603Y249188D01*
X175730Y247880D01*
X175423Y246338D01*
X175730Y244796D01*
X176603Y243488D01*
X177414Y242947D01*
Y239729D01*
X176603Y239188D01*
X175730Y237880D01*
X175423Y236338D01*
X175730Y234796D01*
X176603Y233488D01*
X177911Y232615D01*
X179453Y232308D01*
X180995Y232615D01*
X182303Y233488D01*
X183176Y234796D01*
X183483Y236338D01*
X183176Y237880D01*
X182303Y239188D01*
X181492Y239729D01*
Y242947D01*
X182303Y243488D01*
X183176Y244796D01*
X183483Y246338D01*
X183176Y247880D01*
X182303Y249188D01*
X180995Y250061D01*
X179453Y250368D01*
D02*
G37*
G36*
X26384Y234838D02*
X22953D01*
Y231407D01*
X23995Y231615D01*
X25303Y232488D01*
X26176Y233796D01*
X26384Y234838D01*
D02*
G37*
G36*
X21953D02*
X18522D01*
X18730Y233796D01*
X19603Y232488D01*
X20911Y231615D01*
X21953Y231407D01*
Y234838D01*
D02*
G37*
G36*
X253000Y233969D02*
Y231000D01*
X255969D01*
X255797Y231866D01*
X255023Y233023D01*
X253866Y233797D01*
X253000Y233969D01*
D02*
G37*
G36*
X252000D02*
X251134Y233797D01*
X249977Y233023D01*
X249203Y231866D01*
X249031Y231000D01*
X252000D01*
Y233969D01*
D02*
G37*
G36*
X76362Y230362D02*
X73500D01*
Y227500D01*
X76362D01*
Y230362D01*
D02*
G37*
G36*
X72500D02*
X69638D01*
Y227500D01*
X72500D01*
Y230362D01*
D02*
G37*
G36*
X255969Y230000D02*
X253000D01*
Y227031D01*
X253866Y227203D01*
X255023Y227977D01*
X255797Y229134D01*
X255969Y230000D01*
D02*
G37*
G36*
X252000D02*
X249031D01*
X249203Y229134D01*
X249977Y227977D01*
X251134Y227203D01*
X252000Y227031D01*
Y230000D01*
D02*
G37*
G36*
X151453Y233867D02*
X150103Y233598D01*
X148958Y232833D01*
X148193Y231688D01*
X147924Y230338D01*
X148193Y228988D01*
X148958Y227843D01*
X150103Y227078D01*
X151453Y226810D01*
X152803Y227078D01*
X153948Y227843D01*
X154713Y228988D01*
X154981Y230338D01*
X154713Y231688D01*
X153948Y232833D01*
X152803Y233598D01*
X151453Y233867D01*
D02*
G37*
G36*
X120453D02*
X119103Y233598D01*
X117958Y232833D01*
X117193Y231688D01*
X116925Y230338D01*
X117193Y228988D01*
X117958Y227843D01*
X119103Y227078D01*
X120453Y226810D01*
X121803Y227078D01*
X122948Y227843D01*
X123713Y228988D01*
X123981Y230338D01*
X123713Y231688D01*
X122948Y232833D01*
X121803Y233598D01*
X120453Y233867D01*
D02*
G37*
G36*
X76362Y226500D02*
X73500D01*
Y223638D01*
X76362D01*
Y226500D01*
D02*
G37*
G36*
X72500D02*
X69638D01*
Y223638D01*
X72500D01*
Y226500D01*
D02*
G37*
G36*
X26406Y229291D02*
X18500D01*
Y221385D01*
X26406D01*
Y229291D01*
D02*
G37*
G36*
X209130Y207829D02*
Y205000D01*
X211959D01*
X211797Y205812D01*
X211054Y206924D01*
X209942Y207667D01*
X209130Y207829D01*
D02*
G37*
G36*
X208130D02*
X207318Y207667D01*
X206206Y206924D01*
X205463Y205812D01*
X205301Y205000D01*
X208130D01*
Y207829D01*
D02*
G37*
G36*
X211959Y204000D02*
X209130D01*
Y201171D01*
X209942Y201333D01*
X211054Y202076D01*
X211797Y203188D01*
X211959Y204000D01*
D02*
G37*
G36*
X208130D02*
X205301D01*
X205463Y203188D01*
X206206Y202076D01*
X207318Y201333D01*
X208130Y201171D01*
Y204000D01*
D02*
G37*
G36*
X218630Y207928D02*
X217318Y207667D01*
X216206Y206924D01*
X215463Y205812D01*
X215202Y204500D01*
X215463Y203188D01*
X216206Y202076D01*
X217318Y201333D01*
X218630Y201072D01*
X219942Y201333D01*
X221054Y202076D01*
X221797Y203188D01*
X222058Y204500D01*
X221797Y205812D01*
X221054Y206924D01*
X219942Y207667D01*
X218630Y207928D01*
D02*
G37*
G36*
X270862Y194862D02*
X264138D01*
Y188138D01*
X270862D01*
Y194862D01*
D02*
G37*
G36*
X268000Y184829D02*
Y182000D01*
X270829D01*
X270667Y182812D01*
X269924Y183924D01*
X268812Y184667D01*
X268000Y184829D01*
D02*
G37*
G36*
X267000D02*
X266188Y184667D01*
X265076Y183924D01*
X264333Y182812D01*
X264171Y182000D01*
X267000D01*
Y184829D01*
D02*
G37*
G36*
X270829Y181000D02*
X268000D01*
Y178171D01*
X268812Y178333D01*
X269924Y179076D01*
X270667Y180188D01*
X270829Y181000D01*
D02*
G37*
G36*
X267000D02*
X264171D01*
X264333Y180188D01*
X265076Y179076D01*
X266188Y178333D01*
X267000Y178171D01*
Y181000D01*
D02*
G37*
G36*
X267500Y174928D02*
X266188Y174667D01*
X265076Y173924D01*
X264333Y172812D01*
X264072Y171500D01*
X264333Y170188D01*
X265076Y169076D01*
X266188Y168333D01*
X267500Y168072D01*
X268812Y168333D01*
X269924Y169076D01*
X270667Y170188D01*
X270928Y171500D01*
X270667Y172812D01*
X269924Y173924D01*
X268812Y174667D01*
X267500Y174928D01*
D02*
G37*
G36*
X151000Y162469D02*
Y159500D01*
X153969D01*
X153797Y160366D01*
X153023Y161523D01*
X151866Y162297D01*
X151000Y162469D01*
D02*
G37*
G36*
X150000D02*
X149134Y162297D01*
X147977Y161523D01*
X147203Y160366D01*
X147031Y159500D01*
X150000D01*
Y162469D01*
D02*
G37*
G36*
X419500Y258569D02*
X418134Y258297D01*
X416977Y257523D01*
X416203Y256366D01*
X415931Y255000D01*
X416203Y253634D01*
X416977Y252477D01*
X418134Y251703D01*
X418225Y251685D01*
Y162528D01*
X414253Y158555D01*
X413792Y158801D01*
X414030Y160000D01*
X413723Y161542D01*
X412850Y162850D01*
X411542Y163723D01*
X410000Y164030D01*
X408458Y163723D01*
X407150Y162850D01*
X406277Y161542D01*
X405970Y160000D01*
X406277Y158458D01*
X407067Y157274D01*
X407041Y157082D01*
X406960Y156883D01*
X406864Y156747D01*
X406512Y156677D01*
X406099Y156401D01*
X393943Y144245D01*
X393866Y144297D01*
X392500Y144569D01*
X391134Y144297D01*
X389977Y143523D01*
X389203Y142366D01*
X388931Y141000D01*
X389203Y139634D01*
X389977Y138477D01*
X391134Y137703D01*
X392500Y137431D01*
X393866Y137703D01*
X395023Y138477D01*
X395797Y139634D01*
X396069Y141000D01*
X395797Y142366D01*
X395745Y142443D01*
X407528Y154226D01*
X408419D01*
X408468Y153726D01*
X408458Y153723D01*
X407150Y152850D01*
X406277Y151542D01*
X405970Y150000D01*
X406277Y148458D01*
X407150Y147150D01*
X408458Y146277D01*
X410000Y145970D01*
X411542Y146277D01*
X412850Y147150D01*
X413723Y148458D01*
X414030Y150000D01*
X413723Y151542D01*
X412850Y152850D01*
X411542Y153723D01*
X411532Y153726D01*
X411581Y154226D01*
X413000D01*
X413488Y154323D01*
X413901Y154599D01*
X420401Y161099D01*
X420678Y161512D01*
X420775Y162000D01*
Y251685D01*
X420866Y251703D01*
X422023Y252477D01*
X422797Y253634D01*
X423069Y255000D01*
X422797Y256366D01*
X422023Y257523D01*
X420866Y258297D01*
X419500Y258569D01*
D02*
G37*
G36*
X153969Y158500D02*
X151000D01*
Y155531D01*
X151866Y155703D01*
X153023Y156477D01*
X153797Y157634D01*
X153969Y158500D01*
D02*
G37*
G36*
X150000D02*
X147031D01*
X147203Y157634D01*
X147977Y156477D01*
X149134Y155703D01*
X150000Y155531D01*
Y158500D01*
D02*
G37*
G36*
X41362Y161362D02*
X34638D01*
Y154638D01*
X41362D01*
Y161362D01*
D02*
G37*
G36*
X291000Y147469D02*
Y144500D01*
X293969D01*
X293797Y145366D01*
X293023Y146523D01*
X291866Y147297D01*
X291000Y147469D01*
D02*
G37*
G36*
X290000D02*
X289134Y147297D01*
X287977Y146523D01*
X287203Y145366D01*
X287031Y144500D01*
X290000D01*
Y147469D01*
D02*
G37*
G36*
X310000Y146969D02*
Y144000D01*
X312969D01*
X312797Y144866D01*
X312023Y146023D01*
X310866Y146797D01*
X310000Y146969D01*
D02*
G37*
G36*
X309000D02*
X308134Y146797D01*
X306977Y146023D01*
X306203Y144866D01*
X306031Y144000D01*
X309000D01*
Y146969D01*
D02*
G37*
G36*
X224500D02*
Y144000D01*
X227469D01*
X227297Y144866D01*
X226523Y146023D01*
X225366Y146797D01*
X224500Y146969D01*
D02*
G37*
G36*
X223500D02*
X222634Y146797D01*
X221477Y146023D01*
X220703Y144866D01*
X220531Y144000D01*
X223500D01*
Y146969D01*
D02*
G37*
G36*
X208500D02*
Y144000D01*
X211469D01*
X211297Y144866D01*
X210523Y146023D01*
X209366Y146797D01*
X208500Y146969D01*
D02*
G37*
G36*
X207500D02*
X206634Y146797D01*
X205477Y146023D01*
X204703Y144866D01*
X204531Y144000D01*
X207500D01*
Y146969D01*
D02*
G37*
G36*
X330500Y146469D02*
Y143500D01*
X333469D01*
X333297Y144366D01*
X332523Y145523D01*
X331366Y146297D01*
X330500Y146469D01*
D02*
G37*
G36*
X329500D02*
X328634Y146297D01*
X327477Y145523D01*
X326703Y144366D01*
X326531Y143500D01*
X329500D01*
Y146469D01*
D02*
G37*
G36*
X312969Y143000D02*
X310000D01*
Y140031D01*
X310866Y140203D01*
X312023Y140977D01*
X312797Y142134D01*
X312969Y143000D01*
D02*
G37*
G36*
X309000D02*
X306031D01*
X306203Y142134D01*
X306977Y140977D01*
X308134Y140203D01*
X309000Y140031D01*
Y143000D01*
D02*
G37*
G36*
X227469D02*
X224500D01*
Y140031D01*
X225366Y140203D01*
X226523Y140977D01*
X227297Y142134D01*
X227469Y143000D01*
D02*
G37*
G36*
X223500D02*
X220531D01*
X220703Y142134D01*
X221477Y140977D01*
X222634Y140203D01*
X223500Y140031D01*
Y143000D01*
D02*
G37*
G36*
X211469D02*
X208500D01*
Y140031D01*
X209366Y140203D01*
X210523Y140977D01*
X211297Y142134D01*
X211469Y143000D01*
D02*
G37*
G36*
X207500D02*
X204531D01*
X204703Y142134D01*
X205477Y140977D01*
X206634Y140203D01*
X207500Y140031D01*
Y143000D01*
D02*
G37*
G36*
X333469Y142500D02*
X330500D01*
Y139531D01*
X331366Y139703D01*
X332523Y140477D01*
X333297Y141634D01*
X333469Y142500D01*
D02*
G37*
G36*
X329500D02*
X326531D01*
X326703Y141634D01*
X327477Y140477D01*
X328634Y139703D01*
X329500Y139531D01*
Y142500D01*
D02*
G37*
G36*
X410000Y144030D02*
X408458Y143723D01*
X407150Y142850D01*
X406277Y141542D01*
X405970Y140000D01*
X406277Y138458D01*
X407150Y137150D01*
X408458Y136277D01*
X410000Y135970D01*
X411542Y136277D01*
X412850Y137150D01*
X413723Y138458D01*
X414030Y140000D01*
X413723Y141542D01*
X412850Y142850D01*
X411542Y143723D01*
X410000Y144030D01*
D02*
G37*
G36*
X81500Y138469D02*
Y135500D01*
X84469D01*
X84297Y136366D01*
X83523Y137523D01*
X82366Y138297D01*
X81500Y138469D01*
D02*
G37*
G36*
X80500D02*
X79634Y138297D01*
X78477Y137523D01*
X77703Y136366D01*
X77531Y135500D01*
X80500D01*
Y138469D01*
D02*
G37*
G36*
X84469Y134500D02*
X81500D01*
Y131531D01*
X82366Y131703D01*
X83523Y132477D01*
X84297Y133634D01*
X84469Y134500D01*
D02*
G37*
G36*
X80500D02*
X77531D01*
X77703Y133634D01*
X78477Y132477D01*
X79634Y131703D01*
X80500Y131531D01*
Y134500D01*
D02*
G37*
G36*
X254500Y136069D02*
X253134Y135797D01*
X251977Y135023D01*
X251203Y133866D01*
X250931Y132500D01*
X251203Y131134D01*
X251255Y131057D01*
X244722Y124524D01*
X199857D01*
X199523Y125023D01*
X198366Y125797D01*
X197000Y126069D01*
X195634Y125797D01*
X194477Y125023D01*
X193703Y123866D01*
X193431Y122500D01*
X193703Y121134D01*
X194477Y119977D01*
X195634Y119203D01*
X197000Y118931D01*
X198366Y119203D01*
X199523Y119977D01*
X200297Y121134D01*
X200464Y121976D01*
X201914D01*
X202150Y121535D01*
X201703Y120866D01*
X201431Y119500D01*
X201703Y118134D01*
X202477Y116977D01*
X203634Y116203D01*
X205000Y115931D01*
X206366Y116203D01*
X207523Y116977D01*
X208297Y118134D01*
X208315Y118226D01*
X209682D01*
X209999Y117839D01*
X209931Y117500D01*
X210203Y116134D01*
X210977Y114977D01*
X212134Y114203D01*
X213500Y113931D01*
X214866Y114203D01*
X216023Y114977D01*
X216797Y116134D01*
X217069Y117500D01*
X216797Y118866D01*
X216023Y120023D01*
X214866Y120797D01*
X213500Y121069D01*
X212134Y120797D01*
X211674Y120489D01*
X211391Y120677D01*
X210904Y120774D01*
X208315D01*
X208297Y120866D01*
X207850Y121535D01*
X208086Y121976D01*
X245250D01*
X245738Y122073D01*
X246151Y122349D01*
X253057Y129255D01*
X253134Y129203D01*
X254500Y128931D01*
X255866Y129203D01*
X257023Y129977D01*
X257797Y131134D01*
X258069Y132500D01*
X257797Y133866D01*
X257023Y135023D01*
X255866Y135797D01*
X254500Y136069D01*
D02*
G37*
G36*
X410000Y134030D02*
X408458Y133723D01*
X407150Y132850D01*
X406277Y131542D01*
X405970Y130000D01*
X406277Y128458D01*
X407150Y127150D01*
X408458Y126277D01*
X410000Y125970D01*
X411542Y126277D01*
X412850Y127150D01*
X413723Y128458D01*
X414030Y130000D01*
X413723Y131542D01*
X412850Y132850D01*
X411542Y133723D01*
X410000Y134030D01*
D02*
G37*
G36*
X38000Y131428D02*
X36688Y131167D01*
X35576Y130424D01*
X34833Y129312D01*
X34572Y128000D01*
X34833Y126688D01*
X35576Y125576D01*
X36688Y124833D01*
X38000Y124572D01*
X39312Y124833D01*
X40424Y125576D01*
X41167Y126688D01*
X41428Y128000D01*
X41167Y129312D01*
X40424Y130424D01*
X39312Y131167D01*
X38000Y131428D01*
D02*
G37*
G36*
X324000Y126069D02*
X322634Y125797D01*
X321477Y125023D01*
X320703Y123866D01*
X320685Y123775D01*
X287500D01*
X287012Y123678D01*
X286599Y123401D01*
X286443Y123245D01*
X286366Y123297D01*
X285000Y123569D01*
X283634Y123297D01*
X282477Y122523D01*
X281703Y121366D01*
X281431Y120000D01*
X281703Y118634D01*
X282477Y117477D01*
X283634Y116703D01*
X285000Y116431D01*
X286366Y116703D01*
X287523Y117477D01*
X288297Y118634D01*
X288569Y120000D01*
X288402Y120839D01*
X288719Y121226D01*
X320685D01*
X320703Y121134D01*
X321477Y119977D01*
X322634Y119203D01*
X324000Y118931D01*
X325366Y119203D01*
X326523Y119977D01*
X327297Y121134D01*
X327569Y122500D01*
X327297Y123866D01*
X326523Y125023D01*
X325366Y125797D01*
X324000Y126069D01*
D02*
G37*
G36*
X413953Y123953D02*
X406047D01*
Y121784D01*
X362500D01*
X362500Y121784D01*
X361817Y121649D01*
X361238Y121262D01*
X361238Y121262D01*
X351872Y111895D01*
X351000Y112069D01*
X349634Y111797D01*
X348477Y111023D01*
X347703Y109866D01*
X347431Y108500D01*
X347703Y107134D01*
X348477Y105977D01*
X349634Y105203D01*
X351000Y104931D01*
X352366Y105203D01*
X353523Y105977D01*
X354297Y107134D01*
X354569Y108500D01*
X354395Y109372D01*
X363239Y118216D01*
X406047D01*
Y116047D01*
X413953D01*
Y123953D01*
D02*
G37*
G36*
X61000Y117969D02*
Y115000D01*
X63969D01*
X63797Y115866D01*
X63023Y117023D01*
X61866Y117797D01*
X61000Y117969D01*
D02*
G37*
G36*
X60000D02*
X59134Y117797D01*
X57977Y117023D01*
X57203Y115866D01*
X57031Y115000D01*
X60000D01*
Y117969D01*
D02*
G37*
G36*
X63969Y114000D02*
X61000D01*
Y111031D01*
X61866Y111203D01*
X63023Y111977D01*
X63797Y113134D01*
X63969Y114000D01*
D02*
G37*
G36*
X60000D02*
X57031D01*
X57203Y113134D01*
X57977Y111977D01*
X59134Y111203D01*
X60000Y111031D01*
Y114000D01*
D02*
G37*
G36*
X397500Y112469D02*
Y109500D01*
X400469D01*
X400297Y110366D01*
X399523Y111523D01*
X398366Y112297D01*
X397500Y112469D01*
D02*
G37*
G36*
X396500D02*
X395634Y112297D01*
X394477Y111523D01*
X393703Y110366D01*
X393531Y109500D01*
X396500D01*
Y112469D01*
D02*
G37*
G36*
X214500Y111469D02*
Y108500D01*
X217469D01*
X217297Y109366D01*
X216523Y110523D01*
X215366Y111297D01*
X214500Y111469D01*
D02*
G37*
G36*
X213500D02*
X212634Y111297D01*
X211477Y110523D01*
X210703Y109366D01*
X210531Y108500D01*
X213500D01*
Y111469D01*
D02*
G37*
G36*
X133000Y109969D02*
Y107000D01*
X135969D01*
X135797Y107866D01*
X135023Y109023D01*
X133866Y109797D01*
X133000Y109969D01*
D02*
G37*
G36*
X132000D02*
X131134Y109797D01*
X129977Y109023D01*
X129203Y107866D01*
X129031Y107000D01*
X132000D01*
Y109969D01*
D02*
G37*
G36*
X400469Y108500D02*
X397500D01*
Y105531D01*
X398366Y105703D01*
X399523Y106477D01*
X400297Y107634D01*
X400469Y108500D01*
D02*
G37*
G36*
X396500D02*
X393531D01*
X393703Y107634D01*
X394477Y106477D01*
X395634Y105703D01*
X396500Y105531D01*
Y108500D01*
D02*
G37*
G36*
X217469Y107500D02*
X214500D01*
Y104531D01*
X215366Y104703D01*
X216523Y105477D01*
X217297Y106634D01*
X217469Y107500D01*
D02*
G37*
G36*
X213500D02*
X210531D01*
X210703Y106634D01*
X211477Y105477D01*
X212634Y104703D01*
X213500Y104531D01*
Y107500D01*
D02*
G37*
G36*
X135969Y106000D02*
X133000D01*
Y103031D01*
X133866Y103203D01*
X135023Y103977D01*
X135797Y105134D01*
X135969Y106000D01*
D02*
G37*
G36*
X132000D02*
X129031D01*
X129203Y105134D01*
X129977Y103977D01*
X131134Y103203D01*
X132000Y103031D01*
Y106000D01*
D02*
G37*
G36*
X349000Y101969D02*
Y99000D01*
X351969D01*
X351797Y99866D01*
X351023Y101023D01*
X349866Y101797D01*
X349000Y101969D01*
D02*
G37*
G36*
X348000D02*
X347134Y101797D01*
X345977Y101023D01*
X345203Y99866D01*
X345031Y99000D01*
X348000D01*
Y101969D01*
D02*
G37*
G36*
X351969Y98000D02*
X349000D01*
Y95031D01*
X349866Y95203D01*
X351023Y95977D01*
X351797Y97134D01*
X351969Y98000D01*
D02*
G37*
G36*
X348000D02*
X345031D01*
X345203Y97134D01*
X345977Y95977D01*
X347134Y95203D01*
X348000Y95031D01*
Y98000D01*
D02*
G37*
G36*
X133500Y94469D02*
Y91500D01*
X136469D01*
X136297Y92366D01*
X135523Y93523D01*
X134366Y94297D01*
X133500Y94469D01*
D02*
G37*
G36*
X132500D02*
X131634Y94297D01*
X130477Y93523D01*
X129703Y92366D01*
X129531Y91500D01*
X132500D01*
Y94469D01*
D02*
G37*
G36*
X196000Y91969D02*
Y89000D01*
X198969D01*
X198797Y89866D01*
X198023Y91023D01*
X196866Y91797D01*
X196000Y91969D01*
D02*
G37*
G36*
X195000D02*
X194134Y91797D01*
X192977Y91023D01*
X192203Y89866D01*
X192031Y89000D01*
X195000D01*
Y91969D01*
D02*
G37*
G36*
X136469Y90500D02*
X133500D01*
Y87531D01*
X134366Y87703D01*
X135523Y88477D01*
X136297Y89634D01*
X136469Y90500D01*
D02*
G37*
G36*
X132500D02*
X129531D01*
X129703Y89634D01*
X130477Y88477D01*
X131634Y87703D01*
X132500Y87531D01*
Y90500D01*
D02*
G37*
G36*
X198969Y88000D02*
X196000D01*
Y85031D01*
X196866Y85203D01*
X198023Y85977D01*
X198797Y87134D01*
X198969Y88000D01*
D02*
G37*
G36*
X195000D02*
X192031D01*
X192203Y87134D01*
X192977Y85977D01*
X194134Y85203D01*
X195000Y85031D01*
Y88000D01*
D02*
G37*
G36*
X183000Y86969D02*
Y84000D01*
X185969D01*
X185797Y84866D01*
X185023Y86023D01*
X183866Y86797D01*
X183000Y86969D01*
D02*
G37*
G36*
X185969Y83000D02*
X183000D01*
Y80031D01*
X183866Y80203D01*
X185023Y80977D01*
X185797Y82134D01*
X185969Y83000D01*
D02*
G37*
G36*
X182000D02*
X179031D01*
X179203Y82134D01*
X179977Y80977D01*
X181134Y80203D01*
X182000Y80031D01*
Y83000D01*
D02*
G37*
G36*
X203256Y100814D02*
X201890Y100542D01*
X200732Y99769D01*
X199959Y98611D01*
X199687Y97245D01*
X199959Y95880D01*
X200732Y94722D01*
X201890Y93948D01*
X203256Y93677D01*
X204621Y93948D01*
X204699Y94000D01*
X230100Y68599D01*
X230513Y68322D01*
X231001Y68226D01*
X234685D01*
X234703Y68134D01*
X235477Y66977D01*
X236634Y66203D01*
X238000Y65931D01*
X239366Y66203D01*
X240523Y66977D01*
X241297Y68134D01*
X241569Y69500D01*
X241297Y70866D01*
X240523Y72023D01*
X239366Y72797D01*
X238000Y73069D01*
X236634Y72797D01*
X235477Y72023D01*
X234703Y70866D01*
X234685Y70775D01*
X231529D01*
X206501Y95802D01*
X206553Y95880D01*
X206824Y97245D01*
X206553Y98611D01*
X205779Y99769D01*
X204621Y100542D01*
X203256Y100814D01*
D02*
G37*
G36*
X318000Y56969D02*
Y54000D01*
X320969D01*
X320797Y54866D01*
X320023Y56023D01*
X318866Y56797D01*
X318000Y56969D01*
D02*
G37*
G36*
X317000D02*
X316134Y56797D01*
X314977Y56023D01*
X314203Y54866D01*
X314031Y54000D01*
X317000D01*
Y56969D01*
D02*
G37*
G36*
X298500D02*
Y54000D01*
X301469D01*
X301297Y54866D01*
X300523Y56023D01*
X299366Y56797D01*
X298500Y56969D01*
D02*
G37*
G36*
X297500D02*
X296634Y56797D01*
X295477Y56023D01*
X294703Y54866D01*
X294531Y54000D01*
X297500D01*
Y56969D01*
D02*
G37*
G36*
X320969Y53000D02*
X318000D01*
Y50031D01*
X318866Y50203D01*
X320023Y50977D01*
X320797Y52134D01*
X320969Y53000D01*
D02*
G37*
G36*
X317000D02*
X314031D01*
X314203Y52134D01*
X314977Y50977D01*
X316134Y50203D01*
X317000Y50031D01*
Y53000D01*
D02*
G37*
G36*
X301469D02*
X298500D01*
Y50031D01*
X299366Y50203D01*
X300523Y50977D01*
X301297Y52134D01*
X301469Y53000D01*
D02*
G37*
G36*
X297500D02*
X294531D01*
X294703Y52134D01*
X295477Y50977D01*
X296634Y50203D01*
X297500Y50031D01*
Y53000D01*
D02*
G37*
G36*
X38500Y47682D02*
Y44854D01*
X41329D01*
X41167Y45666D01*
X40424Y46778D01*
X39312Y47521D01*
X38500Y47682D01*
D02*
G37*
G36*
X37500D02*
X36688Y47521D01*
X35576Y46778D01*
X34833Y45666D01*
X34671Y44854D01*
X37500D01*
Y47682D01*
D02*
G37*
G36*
X41329Y43854D02*
X38500D01*
Y41025D01*
X39312Y41187D01*
X40424Y41930D01*
X41167Y43042D01*
X41329Y43854D01*
D02*
G37*
G36*
X37500D02*
X34671D01*
X34833Y43042D01*
X35576Y41930D01*
X36688Y41187D01*
X37500Y41025D01*
Y43854D01*
D02*
G37*
G36*
X106638Y35647D02*
X105326Y35386D01*
X104214Y34643D01*
X103471Y33531D01*
X103210Y32219D01*
X103471Y30907D01*
X104214Y29795D01*
X105326Y29052D01*
X106638Y28791D01*
X107950Y29052D01*
X109062Y29795D01*
X109805Y30907D01*
X110066Y32219D01*
X109805Y33531D01*
X109062Y34643D01*
X107950Y35386D01*
X106638Y35647D01*
D02*
G37*
G36*
X96638D02*
X95326Y35386D01*
X94214Y34643D01*
X93471Y33531D01*
X93210Y32219D01*
X93471Y30907D01*
X94214Y29795D01*
X95326Y29052D01*
X96638Y28791D01*
X97950Y29052D01*
X99062Y29795D01*
X99805Y30907D01*
X100066Y32219D01*
X99805Y33531D01*
X99062Y34643D01*
X97950Y35386D01*
X96638Y35647D01*
D02*
G37*
G36*
X73000Y200428D02*
X71688Y200167D01*
X70576Y199424D01*
X69833Y198312D01*
X69572Y197000D01*
X69833Y195688D01*
X70576Y194576D01*
X71216Y194149D01*
Y141239D01*
X29738Y99762D01*
X29351Y99183D01*
X29216Y98500D01*
Y64000D01*
X29351Y63317D01*
X29738Y62738D01*
X74238Y18238D01*
X74238Y18238D01*
X74817Y17852D01*
X75500Y17716D01*
X253000D01*
X253683Y17852D01*
X254262Y18238D01*
X262128Y26105D01*
X263000Y25931D01*
X264366Y26203D01*
X265523Y26977D01*
X266297Y28134D01*
X266569Y29500D01*
X266297Y30866D01*
X265523Y32023D01*
X264366Y32797D01*
X264206Y32829D01*
X264100Y33360D01*
X265023Y33977D01*
X265797Y35134D01*
X265969Y36000D01*
X259031D01*
X259203Y35134D01*
X259977Y33977D01*
X261134Y33203D01*
X261295Y33171D01*
X261400Y32640D01*
X260477Y32023D01*
X259703Y30866D01*
X259431Y29500D01*
X259605Y28628D01*
X252261Y21284D01*
X76239D01*
X32784Y64739D01*
Y97761D01*
X74262Y139238D01*
X74648Y139817D01*
X74784Y140500D01*
X74784Y140500D01*
Y194149D01*
X75424Y194576D01*
X76167Y195688D01*
X76428Y197000D01*
X76167Y198312D01*
X75424Y199424D01*
X74312Y200167D01*
X73000Y200428D01*
D02*
G37*
%LPD*%
G36*
X404216Y419261D02*
Y411739D01*
X404036Y411559D01*
X403649Y410980D01*
X403513Y410297D01*
Y404816D01*
X403051Y404624D01*
X401221Y406455D01*
X401221Y406455D01*
X401220Y406455D01*
X390914Y416762D01*
X390335Y417148D01*
X389652Y417284D01*
X377490D01*
X376807Y417148D01*
X376228Y416762D01*
X376228Y416762D01*
X336496Y377030D01*
X336034Y377221D01*
Y384511D01*
X376618Y425094D01*
X398382D01*
X404216Y419261D01*
D02*
G37*
G36*
X415716Y411761D02*
Y399450D01*
X415254Y399258D01*
X412912Y401600D01*
X412666Y401764D01*
X412666Y402366D01*
X412850Y402488D01*
X413723Y403796D01*
X413931Y404838D01*
X410000D01*
Y405338D01*
X409500D01*
Y409269D01*
X408458Y409061D01*
X407582Y408476D01*
X407082Y408743D01*
Y409558D01*
X407262Y409738D01*
X407262Y409738D01*
X407649Y410317D01*
X407784Y411000D01*
Y419039D01*
X408246Y419230D01*
X415716Y411761D01*
D02*
G37*
G36*
X329966Y255908D02*
Y219513D01*
X329466Y219361D01*
X329023Y220023D01*
X327866Y220797D01*
X327775Y220815D01*
Y253000D01*
Y253500D01*
X327677Y253988D01*
X327401Y254401D01*
X326727Y255075D01*
X326973Y255536D01*
X327500Y255431D01*
X328866Y255703D01*
X329525Y256143D01*
X329966Y255908D01*
D02*
G37*
%LPC*%
G36*
X410500Y409269D02*
Y405838D01*
X413931D01*
X413723Y406880D01*
X412850Y408188D01*
X411542Y409061D01*
X410500Y409269D01*
D02*
G37*
%LPD*%
G36*
X406047Y278209D02*
Y275600D01*
X405875Y275160D01*
X405193Y275024D01*
X404614Y274637D01*
X404614Y274637D01*
X399457Y269480D01*
X399426Y269460D01*
X374246Y244280D01*
X373784Y244471D01*
Y246599D01*
X405585Y278400D01*
X406047Y278209D01*
D02*
G37*
G36*
X412919Y216595D02*
Y213405D01*
X412419Y213138D01*
X411542Y213723D01*
X410000Y214030D01*
X408458Y213723D01*
X407150Y212850D01*
X406277Y211542D01*
X405970Y210000D01*
X406160Y209044D01*
X369058Y171942D01*
X368616Y171280D01*
X368461Y170500D01*
Y153847D01*
X367977Y153523D01*
X367203Y152366D01*
X366931Y151000D01*
X367203Y149634D01*
X367977Y148477D01*
X368461Y148153D01*
Y141920D01*
X351746Y125205D01*
X351284Y125397D01*
Y158761D01*
X408743Y216220D01*
X410000Y215970D01*
X411542Y216277D01*
X412419Y216862D01*
X412919Y216595D01*
D02*
G37*
G36*
Y206595D02*
Y203405D01*
X412419Y203138D01*
X411542Y203723D01*
X410000Y204030D01*
X408458Y203723D01*
X407150Y202850D01*
X406277Y201542D01*
X405970Y200000D01*
X406220Y198743D01*
X393738Y186262D01*
X393352Y185683D01*
X393216Y185000D01*
Y177017D01*
X392477Y176523D01*
X391703Y175366D01*
X391431Y174000D01*
X391703Y172634D01*
X392477Y171477D01*
X393634Y170703D01*
X395000Y170431D01*
X396366Y170703D01*
X397523Y171477D01*
X398297Y172634D01*
X398569Y174000D01*
X398297Y175366D01*
X397523Y176523D01*
X396784Y177017D01*
Y184261D01*
X408743Y196220D01*
X410000Y195970D01*
X411542Y196277D01*
X412419Y196862D01*
X412919Y196595D01*
Y193405D01*
X412419Y193138D01*
X411542Y193723D01*
X410000Y194030D01*
X408458Y193723D01*
X407150Y192850D01*
X406277Y191542D01*
X405970Y190000D01*
X406277Y188458D01*
X407150Y187150D01*
X408458Y186277D01*
X410000Y185970D01*
X411542Y186277D01*
X412419Y186862D01*
X412919Y186595D01*
Y183405D01*
X412419Y183138D01*
X411542Y183723D01*
X410000Y184030D01*
X408458Y183723D01*
X407150Y182850D01*
X406277Y181542D01*
X405970Y180000D01*
X406277Y178458D01*
X407150Y177150D01*
X407242Y177089D01*
X407295Y176469D01*
X373001Y142175D01*
X372539Y142367D01*
Y148153D01*
X373023Y148477D01*
X373797Y149634D01*
X374069Y151000D01*
X373797Y152366D01*
X373023Y153523D01*
X372539Y153847D01*
Y169655D01*
X409044Y206160D01*
X410000Y205970D01*
X411542Y206277D01*
X412419Y206862D01*
X412919Y206595D01*
D02*
G37*
G36*
X406071Y219491D02*
X406220Y218743D01*
X379746Y192270D01*
X379284Y192461D01*
Y193412D01*
X405528Y219656D01*
X406071Y219491D01*
D02*
G37*
G36*
X115740Y65236D02*
X115549Y64775D01*
X112821D01*
X101469Y76127D01*
X101715Y76588D01*
X102500Y76431D01*
X103866Y76703D01*
X104110Y76867D01*
X115740Y65236D01*
D02*
G37*
G36*
X182981Y119251D02*
X183203Y118134D01*
X183977Y116977D01*
X185134Y116203D01*
X186500Y115931D01*
X187372Y116105D01*
X189443Y114034D01*
X190022Y113647D01*
X190705Y113511D01*
X190705Y113511D01*
X196555D01*
X196707Y113011D01*
X195977Y112523D01*
X195203Y111366D01*
X195185Y111275D01*
X195000D01*
X194512Y111178D01*
X194099Y110901D01*
X147972Y64775D01*
X136901D01*
X136709Y65236D01*
X160488Y89015D01*
X160488Y89015D01*
X160874Y89593D01*
X161010Y90276D01*
X161010Y90276D01*
Y97987D01*
X182445Y119422D01*
X182981Y119251D01*
D02*
G37*
G36*
X195516Y108167D02*
X195977Y107477D01*
X196140Y107367D01*
X196202Y106725D01*
X158238Y68762D01*
X157852Y68183D01*
X157716Y67500D01*
Y48000D01*
X157852Y47317D01*
X158238Y46738D01*
X162192Y42784D01*
X162167Y42592D01*
X162018Y42284D01*
X123239D01*
X114757Y50766D01*
X114804Y51000D01*
X114591Y52073D01*
X113983Y52983D01*
X113784Y53115D01*
Y58745D01*
X113648Y59428D01*
X113262Y60007D01*
X98619Y74650D01*
X98621Y74662D01*
X99164Y74827D01*
X111392Y62599D01*
X111805Y62322D01*
X112293Y62226D01*
X148500D01*
X148988Y62322D01*
X149401Y62599D01*
X195018Y108216D01*
X195516Y108167D01*
D02*
G37*
G36*
X260370Y42461D02*
X260057Y42399D01*
X259478Y42012D01*
X259250Y41784D01*
X215517D01*
X215065Y42461D01*
X215200Y42961D01*
X260321D01*
X260370Y42461D01*
D02*
G37*
G36*
X209935D02*
X209203Y41366D01*
X208931Y40000D01*
X209203Y38634D01*
X209925Y37555D01*
X209851Y37214D01*
X209759Y37021D01*
X208634Y36797D01*
X207477Y36023D01*
X206703Y34866D01*
X206431Y33500D01*
X206703Y32134D01*
X206755Y32057D01*
X205472Y30775D01*
X191815D01*
X191797Y30866D01*
X191023Y32023D01*
X189866Y32797D01*
X189324Y32905D01*
X189276Y33062D01*
X189271Y33425D01*
X189844Y33808D01*
X198997Y42961D01*
X209800D01*
X209935Y42461D01*
D02*
G37*
D13*
X413000Y155500D02*
X419500Y162000D01*
X307848Y272152D02*
X326500Y253500D01*
Y253000D02*
Y253500D01*
Y217500D02*
Y253000D01*
X188500Y29500D02*
X206000D01*
X210000Y33500D01*
X275000Y96000D02*
X281000Y90000D01*
X275000Y96000D02*
Y126697D01*
X281000Y85000D02*
Y90000D01*
X392500Y141000D02*
X407000Y155500D01*
X413000D01*
X419500Y162000D02*
Y255000D01*
X275000Y135303D02*
Y143000D01*
X277750Y129447D02*
Y132553D01*
X275000Y135303D02*
X277750Y132553D01*
X275000Y126697D02*
X277750Y129447D01*
X285000Y120000D02*
X287500Y122500D01*
X324000D01*
X203256Y97245D02*
Y97245D01*
Y97245D02*
X231001Y69500D01*
X238000D01*
X212904Y117500D02*
X213500D01*
X210904Y119500D02*
X212904Y117500D01*
X205000Y119500D02*
X210904D01*
X197750Y123250D02*
X245250D01*
X197000Y122500D02*
X197750Y123250D01*
X148500Y63500D02*
X195000Y110000D01*
X198500D01*
X112293Y63500D02*
X148500D01*
X245250Y123250D02*
X254500Y132500D01*
X130000Y115000D02*
X134000D01*
X98500Y83500D02*
X130000Y115000D01*
X98500Y77293D02*
Y83500D01*
Y77293D02*
X112293Y63500D01*
D52*
X178500Y236500D02*
X179453Y237453D01*
Y246338D01*
X408000Y264000D02*
X414000D01*
X395500Y234500D02*
Y251500D01*
X408000Y264000D01*
X327500Y259000D02*
X328074Y259574D01*
Y261246D01*
X328500Y261672D01*
X350188Y264000D02*
X350500Y264312D01*
Y267500D02*
X390000Y307000D01*
X350500Y245364D02*
X352000Y243864D01*
X350500Y245364D02*
Y263500D01*
X352000Y196000D02*
Y243864D01*
X185750Y35250D02*
X188402D01*
X125409Y31000D02*
X151000D01*
X181500D01*
X198152Y45000D02*
X274425D01*
X188402Y35250D02*
X198152Y45000D01*
X181500Y31000D02*
X185750Y35250D01*
X370500Y141075D02*
Y151000D01*
X274425Y45000D02*
X370500Y141075D01*
X294000Y137000D02*
Y138000D01*
X352000Y196000D01*
X287139Y128725D02*
X294000Y135586D01*
X277250Y124553D02*
X281422Y128725D01*
X277250Y97459D02*
X285000Y89709D01*
X280151Y70171D02*
X285000Y75021D01*
Y89709D01*
X281422Y128725D02*
X287139D01*
X277250Y97459D02*
Y124553D01*
X294000Y135586D02*
Y137000D01*
X400000Y230000D02*
X410000D01*
X395500Y234500D02*
X400000Y230000D01*
X349000Y419500D02*
X365500Y436000D01*
X402500D02*
X422000Y416500D01*
Y272000D02*
Y416500D01*
X365500Y436000D02*
X402500D01*
X414000Y264000D02*
X422000Y272000D01*
X86000Y64028D02*
X113447Y36581D01*
X86000Y64028D02*
Y87500D01*
X119828Y36581D02*
X125409Y31000D01*
X113447Y36581D02*
X119828D01*
X86000Y87500D02*
X95500Y97000D01*
X370500Y151000D02*
Y170500D01*
X410000Y210000D01*
X390000Y307000D02*
Y403000D01*
X350500Y264312D02*
Y267500D01*
X296500Y266000D02*
Y339000D01*
X289000Y258500D02*
X296500Y266000D01*
X291500Y137000D02*
X294000D01*
X321000Y418000D02*
X328500Y410500D01*
Y261672D02*
Y410500D01*
X176000Y364000D02*
Y388000D01*
Y364000D02*
X189000Y351000D01*
X152000Y281000D02*
X152115D01*
X189000Y317885D01*
Y351000D01*
X151453Y280338D02*
X151662D01*
X140453D02*
X151453D01*
X120453Y300338D02*
X140453Y280338D01*
X151662D02*
X152000Y280000D01*
D53*
X331750Y214990D02*
Y386285D01*
X326260Y209500D02*
X331750Y214990D01*
Y386285D02*
X374964Y429500D01*
X334250Y213954D02*
Y385250D01*
X327296Y207000D02*
X334250Y213954D01*
Y385250D02*
X375879Y426879D01*
X336750Y212918D02*
Y374760D01*
X328331Y204500D02*
X336750Y212918D01*
Y374760D02*
X377490Y415500D01*
X274099Y40750D02*
X409321Y175972D01*
X260740Y40750D02*
X274099D01*
X259990Y40000D02*
X260740Y40750D01*
X212500Y40000D02*
X259990D01*
X75500Y19500D02*
X253000D01*
X362500Y120000D02*
X410000D01*
X351000Y108500D02*
X362500Y120000D01*
X196478Y50750D02*
X272250D01*
X276500Y55000D01*
X262000Y118000D02*
X274000Y130000D01*
Y131000D01*
X189728Y44000D02*
X196478Y50750D01*
X163500Y44000D02*
X189728D01*
X159500Y48000D02*
X163500Y44000D01*
X409321Y179321D02*
X410000Y180000D01*
X409321Y175972D02*
Y179321D01*
X276500Y55000D02*
X277000D01*
X262000Y117053D02*
Y118000D01*
X159500Y48000D02*
Y67500D01*
X197750Y105750D01*
X200260D01*
X202750Y108240D01*
X159226Y98726D02*
X193500Y133000D01*
X102500Y80000D02*
X103500D01*
X193500Y133000D02*
X223000D01*
X103500Y80000D02*
X118000Y65500D01*
X134450D02*
X159226Y90276D01*
X118000Y65500D02*
X134450D01*
X159226Y90276D02*
Y98726D01*
X399959Y405193D02*
X409814Y395338D01*
X399959Y405193D02*
Y405193D01*
X128000Y80500D02*
X132500D01*
X377490Y415500D02*
X389652D01*
X399959Y405193D01*
X256500Y204500D02*
X328331D01*
X132500Y80500D02*
X256500Y204500D01*
X31000Y98500D02*
X73000Y140500D01*
X31000Y64000D02*
Y98500D01*
X73000Y140500D02*
Y197000D01*
X253000Y19500D02*
X263000Y29500D01*
X31000Y64000D02*
X75500Y19500D01*
X289000Y258500D02*
X305500Y242000D01*
X312500D01*
X279000Y166000D02*
X292000D01*
X268000Y155000D02*
X279000Y166000D01*
X268000Y137000D02*
X273500Y131500D01*
X268000Y137000D02*
Y155000D01*
X273500Y131500D02*
X274000D01*
X259500Y66500D02*
Y114553D01*
X262000Y117053D01*
X202750Y108240D02*
Y111760D01*
X172500Y54000D02*
X173500D01*
X179500Y60000D01*
X274929D01*
X186500Y119500D02*
X190705Y115295D01*
X199215D01*
X202750Y111760D01*
X347000Y160536D02*
X377500Y191035D01*
Y194151D01*
X408052Y224703D01*
X411948D01*
X414703Y221948D01*
Y174703D02*
Y221948D01*
X410000Y170000D02*
X414703Y174703D01*
X38000Y74354D02*
X60646Y97000D01*
X95500D01*
X375000Y242510D02*
X400688Y268198D01*
X375000Y192535D02*
Y242510D01*
X400688Y268198D02*
X400698D01*
X405875Y273375D01*
X408037D01*
X236500Y209500D02*
X326260D01*
X191000Y144000D02*
X254000Y207000D01*
X172000Y145000D02*
X236500Y209500D01*
X277000Y55000D02*
X347000Y125000D01*
Y160536D01*
X408037Y273375D02*
X410000Y275338D01*
X344500Y162036D02*
X375000Y192535D01*
X96500Y84328D02*
X198630Y186458D01*
Y204500D01*
X96500Y74246D02*
Y84328D01*
Y74246D02*
X112000Y58745D01*
X274929Y60000D02*
X342000Y127071D01*
X189000Y52250D02*
X194250Y57500D01*
X275964D02*
X344500Y126035D01*
X194250Y57500D02*
X275964D01*
X349500Y123965D02*
Y159500D01*
X122500Y40500D02*
X189763D01*
X112000Y51000D02*
X122500Y40500D01*
X273785Y48250D02*
X349500Y123965D01*
X197513Y48250D02*
X273785D01*
X189763Y40500D02*
X197513Y48250D01*
X349500Y159500D02*
X410000Y220000D01*
X342000Y163071D02*
X372000Y193071D01*
X344500Y126035D02*
Y162036D01*
X372000Y193071D02*
Y247338D01*
X410000Y285338D01*
X342000Y127071D02*
Y163071D01*
X395000Y185000D02*
X410000Y200000D01*
X395000Y174000D02*
Y185000D01*
X112000Y51000D02*
Y58745D01*
X254000Y207000D02*
X327296D01*
X191000Y144000D02*
X191000D01*
X374964Y429500D02*
X400500D01*
X375879Y426879D02*
X399121D01*
X411651Y380338D02*
X417500Y386187D01*
X406000Y411000D02*
Y420000D01*
X399121Y426879D02*
X406000Y420000D01*
X405297Y410297D02*
X406000Y411000D01*
X405297Y403390D02*
Y410297D01*
Y340041D02*
Y377286D01*
X408349Y380338D02*
X411651D01*
X402797Y332541D02*
X410000Y325338D01*
X411353Y390041D02*
X414703Y393390D01*
X405297Y403390D02*
X408349Y400338D01*
X417500Y386187D02*
Y412500D01*
X402797Y332541D02*
Y384786D01*
X414703Y393390D02*
Y397286D01*
X409814Y395338D02*
X410000D01*
X400500Y429500D02*
X417500Y412500D01*
X402797Y384786D02*
X408052Y390041D01*
X411651Y400338D02*
X414703Y397286D01*
X405297Y377286D02*
X408349Y380338D01*
X408052Y390041D02*
X411353D01*
X408349Y400338D02*
X411651D01*
X405297Y340041D02*
X410000Y335338D01*
D54*
X73000Y227000D02*
D03*
X38000Y74354D02*
D03*
X38000Y158000D02*
D03*
X267500Y191500D02*
D03*
D55*
X73000Y197000D02*
D03*
X38000Y44354D02*
D03*
X38000Y128000D02*
D03*
X267500Y181500D02*
D03*
Y171500D02*
D03*
X106638Y32219D02*
D03*
X96638D02*
D03*
X208630Y204500D02*
D03*
X218630D02*
D03*
D56*
X22453Y235338D02*
D03*
Y375338D02*
D03*
Y385338D02*
D03*
Y395338D02*
D03*
Y405338D02*
D03*
Y335338D02*
D03*
Y325338D02*
D03*
X209453Y236338D02*
D03*
Y246338D02*
D03*
Y256338D02*
D03*
Y266338D02*
D03*
Y276338D02*
D03*
Y286338D02*
D03*
Y296338D02*
D03*
X179453Y236338D02*
D03*
Y246338D02*
D03*
Y256338D02*
D03*
Y266338D02*
D03*
Y276338D02*
D03*
Y286338D02*
D03*
X22453Y265338D02*
D03*
Y275338D02*
D03*
X57453Y340338D02*
D03*
X87453Y350338D02*
D03*
Y340338D02*
D03*
X410000Y250000D02*
D03*
Y240000D02*
D03*
Y230000D02*
D03*
Y220000D02*
D03*
Y210000D02*
D03*
Y200000D02*
D03*
Y190000D02*
D03*
Y180000D02*
D03*
Y170000D02*
D03*
Y160000D02*
D03*
Y150000D02*
D03*
Y140000D02*
D03*
Y130000D02*
D03*
Y405338D02*
D03*
Y395338D02*
D03*
Y385338D02*
D03*
Y375338D02*
D03*
Y365338D02*
D03*
Y355338D02*
D03*
Y345338D02*
D03*
Y335338D02*
D03*
Y325338D02*
D03*
Y315338D02*
D03*
Y305338D02*
D03*
Y295338D02*
D03*
Y285338D02*
D03*
D57*
X22453Y225338D02*
D03*
Y365338D02*
D03*
Y315338D02*
D03*
Y285338D02*
D03*
X410000Y120000D02*
D03*
Y275338D02*
D03*
D58*
X151453Y360338D02*
D03*
Y350338D02*
D03*
Y340338D02*
D03*
Y330338D02*
D03*
Y320338D02*
D03*
Y310338D02*
D03*
Y300338D02*
D03*
Y290338D02*
D03*
Y280338D02*
D03*
Y270338D02*
D03*
Y260338D02*
D03*
Y250338D02*
D03*
Y240338D02*
D03*
Y230338D02*
D03*
X120453D02*
D03*
Y240338D02*
D03*
Y250338D02*
D03*
Y260338D02*
D03*
Y270338D02*
D03*
Y280338D02*
D03*
Y290338D02*
D03*
Y300338D02*
D03*
Y310338D02*
D03*
Y320338D02*
D03*
Y330338D02*
D03*
Y340338D02*
D03*
Y350338D02*
D03*
D59*
Y360338D02*
D03*
D60*
X179453Y296338D02*
D03*
X57453Y350338D02*
D03*
D61*
X57213Y316653D02*
D03*
Y276653D02*
D03*
D62*
X116638Y32219D02*
D03*
X198630Y204500D02*
D03*
D63*
X240000Y420000D02*
D03*
Y410000D02*
D03*
X230000Y420000D02*
D03*
Y410000D02*
D03*
X220000D02*
D03*
Y420000D02*
D03*
X210000Y410000D02*
D03*
Y420000D02*
D03*
X200000Y410000D02*
D03*
Y420000D02*
D03*
D64*
X349000Y419500D02*
D03*
X419500Y255000D02*
D03*
X327500Y259000D02*
D03*
X350500Y263500D02*
D03*
X326500Y217500D02*
D03*
X188500Y29500D02*
D03*
X212500Y40000D02*
D03*
X210000Y33500D02*
D03*
X262500Y36500D02*
D03*
X351000Y108500D02*
D03*
X348500Y98500D02*
D03*
X392500Y141000D02*
D03*
X370500Y151000D02*
D03*
X263000Y29500D02*
D03*
X390000Y403000D02*
D03*
X296500Y339000D02*
D03*
X289000Y258500D02*
D03*
X312500Y242000D02*
D03*
X292000Y166000D02*
D03*
X274000Y131000D02*
D03*
X275000Y143000D02*
D03*
X262000Y118000D02*
D03*
X259500Y66500D02*
D03*
X182500Y83500D02*
D03*
X195500Y88500D02*
D03*
X203256Y97245D02*
D03*
X172500Y54000D02*
D03*
X176500Y36000D02*
D03*
X224500Y133000D02*
D03*
X291500Y137000D02*
D03*
X128000Y80500D02*
D03*
X102500Y80000D02*
D03*
X151000Y31000D02*
D03*
X212000Y370000D02*
D03*
X186500Y119500D02*
D03*
X300000Y399000D02*
D03*
X347500Y242000D02*
D03*
X347000Y272500D02*
D03*
X95500Y97000D02*
D03*
X307000Y310500D02*
D03*
X324000Y122500D02*
D03*
X285000Y120000D02*
D03*
X238000Y69500D02*
D03*
X198500Y110000D02*
D03*
X133000Y91000D02*
D03*
X197000Y122500D02*
D03*
X205000Y119500D02*
D03*
X99000Y281500D02*
D03*
X367000Y399000D02*
D03*
X224000Y143500D02*
D03*
X208000D02*
D03*
X214000Y108000D02*
D03*
X60500Y114500D02*
D03*
X81000Y135000D02*
D03*
X150500Y159000D02*
D03*
X132500Y106500D02*
D03*
X298000Y53500D02*
D03*
X317500D02*
D03*
X397000Y109000D02*
D03*
X330000Y143000D02*
D03*
X309500Y143500D02*
D03*
X290500Y144000D02*
D03*
X252500Y230500D02*
D03*
X386500Y240500D02*
D03*
X390500Y277000D02*
D03*
X366500Y270500D02*
D03*
X324000Y276500D02*
D03*
X96500Y398500D02*
D03*
X229500Y358000D02*
D03*
X220500Y285500D02*
D03*
X210500Y323500D02*
D03*
X220000Y325000D02*
D03*
X307848Y272152D02*
D03*
X213500Y117500D02*
D03*
X254500Y132500D02*
D03*
X134000Y115000D02*
D03*
X189000Y52250D02*
D03*
X395000Y174000D02*
D03*
X321000Y418000D02*
D03*
D65*
X281000Y85000D02*
D03*
X280151Y70171D02*
D03*
X112000Y51000D02*
D03*
X191000Y144000D02*
D03*
X172000Y145000D02*
D03*
X176000Y388000D02*
D03*
X189000Y351000D02*
D03*
M02*
