G04*
G04 #@! TF.GenerationSoftware,Altium Limited,Altium Designer,20.0.9 (164)*
G04*
G04 Layer_Physical_Order=1*
G04 Layer_Color=255*
%FSLAX25Y25*%
%MOIN*%
G70*
G01*
G75*
%ADD13C,0.00500*%
%ADD40R,0.06693X0.04331*%
%ADD41R,0.04331X0.06693*%
%ADD42O,0.07480X0.02362*%
G04:AMPARAMS|DCode=43|XSize=28.74mil|YSize=8.66mil|CornerRadius=1.08mil|HoleSize=0mil|Usage=FLASHONLY|Rotation=45.000|XOffset=0mil|YOffset=0mil|HoleType=Round|Shape=RoundedRectangle|*
%AMROUNDEDRECTD43*
21,1,0.02874,0.00650,0,0,45.0*
21,1,0.02657,0.00866,0,0,45.0*
1,1,0.00217,0.01169,0.00710*
1,1,0.00217,-0.00710,-0.01169*
1,1,0.00217,-0.01169,-0.00710*
1,1,0.00217,0.00710,0.01169*
%
%ADD43ROUNDEDRECTD43*%
G04:AMPARAMS|DCode=44|XSize=28.74mil|YSize=8.66mil|CornerRadius=1.08mil|HoleSize=0mil|Usage=FLASHONLY|Rotation=315.000|XOffset=0mil|YOffset=0mil|HoleType=Round|Shape=RoundedRectangle|*
%AMROUNDEDRECTD44*
21,1,0.02874,0.00650,0,0,315.0*
21,1,0.02657,0.00866,0,0,315.0*
1,1,0.00217,0.00710,-0.01169*
1,1,0.00217,-0.01169,0.00710*
1,1,0.00217,-0.00710,0.01169*
1,1,0.00217,0.01169,-0.00710*
%
%ADD44ROUNDEDRECTD44*%
%ADD45P,0.14476X4X360.0*%
%ADD46R,0.04724X0.10236*%
%ADD47R,0.03898X0.14921*%
%ADD48R,0.42677X0.30000*%
%ADD49R,0.02362X0.04528*%
%ADD50R,0.01968X0.01181*%
G04:AMPARAMS|DCode=51|XSize=77.56mil|YSize=23.62mil|CornerRadius=5.91mil|HoleSize=0mil|Usage=FLASHONLY|Rotation=0.000|XOffset=0mil|YOffset=0mil|HoleType=Round|Shape=RoundedRectangle|*
%AMROUNDEDRECTD51*
21,1,0.07756,0.01181,0,0,0.0*
21,1,0.06575,0.02362,0,0,0.0*
1,1,0.01181,0.03287,-0.00591*
1,1,0.01181,-0.03287,-0.00591*
1,1,0.01181,-0.03287,0.00591*
1,1,0.01181,0.03287,0.00591*
%
%ADD51ROUNDEDRECTD51*%
%ADD52C,0.02000*%
%ADD53C,0.01500*%
%ADD54R,0.04724X0.04724*%
%ADD55C,0.04724*%
%ADD56C,0.05906*%
%ADD57R,0.05906X0.05906*%
%ADD58C,0.04921*%
%ADD59R,0.04921X0.04921*%
%ADD60R,0.05906X0.05906*%
%ADD61C,0.05512*%
%ADD62R,0.04724X0.04724*%
%ADD63C,0.06496*%
%ADD64C,0.05000*%
%ADD65C,0.03500*%
D13*
X207000Y97465D02*
G03*
X207001Y97439I500J0D01*
G01*
X207000Y64886D02*
G03*
X207147Y64532I500J0D01*
G01*
X207000Y100293D02*
G03*
X206854Y100646I-500J0D01*
G01*
X207001Y97051D02*
G03*
X207000Y97025I499J-26D01*
G01*
X207001Y97051D02*
G03*
X207001Y97439I-3745J194D01*
G01*
X389343Y257203D02*
X412984D01*
X363296Y283250D02*
X389343Y257203D01*
X412362Y255703D02*
X418703Y249362D01*
X401250Y249315D02*
X407638Y255703D01*
X411741Y254203D02*
X417203Y248741D01*
X402750Y248694D02*
X408259Y254203D01*
X412984Y257203D02*
X415186Y255000D01*
X419500D01*
X407638Y255703D02*
X412362D01*
X408259Y254203D02*
X411741D01*
X402750Y242825D02*
Y248694D01*
X417203Y181259D02*
Y248741D01*
X399675Y239750D02*
X402750Y242825D01*
X401250Y243447D02*
Y249315D01*
X399053Y241250D02*
X401250Y243447D01*
X395947Y241250D02*
X399053D01*
X379439Y257757D02*
X395947Y241250D01*
X395325Y239750D02*
X399675D01*
X377939Y257136D02*
X395325Y239750D01*
X322540Y227328D02*
X323476D01*
X316750Y221539D02*
X322540Y227328D01*
X316750Y220603D02*
Y221539D01*
X323161Y225828D02*
X324097D01*
X318250Y220917D02*
X323161Y225828D01*
X318250Y219981D02*
Y220917D01*
X323782Y224328D02*
X324718D01*
X319750Y220296D02*
X323782Y224328D01*
X319750Y219360D02*
Y220296D01*
X340423Y222828D02*
X347595Y230000D01*
X324404Y222828D02*
X340423D01*
X321250Y219675D02*
X324404Y222828D01*
X321250Y218739D02*
Y219675D01*
X329250Y221250D02*
X351500Y199000D01*
X324947Y221250D02*
X329250D01*
X322750Y219053D02*
X324947Y221250D01*
X322750Y209869D02*
Y219053D01*
X321882Y209000D02*
X322750Y209869D01*
X326609Y201215D02*
Y217390D01*
X324394Y199000D02*
X326609Y201215D01*
X326500Y217500D02*
X326609Y217390D01*
X324718Y224328D02*
X330734Y230344D01*
X314000Y213610D02*
X319750Y219360D01*
X325473Y227205D02*
Y233483D01*
X311246Y212977D02*
X318250Y219981D01*
X323973Y227826D02*
Y232861D01*
X305147Y209000D02*
X316750Y220603D01*
X324097Y225828D02*
X325473Y227205D01*
X323476Y227328D02*
X323973Y227826D01*
X315756Y213244D02*
X321250Y218739D01*
X193879Y29500D02*
X201379Y37000D01*
X188500Y29500D02*
X193879D01*
X214250Y47250D02*
Y47750D01*
X212500Y45500D02*
X214250Y47250D01*
X212500Y40000D02*
Y45500D01*
X211803Y33500D02*
X218250Y39947D01*
X210000Y33500D02*
X211803D01*
X190485Y26107D02*
X201379Y37000D01*
X409750Y159250D02*
X410000Y159000D01*
X360969Y191969D02*
X364000Y195000D01*
X313227Y235969D02*
X322987D01*
X308750Y240447D02*
X313227Y235969D01*
X243000Y148000D02*
X279303D01*
X295750Y164447D01*
X288184Y63842D02*
X288500D01*
X312606Y234469D02*
X322365D01*
X307250Y239825D02*
X312606Y234469D01*
X409000Y150000D02*
Y151000D01*
X181789Y96547D02*
X182003D01*
X182500Y83500D02*
Y94371D01*
X182278Y94594D02*
Y94853D01*
Y94594D02*
X182500Y94371D01*
X191840Y101130D02*
X200750Y92221D01*
X191840Y101130D02*
Y101130D01*
X200750Y60865D02*
Y92221D01*
X190727Y100017D02*
X190832D01*
X199250Y91599D01*
Y61487D02*
Y91599D01*
X371750Y159250D02*
X409750D01*
X322987Y235969D02*
X325473Y233483D01*
X241000Y146000D02*
X243000Y148000D01*
X322365Y234469D02*
X323973Y232861D01*
X402250Y157750D02*
X409000Y151000D01*
X182003Y96547D02*
X182987Y95563D01*
X334439Y87000D02*
X351504D01*
X307249Y264776D02*
X307898D01*
X301758Y259285D02*
X307249Y264776D01*
X307898D02*
X314081Y270959D01*
X371500Y121955D02*
X377045Y127500D01*
X331493Y89969D02*
X348090D01*
X336524Y74000D02*
X386121D01*
X329711Y80813D02*
X336524Y74000D01*
X329711Y80813D02*
Y88187D01*
X331493Y89969D01*
X348090D02*
X371500Y113379D01*
Y121955D01*
X357131Y132869D02*
X360623D01*
X407121Y145000D02*
X411000D01*
X353500Y136500D02*
X357131Y132869D01*
X414203Y134203D02*
Y141797D01*
X364250Y156250D02*
X395871D01*
X353500Y136500D02*
Y145500D01*
X364250Y156250D01*
X395871D02*
X407121Y145000D01*
X411000D02*
X414203Y141797D01*
X291489Y123750D02*
X300548Y132809D01*
X300739Y133000D02*
X301000D01*
X300679Y132679D02*
X300869Y132870D01*
X301000Y133000D01*
X229601Y109000D02*
X259000D01*
X300548Y132809D02*
X300739Y133000D01*
X259000Y109000D02*
X273750Y123750D01*
X291489D01*
X298606Y191128D02*
X301452D01*
X228300Y110301D02*
X229601Y109000D01*
X228300Y110301D02*
Y117699D01*
X228798Y118196D01*
X234196D01*
X295750Y188272D02*
X298606Y191128D01*
X234196Y118196D02*
X241000Y125000D01*
Y146000D01*
X301452Y191128D02*
X302393Y192069D01*
X305431Y196122D02*
X311246Y201937D01*
X304526Y194000D02*
X305431Y194905D01*
Y196122D01*
X311246Y201937D02*
Y212977D01*
X190727Y109983D02*
X196744Y116000D01*
X190727Y109983D02*
X190727D01*
X196744Y116000D02*
X203000D01*
X210500Y96800D02*
X215000Y92300D01*
Y50621D02*
Y92300D01*
X203000Y116000D02*
X208250Y110750D01*
Y106053D02*
Y110750D01*
Y106053D02*
X210500Y103803D01*
Y96800D02*
Y103803D01*
X201379Y37000D02*
X215000Y50621D01*
X212000Y97422D02*
Y104425D01*
X209750Y106675D02*
Y120053D01*
Y106675D02*
X212000Y104425D01*
X208506Y87994D02*
Y101994D01*
X209500Y68892D02*
Y87000D01*
X196721Y113750D02*
X202250D01*
X208506Y87994D02*
X209500Y87000D01*
X205500Y105000D02*
X208506Y101994D01*
X202250Y113750D02*
X205500Y110500D01*
X211875Y50853D02*
Y66518D01*
X209500Y68892D02*
X211875Y66518D01*
X205500Y105000D02*
Y110500D01*
X204199Y43176D02*
X211875Y50853D01*
X193176Y43176D02*
X204199D01*
X181000Y31000D02*
X193176Y43176D01*
X151000Y31000D02*
X181000D01*
X135151Y56485D02*
X169681D01*
X202500Y60494D02*
Y92698D01*
X135136Y56500D02*
X135151Y56485D01*
X115488Y65000D02*
X123988Y56500D01*
X135136D01*
X199756Y57750D02*
X202500Y60494D01*
X192954Y102244D02*
X202500Y92698D01*
X116500Y66109D02*
X124609Y58000D01*
X102574Y32219D02*
X106638D01*
X116500Y66109D02*
Y70000D01*
X114500Y72000D02*
X116500Y70000D01*
X89500Y45293D02*
X89793Y45000D01*
X89793D01*
X102574Y32219D01*
X89500Y45293D02*
Y68500D01*
X93000Y72000D01*
X114500D01*
X124609Y58000D02*
X135757D01*
X135773Y57985D01*
X169060D01*
X126291Y65000D02*
X129610D01*
X135110Y59500D01*
X136379D01*
X136394Y59485D01*
X216500Y79267D02*
Y92922D01*
X212000Y97422D02*
X216500Y92922D01*
X300261Y209000D02*
X302393D01*
X305147D01*
X304526Y194000D02*
X314865D01*
X273953Y97000D02*
X283179D01*
X285679Y99500D01*
X320153Y104500D02*
X327653Y97000D01*
X285679Y99500D02*
X302516D01*
X307516Y104500D02*
X320153D01*
X302516Y99500D02*
X307516Y104500D01*
X327653Y97000D02*
X334439D01*
X395250Y154750D02*
X409000Y141000D01*
X318366Y94500D02*
X319679Y95813D01*
X299159Y94500D02*
X318366D01*
X328169Y52500D02*
X332055Y56385D01*
X273953Y82000D02*
X281089Y74864D01*
X323708D01*
X332055Y66518D01*
X273953Y82000D02*
X283707D01*
X284000Y82293D01*
Y86171D02*
X286860Y89031D01*
X284000Y82293D02*
Y86171D01*
X286860Y89031D02*
X293690D01*
X299159Y94500D01*
X292500Y97000D02*
X314951D01*
X334439Y82000D02*
X355500D01*
X293441D02*
X303441Y92000D01*
X290744Y82000D02*
X294744Y78000D01*
X325243D01*
X305500Y35000D02*
X318500D01*
X315000Y112000D02*
X319579D01*
X328211Y77153D02*
X337000Y68364D01*
X244000Y32000D02*
X250250Y25750D01*
X311371D01*
X328211Y77153D02*
Y91707D01*
X328504Y92000D01*
X334439D01*
X303441D02*
X314951D01*
X319679Y95813D02*
Y99969D01*
X317148Y102500D02*
X319679Y99969D01*
X313000Y102500D02*
X317148D01*
X314951Y87000D02*
X321383D01*
X328383Y94000D01*
X330524D01*
X330555Y94031D01*
X338323D01*
X338354Y94000D01*
X350000D01*
X370000Y114000D01*
Y134407D01*
X364407Y140000D02*
X370000Y134407D01*
X357577Y140000D02*
X364407D01*
X355895Y141682D02*
X357577Y140000D01*
X355895Y141682D02*
Y144057D01*
X366588Y154750D01*
X395250D01*
X337000Y51379D02*
Y68364D01*
X311371Y25750D02*
X337000Y51379D01*
X347861Y132869D02*
X357131D01*
X344552Y129560D02*
X347861Y132869D01*
X325756Y129560D02*
X344552D01*
X320250Y124053D02*
X325756Y129560D01*
X320250Y112671D02*
Y124053D01*
X319579Y112000D02*
X320250Y112671D01*
X290744Y82000D02*
X293441D01*
X355500D02*
X356500Y81000D01*
X351504Y87000D02*
X355504Y91000D01*
X326340Y157750D02*
X402250D01*
X415703Y105703D02*
Y160241D01*
X418703Y106581D02*
Y249362D01*
X314951Y82000D02*
Y86549D01*
X355504Y91000D02*
X356000D01*
X305090Y179000D02*
X326340Y157750D01*
X352000Y179000D02*
X371750Y159250D01*
X379439Y257757D02*
Y264985D01*
X377939Y257136D02*
Y264364D01*
X308750Y240447D02*
Y249440D01*
X319000Y259690D01*
X307250Y262007D02*
X315581Y270338D01*
X307250Y239825D02*
Y262007D01*
X295750Y164447D02*
Y188272D01*
X297665Y163905D02*
X317571Y144000D01*
X297665Y163905D02*
Y185187D01*
X260532Y126048D02*
X287048D01*
X251581Y117096D02*
X260532Y126048D01*
X287048D02*
X298000Y137000D01*
X182278Y94853D02*
X182987Y95563D01*
X171000Y64000D02*
X187500Y80500D01*
Y94242D01*
X189000Y71343D02*
Y95062D01*
X182657Y65000D02*
X189000Y71343D01*
X187386Y96676D02*
X189000Y95062D01*
X186272Y95470D02*
X187500Y94242D01*
X191500Y66915D02*
Y94789D01*
X195500Y88500D02*
X196000Y89000D01*
X202183Y98318D02*
X203256Y97245D01*
X199135Y59250D02*
X200750Y60865D01*
X198513Y60750D02*
X199250Y61487D01*
X196000Y89000D02*
Y92516D01*
X186272Y95470D02*
Y95563D01*
X188499Y97790D02*
X191500Y94789D01*
X171870Y53370D02*
X172500Y54000D01*
X170130Y53370D02*
X171870D01*
X170947Y57750D02*
X199756D01*
X170325Y59250D02*
X199135D01*
X169704Y60750D02*
X198513D01*
X171664Y62250D02*
X173414Y64000D01*
X169083Y62250D02*
X171664D01*
X167817Y60985D02*
X169083Y62250D01*
X137015Y60985D02*
X167817D01*
X168439Y59485D02*
X169704Y60750D01*
X136394Y59485D02*
X168439D01*
X169060Y57985D02*
X170325Y59250D01*
X169681Y56485D02*
X170947Y57750D01*
X162269Y64000D02*
X171000D01*
X173414D02*
X180476D01*
X132500Y65500D02*
Y82500D01*
X95500Y97000D02*
X107500Y85000D01*
X130000D01*
X132500Y82500D01*
Y65500D02*
X137015Y60985D01*
X191107Y24607D02*
X214250Y47750D01*
X96272Y24607D02*
X191107D01*
X218250Y39947D02*
Y48792D01*
X220731Y51273D01*
X216500Y50000D02*
Y79267D01*
X96893Y26107D02*
X190485D01*
X182000Y65000D02*
X182657D01*
X214250Y47750D02*
X216500Y50000D01*
X191840Y108870D02*
X196721Y113750D01*
X207000Y97465D02*
Y100293D01*
X201439Y106061D02*
X206854Y100646D01*
X207147Y64532D02*
X207678Y64000D01*
X207001Y97051D02*
X207001D01*
X207146Y64532D02*
X207147Y64532D01*
X189613Y111097D02*
X197016Y118500D01*
X204139Y118639D02*
X205000Y119500D01*
X321204Y283250D02*
X363296D01*
X312581Y274626D02*
X321204Y283250D01*
X312581Y271581D02*
Y274626D01*
X307441Y266441D02*
X312581Y271581D01*
X301019Y266441D02*
X307441D01*
X296381Y261803D02*
X301019Y266441D01*
X315581Y270338D02*
Y273384D01*
X192533Y128078D02*
X194033Y129578D01*
X182020Y128078D02*
X192533D01*
X177201Y123260D02*
X182020Y128078D01*
X177201Y115769D02*
Y123260D01*
Y115769D02*
X180760Y112210D01*
X377045Y127500D02*
X377968D01*
X386121Y74000D02*
X418703Y106581D01*
X362675Y281750D02*
X379439Y264985D01*
X321825Y281750D02*
X362675D01*
X314081Y274005D02*
X321825Y281750D01*
X314081Y270959D02*
Y274005D01*
X300577Y259285D02*
X301758D01*
X383488Y189000D02*
X386185D01*
X399388Y175797D01*
X411741D01*
X417203Y181259D01*
X362053Y280250D02*
X377939Y264364D01*
X322447Y280250D02*
X362053D01*
X315581Y273384D02*
X322447Y280250D01*
X190244Y132409D02*
X199170D01*
X187413Y129578D02*
X190244Y132409D01*
X181399Y129578D02*
X187413D01*
X175701Y123881D02*
X181399Y129578D01*
X267409Y191409D02*
X267500Y191500D01*
X247195Y191409D02*
X267409D01*
X228433Y172647D02*
X247195Y191409D01*
X228433Y167613D02*
Y172647D01*
Y167613D02*
X231231Y164815D01*
X234029D01*
X236826Y162017D01*
Y156983D02*
Y162017D01*
X231456Y151613D02*
X236826Y156983D01*
X174370Y151613D02*
X231456D01*
X169000Y146243D02*
X174370Y151613D01*
X169000Y117289D02*
Y146243D01*
Y117289D02*
X177420Y108870D01*
X203553Y126250D02*
X209750Y120053D01*
X228346Y59846D02*
X238000Y69500D01*
X228346Y53355D02*
Y59846D01*
X282558Y230344D02*
X299356Y213546D01*
X198447Y109947D02*
X198500Y110000D01*
X195250Y109947D02*
X198447D01*
X193060Y107756D02*
X195250Y109947D01*
X192954Y107756D02*
X193060D01*
X199170Y132409D02*
X199355Y132594D01*
X194033Y129578D02*
X211513D01*
X214528Y132594D01*
X215710D01*
X187500Y119500D02*
X189000Y118000D01*
X186500Y119500D02*
X187500D01*
X192063Y125487D02*
X194654Y128078D01*
X226481D01*
X230996Y132594D01*
X232177D01*
X194940Y107256D02*
X196136Y106061D01*
X194681Y107256D02*
X194940D01*
X194067Y106642D02*
X194681Y107256D01*
X281377Y230344D02*
X282558D01*
X378337Y127869D02*
X380111D01*
X377968Y127500D02*
X378337Y127869D01*
X314951Y112000D02*
X315000D01*
X181550Y125487D02*
X192063D01*
X338977Y250011D02*
Y259285D01*
X334781Y245815D02*
X338977Y250011D01*
X334781Y238456D02*
Y245815D01*
Y238456D02*
X338977Y234260D01*
Y231023D02*
Y234260D01*
Y231023D02*
X339000Y231000D01*
X324000Y111524D02*
Y122500D01*
Y111524D02*
X331402Y104122D01*
Y102905D02*
Y104122D01*
Y102905D02*
X332307Y102000D01*
X274293Y115293D02*
X279000Y120000D01*
X285000D01*
X282593Y111886D02*
X291490Y120782D01*
X284500Y111671D02*
X301829Y129000D01*
X220731Y45740D02*
X228346Y53355D01*
X196136Y106061D02*
X201439D01*
X202596Y118639D02*
X204139D01*
X197016Y118500D02*
X202457D01*
X202596Y118639D01*
X188134Y123987D02*
X191000Y121121D01*
Y117000D02*
Y121121D01*
X187386Y113386D02*
X191000Y117000D01*
X195447Y126250D02*
X203553D01*
X193184Y123987D02*
X195447Y126250D01*
X188134Y123987D02*
X193184D01*
X188568Y112210D02*
X197000Y120642D01*
Y122500D01*
X178701Y122639D02*
X181550Y125487D01*
X178701Y116496D02*
Y122639D01*
X224000Y143500D02*
X224276Y143224D01*
X232177D01*
X208000Y143500D02*
X208276Y143224D01*
X215710D01*
X189613Y98903D02*
X196000Y92516D01*
X194415Y64000D02*
X195049D01*
X52985Y67894D02*
Y146128D01*
X41112Y158000D02*
X52985Y146128D01*
Y67894D02*
X96272Y24607D01*
X384622Y282000D02*
X385016D01*
X385356Y281660D01*
Y281245D02*
Y281660D01*
Y281245D02*
X389601Y277000D01*
X390500D01*
X189613Y111097D02*
X189613D01*
X165201Y118799D02*
X176244Y107756D01*
X165201Y118799D02*
Y149575D01*
X173787Y158161D01*
X103000Y139202D02*
X103293Y138909D01*
X148323D01*
X160201Y104030D02*
X164823Y99409D01*
X173471D02*
X176306Y102244D01*
X148323Y138909D02*
X160201Y127030D01*
X164823Y99409D02*
X173471D01*
X160201Y104030D02*
Y127030D01*
X103000Y139202D02*
Y148055D01*
X103630Y148685D01*
X163201Y96409D02*
X174925D01*
X157201Y102409D02*
Y117397D01*
X178533Y100017D02*
Y100017D01*
X157201Y102409D02*
X163201Y96409D01*
X174925D02*
X178533Y100017D01*
X152945Y121653D02*
X157201Y117397D01*
X152945Y121653D02*
Y125000D01*
X207001Y97439D02*
X207001D01*
X108968Y65000D02*
X115488D01*
X163201Y118677D02*
X175193Y106686D01*
X141000Y142202D02*
Y148378D01*
X149565Y141909D02*
X163201Y128273D01*
X141000Y142202D02*
X141293Y141909D01*
X163201Y118677D02*
Y128273D01*
X141293Y141909D02*
X149565D01*
X152630Y86000D02*
X169121D01*
X180760Y97639D01*
Y97790D01*
X92955Y137409D02*
X147701D01*
X174201Y125201D02*
X181909Y132909D01*
X180201Y117223D02*
X182987Y114437D01*
X180201Y117223D02*
Y121701D01*
X182487Y123987D01*
X188134D01*
X181909Y132909D02*
X182201D01*
X161855Y94909D02*
X175909D01*
X152945Y103819D02*
X161855Y94909D01*
X191500Y66915D02*
X194415Y64000D01*
X207000Y97025D02*
X207000Y64886D01*
X178701Y116496D02*
X181874Y113324D01*
X178936Y98192D02*
X179647Y98903D01*
X178936Y97936D02*
Y98192D01*
X175909Y94909D02*
X178936Y97936D01*
X176244Y107756D02*
X176306D01*
X175193Y106642D02*
Y106686D01*
X174201Y114315D02*
X178533Y109983D01*
X174201Y114315D02*
Y125201D01*
X175701Y115042D02*
X179647Y111097D01*
X175701Y115042D02*
Y123881D01*
X177314Y101130D02*
X177420D01*
X174092Y97909D02*
X177314Y101130D01*
X164201Y97909D02*
X174092D01*
X158701Y103409D02*
X164201Y97909D01*
X158701Y103409D02*
Y126409D01*
X147701Y137409D02*
X158701Y126409D01*
X175150Y103358D02*
X175193D01*
X172701Y100909D02*
X175150Y103358D01*
X165444Y100909D02*
X172701D01*
X161701Y104651D02*
X165444Y100909D01*
X161701Y104651D02*
Y127651D01*
X148944Y140409D02*
X161701Y127651D01*
X122074Y140409D02*
X148944D01*
X121781Y140702D02*
X122074Y140409D01*
X121781Y140702D02*
Y148685D01*
X85630Y144734D02*
Y148685D01*
Y144734D02*
X92955Y137409D01*
X152945Y103819D02*
Y105000D01*
X141000Y148378D02*
X141307Y148685D01*
X173787Y158161D02*
Y159343D01*
X196916Y100508D02*
Y100508D01*
Y100508D02*
X199106Y98318D01*
X202183D01*
X196212Y101212D02*
X196916Y100508D01*
X194067Y103358D02*
X196212Y101212D01*
X377599Y132869D02*
X380111D01*
X375000Y135848D02*
Y139000D01*
X376500Y140500D01*
X375000Y135848D02*
X376693Y134155D01*
X376500Y140500D02*
X393000D01*
X376693Y133774D02*
Y134155D01*
Y133774D02*
X377599Y132869D01*
X384839Y121682D02*
Y134057D01*
X383898Y134997D02*
X384839Y134057D01*
X381441Y134997D02*
X383898D01*
X383898Y120741D02*
X384839Y121682D01*
X354479Y262301D02*
X361876D01*
X362373Y261803D01*
X352000Y259822D02*
X354479Y262301D01*
X362373Y253588D02*
Y261803D01*
X365000Y236007D02*
X406710Y194297D01*
X365000Y236007D02*
Y242000D01*
X362000Y245000D02*
Y253215D01*
Y245000D02*
X365000Y242000D01*
X362000Y253215D02*
X362373Y253588D01*
X412362Y184297D02*
X415703Y187638D01*
X414203Y188259D02*
Y191741D01*
X415703Y187638D02*
Y192362D01*
X411741Y185797D02*
X414203Y188259D01*
X412268Y195797D02*
X415703Y192362D01*
X411646Y194297D02*
X414203Y191741D01*
X411741Y164203D02*
X415703Y160241D01*
X385500Y75500D02*
X415703Y105703D01*
X410000Y130000D02*
X414203Y134203D01*
X302000Y270157D02*
X303674Y271831D01*
X307527D02*
X307848Y272152D01*
X302000Y270000D02*
Y270157D01*
X303674Y271831D02*
X307527D01*
X296381Y254444D02*
Y261803D01*
Y254444D02*
X300577Y250248D01*
Y240974D02*
Y250248D01*
X351500Y199000D02*
X361303D01*
X321882D02*
X324394D01*
X318844Y204905D02*
Y206122D01*
X315756Y209211D02*
Y213244D01*
X318844Y204905D02*
X319749Y204000D01*
X315756Y209211D02*
X318844Y206122D01*
X319749Y204000D02*
X321882D01*
X314000Y200966D02*
Y213610D01*
X220000Y115000D02*
Y115866D01*
X218770Y117096D02*
X220000Y115866D01*
X213903Y117096D02*
X218770D01*
X213500Y117500D02*
X213903Y117096D01*
X246500Y131500D02*
X247500Y132500D01*
X254500D01*
X189000Y117135D02*
Y117793D01*
X186272Y114437D02*
X186302D01*
X189000Y117135D01*
X187386Y113324D02*
Y113386D01*
X188499Y112210D02*
X188568D01*
X128425Y120575D02*
X134000Y115000D01*
X128425Y120575D02*
Y124653D01*
X126260Y126819D02*
X128425Y124653D01*
X126260Y126819D02*
Y128000D01*
X216500Y79267D02*
X220731Y75036D01*
Y73855D02*
Y75036D01*
Y32727D02*
Y45740D01*
Y51273D02*
Y52454D01*
X281000Y86884D02*
X286116Y92000D01*
X281000Y85000D02*
Y86884D01*
X290144Y96400D02*
X290744Y97000D01*
X286116Y92000D02*
X290000D01*
X277000Y86829D02*
X286571Y96400D01*
X266528Y83187D02*
X267841Y84500D01*
X277000Y86829D02*
Y86829D01*
X274671Y84500D02*
X277000Y86829D01*
X245096Y117096D02*
X251581D01*
X243500Y115500D02*
X245096Y117096D01*
X286571Y96400D02*
X290144D01*
X274293Y112905D02*
Y115293D01*
X272000Y112000D02*
X273388D01*
X274293Y112905D01*
X332307Y102000D02*
X334439D01*
Y107000D02*
Y112000D01*
X409000Y284338D02*
Y286000D01*
X74000Y94819D02*
X84000Y104819D01*
X74000Y49000D02*
X96893Y26107D01*
X74000Y49000D02*
Y94819D01*
X38000Y158000D02*
X41112D01*
X314726Y86774D02*
X314951Y86549D01*
X365000Y142000D02*
X376728Y130272D01*
Y128740D02*
Y130272D01*
X360623Y142869D02*
X363504D01*
X364373Y142000D01*
X365000D01*
X376728Y128740D02*
X377968Y127500D01*
X362755Y137869D02*
X363660Y136964D01*
Y135747D02*
Y136964D01*
X360623Y137869D02*
X362755D01*
X365500Y126831D02*
Y133907D01*
X363660Y124992D02*
X365500Y126831D01*
X363660Y135747D02*
X365500Y133907D01*
X360000Y122500D02*
X362386D01*
X363660Y123775D02*
Y124992D01*
X362386Y122500D02*
X363660Y123775D01*
X258147Y243989D02*
X285751D01*
X257649Y236351D02*
Y243491D01*
X258147Y243989D01*
X387378Y282000D02*
X406662D01*
X409000Y284338D01*
X84000Y104819D02*
Y106000D01*
X358000Y249923D02*
Y260000D01*
X353981Y238456D02*
Y245903D01*
X358000Y230521D02*
X358177Y230344D01*
X353981Y245903D02*
X358000Y249923D01*
Y230521D02*
Y234437D01*
X353981Y238456D02*
X358000Y234437D01*
X352000Y236526D02*
Y259822D01*
X358000Y237235D02*
X359235Y236000D01*
X362373Y218497D02*
Y232861D01*
X359235Y236000D02*
X362373Y232861D01*
X359272Y215395D02*
X362373Y218497D01*
X359235Y236000D02*
X359235D01*
X358000Y237235D02*
Y240797D01*
X358177Y240974D01*
X406710Y194297D02*
X411646D01*
X408203Y195797D02*
X412268D01*
X377377Y226623D02*
X408203Y195797D01*
X392854Y206031D02*
X408886Y190000D01*
X378503Y206031D02*
X392854D01*
X344693Y229219D02*
X352000Y236526D01*
X316896Y191969D02*
X360969D01*
X314000Y200966D02*
X318844Y196122D01*
Y194905D02*
Y196122D01*
X314865Y194000D02*
X316896Y191969D01*
X318844Y194905D02*
X319749Y194000D01*
X321000D01*
X314951Y111951D02*
X315000Y112000D01*
X263528Y85187D02*
X267841Y89500D01*
X283827Y59485D02*
X288184Y63842D01*
X267841Y89500D02*
X274671D01*
X272197Y94128D02*
X275043D01*
X274671Y89500D02*
X275984Y90813D01*
X275043Y94128D02*
X275984Y93187D01*
X271256Y95069D02*
X272197Y94128D01*
X356500Y81000D02*
X357866D01*
X363366Y75500D01*
X385500D01*
X407032Y185797D02*
X411741D01*
X369197Y191500D02*
X399208D01*
X364000Y204000D02*
X376472D01*
X399208Y191500D02*
X406411Y184297D01*
X376472Y204000D02*
X378503Y206031D01*
X406411Y184297D02*
X412362D01*
X383488Y194000D02*
X398830D01*
X408886Y190000D02*
X409000D01*
X398830Y194000D02*
X407032Y185797D01*
X361303Y199000D02*
X361868D01*
X359272Y201031D02*
X361303Y199000D01*
X359272Y201031D02*
Y215395D01*
X347595Y230000D02*
X358000D01*
X368919Y164203D02*
X411741D01*
X352621Y180500D02*
X368919Y164203D01*
X324578Y189000D02*
X333078Y180500D01*
X352621D01*
X321882Y179000D02*
X352000D01*
X302197Y179197D02*
X302393Y179393D01*
Y179000D02*
X305090D01*
X280000Y240974D02*
Y241000D01*
Y240778D02*
Y240974D01*
X257649Y236351D02*
X259000Y235000D01*
X277181Y227826D02*
X299076Y205931D01*
X259000Y235000D02*
X265478D01*
X299356Y201122D01*
X299076Y204905D02*
Y205931D01*
Y204905D02*
X299981Y204000D01*
X277181Y237958D02*
X280000Y240778D01*
X299981Y204000D02*
X302393D01*
X277181Y227826D02*
Y237958D01*
X285751Y243989D02*
X299000Y230740D01*
X299356Y209905D02*
Y213546D01*
X300261Y199000D02*
X302393D01*
X299356Y199905D02*
Y201122D01*
Y199905D02*
X300261Y199000D01*
X299000Y230000D02*
Y230740D01*
X330734Y230344D02*
X338977D01*
X366697Y194000D02*
X369197Y191500D01*
X369915Y194000D02*
X382000D01*
X367415Y196500D02*
X369915Y194000D01*
X357000D02*
X359500Y196500D01*
X377377Y226623D02*
Y230344D01*
X338977D02*
X340101Y229219D01*
X383488Y184000D02*
X384000Y183488D01*
Y180000D02*
Y183488D01*
X321882Y194000D02*
X357000D01*
X361868Y199000D02*
X364000D01*
X340101Y229219D02*
X344693D01*
X364000Y204000D02*
Y209000D01*
X321882Y180119D02*
Y184000D01*
Y180119D02*
X322000Y180000D01*
X356908Y80593D02*
X357500Y80000D01*
X321882Y189000D02*
X324578D01*
X302393Y192069D02*
Y194000D01*
X304526D01*
X359500Y196500D02*
X367415D01*
X319062Y143938D02*
X319123Y144000D01*
X297665Y185187D02*
X298606Y186128D01*
X301452D02*
X302393Y187069D01*
X317571Y144000D02*
X319000D01*
X298606Y186128D02*
X301452D01*
X302393Y179393D02*
Y184000D01*
X316432Y141308D02*
X318937Y143814D01*
X302393Y187069D02*
Y189000D01*
X300679Y129971D02*
Y132679D01*
X298000Y137000D02*
X304000D01*
X290744Y112000D02*
X292876D01*
X293781Y115160D02*
X316432Y137810D01*
X293781Y112905D02*
Y115160D01*
X292876Y112000D02*
X293781Y112905D01*
X299356Y209905D02*
X300261Y209000D01*
X380500Y119800D02*
X381441Y120741D01*
X383898D01*
X380500Y118000D02*
Y119800D01*
Y135938D02*
Y137480D01*
X380111Y137869D02*
X380500Y137480D01*
Y135938D02*
X381441Y134997D01*
X297607Y37970D02*
Y38607D01*
X298500Y39500D01*
X320879D01*
X296137Y36500D02*
X297607Y37970D01*
X295500Y36500D02*
X296137D01*
X303518Y67500D02*
X306518Y64500D01*
X286309Y67500D02*
X303518D01*
X285000Y66191D02*
X286309Y67500D01*
X318500Y35000D02*
X335500Y52000D01*
X324621Y76500D02*
X334000Y67121D01*
X335500Y52000D02*
Y67743D01*
X325243Y78000D02*
X335500Y67743D01*
X320879Y39500D02*
X334000Y52621D01*
Y67121D01*
X332055Y56385D02*
Y66518D01*
X283206Y60985D02*
X285000Y62779D01*
Y66191D01*
X267626Y60985D02*
X283206D01*
X288000Y76500D02*
X324621D01*
X265028Y63582D02*
X267626Y60985D01*
X243000Y54000D02*
X244979D01*
X266528Y67615D02*
X269143Y65000D01*
X265028Y84528D02*
X266500Y86000D01*
X267375D01*
X267841Y84500D02*
X274671D01*
X265028Y63582D02*
Y84528D01*
X267375Y86000D02*
X268375Y87000D01*
X266675Y92000D02*
X271256D01*
X263528Y62961D02*
X267004Y59485D01*
X259092Y84416D02*
X266675Y92000D01*
X266528Y67615D02*
Y83187D01*
X263528Y62961D02*
Y85187D01*
X259092Y84416D02*
X259092D01*
X268375Y87000D02*
X271256D01*
X286016Y78484D02*
X288000Y76500D01*
X286016Y78484D02*
Y83187D01*
X244979Y54000D02*
X251500Y60521D01*
Y76825D01*
X245451Y76951D02*
X247573D01*
X264277Y93656D01*
X251500Y76825D02*
X259092Y84416D01*
X244000Y75500D02*
X245451Y76951D01*
X248245Y89000D02*
X257500D01*
X244500Y92745D02*
X248245Y89000D01*
X244500Y92745D02*
Y95000D01*
X257500Y89000D02*
X262777Y94277D01*
X268218Y99878D02*
Y101095D01*
X269124Y102000D01*
X264277Y95936D02*
X268218Y99878D01*
X264277Y93656D02*
Y95936D01*
X269124Y102000D02*
X271256D01*
X262777Y99436D02*
X268218Y104878D01*
Y106095D01*
X262777Y94277D02*
Y99436D01*
X273953Y97000D02*
X282593Y105641D01*
X269124Y107000D02*
X271256D01*
X268218Y106095D02*
X269124Y107000D01*
X282593Y105641D02*
Y111886D01*
X271256Y97000D02*
X273953D01*
X290744Y107000D02*
X291253Y107509D01*
X295009D01*
X291490Y120782D02*
X291490D01*
X290744Y85069D02*
Y87000D01*
X289803Y84128D02*
X290744Y85069D01*
X286957Y84128D02*
X289803D01*
X286016Y83187D02*
X286957Y84128D01*
X271256Y82000D02*
X273953D01*
X267004Y59485D02*
X283827D01*
X269143Y65000D02*
X270000D01*
X275984Y90813D02*
Y93187D01*
X304000Y137000D02*
X306000Y135000D01*
Y129500D02*
Y135000D01*
X305500Y129000D02*
X306000Y129500D01*
X290500Y102244D02*
X290744Y102000D01*
X285628Y104872D02*
X289559D01*
X301829Y129000D02*
X305500D01*
X289559Y104872D02*
X290500Y103931D01*
X284500Y106000D02*
X285628Y104872D01*
X291490Y120782D02*
X300679Y129971D01*
X290500Y102244D02*
Y103931D01*
X284500Y106000D02*
Y111671D01*
X306518Y64500D02*
X308000D01*
X295009Y107509D02*
X317471Y129971D01*
X271256Y95069D02*
Y97000D01*
X269124Y112000D02*
X271256D01*
X319293Y132500D02*
X319500D01*
X317471Y129971D02*
Y130678D01*
X319293Y132500D01*
X314951Y107000D02*
Y111951D01*
X268218Y111095D02*
X269124Y112000D01*
X257113Y98773D02*
X268218Y109878D01*
Y111095D01*
X257113Y96113D02*
Y98773D01*
X255000Y94000D02*
X257113Y96113D01*
X316432Y137810D02*
Y141308D01*
X173787Y159343D02*
X173945Y159500D01*
D40*
X215710Y143224D02*
D03*
Y132594D02*
D03*
X319777Y269915D02*
D03*
Y259285D02*
D03*
X207678Y53370D02*
D03*
Y64000D02*
D03*
X125453Y388023D02*
D03*
Y398653D02*
D03*
X85453D02*
D03*
Y388023D02*
D03*
X65453Y398653D02*
D03*
Y388023D02*
D03*
X105453Y398653D02*
D03*
Y388023D02*
D03*
X145453Y398653D02*
D03*
Y388023D02*
D03*
X165453Y398653D02*
D03*
Y388023D02*
D03*
X45453D02*
D03*
Y398653D02*
D03*
X100000Y290000D02*
D03*
Y300630D02*
D03*
X78453Y301968D02*
D03*
Y291338D02*
D03*
X227453Y365023D02*
D03*
Y375653D02*
D03*
Y276995D02*
D03*
Y266365D02*
D03*
Y331338D02*
D03*
Y341968D02*
D03*
X180476Y64000D02*
D03*
Y53370D02*
D03*
X141307Y148685D02*
D03*
Y159315D02*
D03*
X232177Y132594D02*
D03*
Y143224D02*
D03*
X232630Y170130D02*
D03*
Y159500D02*
D03*
X195049Y53370D02*
D03*
Y64000D02*
D03*
X162269Y53370D02*
D03*
Y64000D02*
D03*
X143583Y64000D02*
D03*
Y53370D02*
D03*
X85630Y148685D02*
D03*
Y159315D02*
D03*
X103630Y148685D02*
D03*
Y159315D02*
D03*
X121781Y148685D02*
D03*
Y159315D02*
D03*
X192630Y170130D02*
D03*
Y159500D02*
D03*
X212630Y170130D02*
D03*
Y159500D02*
D03*
X303756Y340315D02*
D03*
Y329685D02*
D03*
X321000Y340315D02*
D03*
Y329685D02*
D03*
X286513Y340606D02*
D03*
Y329976D02*
D03*
X199355Y143224D02*
D03*
Y132594D02*
D03*
X182229Y143224D02*
D03*
Y132594D02*
D03*
X338977Y259285D02*
D03*
Y269915D02*
D03*
X358177Y240974D02*
D03*
Y230344D02*
D03*
Y259285D02*
D03*
Y269915D02*
D03*
X281377Y230344D02*
D03*
Y240974D02*
D03*
X261846D02*
D03*
Y230344D02*
D03*
X377377D02*
D03*
Y240974D02*
D03*
X338977Y230344D02*
D03*
Y240974D02*
D03*
X300577Y230344D02*
D03*
Y240974D02*
D03*
X319777Y230344D02*
D03*
Y240974D02*
D03*
X300577Y269915D02*
D03*
Y259285D02*
D03*
X281377Y269915D02*
D03*
Y259285D02*
D03*
X319528Y143224D02*
D03*
Y132594D02*
D03*
X338416D02*
D03*
Y143224D02*
D03*
X327858Y53370D02*
D03*
Y64000D02*
D03*
X308199Y64000D02*
D03*
Y53370D02*
D03*
X289523Y64000D02*
D03*
Y53370D02*
D03*
X357000Y80685D02*
D03*
Y91315D02*
D03*
X376545D02*
D03*
Y80685D02*
D03*
X271324Y64000D02*
D03*
Y53370D02*
D03*
X301514Y132594D02*
D03*
Y143224D02*
D03*
X283208Y132594D02*
D03*
Y143224D02*
D03*
X245749D02*
D03*
Y132594D02*
D03*
X264752Y143224D02*
D03*
Y132594D02*
D03*
D41*
X56000Y106000D02*
D03*
X66630D02*
D03*
X126260Y128000D02*
D03*
X115630D02*
D03*
X94630Y106000D02*
D03*
X84000D02*
D03*
X152630Y86000D02*
D03*
X142000D02*
D03*
X113315Y106000D02*
D03*
X123945D02*
D03*
X98260Y128000D02*
D03*
X87630D02*
D03*
X94945Y85500D02*
D03*
X84315D02*
D03*
X94630Y65000D02*
D03*
X84000D02*
D03*
X152945Y125000D02*
D03*
X142315D02*
D03*
X152945Y105000D02*
D03*
X142315D02*
D03*
X173071Y198661D02*
D03*
X162442D02*
D03*
X173630Y180500D02*
D03*
X163000D02*
D03*
X173945Y159500D02*
D03*
X163315D02*
D03*
X273315Y311000D02*
D03*
X262685D02*
D03*
X285332D02*
D03*
X295962D02*
D03*
X306397Y34873D02*
D03*
X295767D02*
D03*
X280773D02*
D03*
X270143D02*
D03*
X255198Y93858D02*
D03*
X244568D02*
D03*
X231315D02*
D03*
X220685D02*
D03*
X231361Y73855D02*
D03*
X220731D02*
D03*
X244614Y73855D02*
D03*
X255244D02*
D03*
X231361Y52454D02*
D03*
X220731D02*
D03*
X244614D02*
D03*
X255244D02*
D03*
X231361Y32727D02*
D03*
X220731D02*
D03*
X244614D02*
D03*
X255244D02*
D03*
X231315Y114000D02*
D03*
X220685D02*
D03*
X244568D02*
D03*
X255198D02*
D03*
D42*
X203705Y365077D02*
D03*
Y370077D02*
D03*
Y375077D02*
D03*
Y380077D02*
D03*
X185201Y365077D02*
D03*
Y370077D02*
D03*
Y375077D02*
D03*
Y380077D02*
D03*
X203705Y330153D02*
D03*
Y335153D02*
D03*
Y340153D02*
D03*
Y345153D02*
D03*
X185201Y330153D02*
D03*
Y335153D02*
D03*
Y340153D02*
D03*
Y345153D02*
D03*
D43*
X175193Y103358D02*
D03*
X176306Y102244D02*
D03*
X177420Y101130D02*
D03*
X178533Y100017D02*
D03*
X179647Y98903D02*
D03*
X180760Y97790D02*
D03*
X181874Y96676D02*
D03*
X182987Y95563D02*
D03*
X194067Y106642D02*
D03*
X192954Y107756D02*
D03*
X191840Y108870D02*
D03*
X190727Y109983D02*
D03*
X189613Y111097D02*
D03*
X188499Y112210D02*
D03*
X187386Y113324D02*
D03*
X186272Y114437D02*
D03*
D44*
X182987D02*
D03*
X181874Y113324D02*
D03*
X180760Y112210D02*
D03*
X179647Y111097D02*
D03*
X178533Y109983D02*
D03*
X177420Y108870D02*
D03*
X176306Y107756D02*
D03*
X175193Y106642D02*
D03*
X186272Y95563D02*
D03*
X187386Y96676D02*
D03*
X188499Y97790D02*
D03*
X189613Y98903D02*
D03*
X190727Y100017D02*
D03*
X191840Y101130D02*
D03*
X192954Y102244D02*
D03*
X194067Y103358D02*
D03*
D45*
X184630Y105000D02*
D03*
D46*
X126291Y65000D02*
D03*
X108968D02*
D03*
D47*
X380000Y412835D02*
D03*
X370000D02*
D03*
X360000D02*
D03*
X310000D02*
D03*
X300000D02*
D03*
X290000D02*
D03*
D48*
X370000Y370000D02*
D03*
X300000D02*
D03*
D49*
X267000Y339429D02*
D03*
X270740Y330571D02*
D03*
X263260D02*
D03*
D50*
X384622Y282000D02*
D03*
X387378D02*
D03*
D51*
X360623Y142869D02*
D03*
Y137869D02*
D03*
Y132869D02*
D03*
Y127869D02*
D03*
Y122869D02*
D03*
Y117869D02*
D03*
Y112869D02*
D03*
X380111D02*
D03*
Y117869D02*
D03*
Y122869D02*
D03*
Y127869D02*
D03*
Y132869D02*
D03*
Y137869D02*
D03*
Y142869D02*
D03*
X364000Y209000D02*
D03*
Y204000D02*
D03*
Y199000D02*
D03*
Y194000D02*
D03*
Y189000D02*
D03*
Y184000D02*
D03*
Y179000D02*
D03*
X383488D02*
D03*
Y184000D02*
D03*
Y189000D02*
D03*
Y194000D02*
D03*
Y199000D02*
D03*
Y204000D02*
D03*
Y209000D02*
D03*
X302393D02*
D03*
Y204000D02*
D03*
Y199000D02*
D03*
Y194000D02*
D03*
Y189000D02*
D03*
Y184000D02*
D03*
Y179000D02*
D03*
X321882D02*
D03*
Y184000D02*
D03*
Y189000D02*
D03*
Y194000D02*
D03*
Y199000D02*
D03*
Y204000D02*
D03*
Y209000D02*
D03*
X271256Y112000D02*
D03*
Y107000D02*
D03*
Y102000D02*
D03*
Y97000D02*
D03*
Y92000D02*
D03*
Y87000D02*
D03*
Y82000D02*
D03*
X290744D02*
D03*
Y87000D02*
D03*
Y92000D02*
D03*
Y97000D02*
D03*
Y102000D02*
D03*
Y107000D02*
D03*
Y112000D02*
D03*
X334439Y82000D02*
D03*
Y87000D02*
D03*
Y92000D02*
D03*
Y97000D02*
D03*
Y102000D02*
D03*
Y107000D02*
D03*
Y112000D02*
D03*
X314951D02*
D03*
Y107000D02*
D03*
Y102000D02*
D03*
Y97000D02*
D03*
Y92000D02*
D03*
Y87000D02*
D03*
Y82000D02*
D03*
D52*
X349000Y419500D02*
X357750D01*
X357955Y419295D01*
X359051D01*
X360000Y418347D01*
X358874Y406374D02*
X359051D01*
X360000Y407323D01*
X338757Y386257D02*
X358874Y406374D01*
X360000Y418000D02*
Y418347D01*
X206000Y426000D02*
X376000D01*
X200000Y420000D02*
X206000Y426000D01*
X376000D02*
X380000Y422000D01*
X319777Y259285D02*
X319918Y259427D01*
X327073D02*
X327500Y259000D01*
X279089Y396411D02*
X288801Y406124D01*
X276000Y393323D02*
X279089Y396411D01*
X288801Y406124D02*
X290000Y407323D01*
X372000Y151000D02*
X379000Y144000D01*
X370500Y151000D02*
X372000D01*
X380000Y412949D02*
X389949Y403000D01*
X390000D01*
X303441Y340000D02*
X304623D01*
X303441D02*
X303756Y340315D01*
X302441Y339000D02*
X303441Y340000D01*
X296500Y339000D02*
X302441D01*
X380000Y412949D02*
Y418347D01*
Y422000D01*
X280151Y70171D02*
X280250Y70072D01*
Y65172D02*
Y70072D01*
X271324Y64000D02*
X279078D01*
X280250Y65172D01*
X165453Y388023D02*
X165464Y388012D01*
X175988D01*
X176000Y388000D01*
X226272Y375653D02*
X226925Y375000D01*
X219067Y382858D02*
X226272Y375653D01*
X187760Y380077D02*
X196281D01*
X185201D02*
X187760D01*
X199062Y382858D02*
X219067D01*
X196281Y380077D02*
X199062Y382858D01*
X226925Y375000D02*
X227000D01*
X190000Y352000D02*
Y353214D01*
X187760Y380077D02*
X193365Y374472D01*
Y356579D02*
Y374472D01*
X190000Y353214D02*
X193365Y356579D01*
X185201Y345153D02*
X187573D01*
X187740Y345320D01*
Y349334D01*
X119484Y300484D02*
X120000Y301000D01*
X100000Y300630D02*
X100146Y300484D01*
X119484D01*
X222506Y370707D02*
X225107Y373307D01*
Y374488D01*
X226272Y375653D01*
X222506Y357739D02*
Y370707D01*
Y357739D02*
X227000Y353246D01*
Y342000D02*
Y353246D01*
X283208Y132594D02*
X284389D01*
X289000Y137205D01*
X319918Y259427D02*
X327073D01*
X310000Y412835D02*
X315835D01*
X320000Y417000D01*
X380000Y412835D02*
Y418347D01*
X318481Y348481D02*
X327000Y357000D01*
X321481Y345481D02*
X338757Y362757D01*
X242959Y421742D02*
X243094D01*
X244352Y423000D01*
X241217Y420000D02*
X242959Y421742D01*
X305346Y423000D02*
X310000Y418347D01*
X244352Y423000D02*
X305346D01*
X240000Y420000D02*
X241217D01*
X310000Y414000D02*
Y418347D01*
X200000Y410000D02*
Y420000D01*
X240000Y410000D02*
Y419000D01*
X322181Y340315D02*
X323346Y341480D01*
Y342347D02*
X342000Y361000D01*
X338757Y362757D02*
Y386257D01*
X310000Y400000D02*
Y412835D01*
X273315Y311000D02*
Y312181D01*
X274480Y313347D01*
X323346Y341480D02*
Y342347D01*
X310104Y345481D02*
X321481D01*
X349000Y392000D02*
X368876D01*
X342000Y385000D02*
X349000Y392000D01*
X321000Y340315D02*
X322181D01*
X342000Y361000D02*
Y385000D01*
X304623Y340000D02*
X310104Y345481D01*
X368876Y392000D02*
X380000Y403124D01*
Y412000D01*
X360000Y407323D02*
Y412835D01*
X310000Y400000D02*
X327000Y383000D01*
X287694Y340606D02*
X295569Y348481D01*
X274828Y313347D02*
X276000Y314518D01*
X290000Y407323D02*
Y412835D01*
X274480Y313347D02*
X274828D01*
X276000Y314518D02*
Y393323D01*
X286513Y340606D02*
X287694D01*
X295569Y348481D02*
X318481D01*
X327000Y357000D02*
Y383000D01*
X273315Y311000D02*
X285000D01*
D53*
X405000Y363000D02*
Y370338D01*
X344373Y263500D02*
X350500D01*
X340158Y259285D02*
X344373Y263500D01*
X197000Y393000D02*
X276000D01*
X55327Y415000D02*
X175000D01*
X279677Y397000D02*
X288801Y406124D01*
X288801D01*
X175000Y415000D02*
X197000Y393000D01*
X18434Y415041D02*
X55286D01*
X10000Y406607D02*
X18434Y415041D01*
X55286D02*
X55327Y415000D01*
X10000Y150185D02*
Y406607D01*
Y150185D02*
X38000Y122185D01*
Y74354D02*
Y122185D01*
X262500Y36500D02*
Y45727D01*
X270143Y34873D02*
Y35585D01*
X262500Y45727D02*
X270143Y53370D01*
X340636Y108500D02*
X351000D01*
X337136Y112000D02*
X340636Y108500D01*
X348500Y99990D02*
X355250Y106740D01*
X348500Y98500D02*
Y99990D01*
X355250Y110193D02*
X357926Y112869D01*
X355250Y106740D02*
Y110193D01*
X335000Y112000D02*
X337136D01*
X255500Y31290D02*
Y32000D01*
X318291Y240974D02*
X319777D01*
X312584Y242084D02*
X317181D01*
X318291Y240974D01*
X312500Y242000D02*
X312584Y242084D01*
X255500Y31290D02*
X257290Y29500D01*
X263000D01*
X265000Y132500D02*
X266500Y131000D01*
X274000D01*
X108968Y55032D02*
X113000Y51000D01*
X126291Y65000D02*
X128000Y66709D01*
Y80500D01*
X255244Y32727D02*
Y52454D01*
X108968Y55032D02*
Y65000D01*
X280592Y258500D02*
X281377Y259285D01*
X255500Y217500D02*
X265500D01*
X267000Y258500D02*
X280592D01*
X246000Y237500D02*
X267000Y258500D01*
X246000Y227000D02*
X255500Y217500D01*
X246000Y227000D02*
Y237500D01*
X265500Y217500D02*
X292000Y191000D01*
Y166000D02*
Y191000D01*
X390661Y109000D02*
X397000D01*
X281377Y259285D02*
X281770Y258893D01*
X288607D01*
X289000Y258500D01*
X264975Y143000D02*
X275000D01*
X256000Y114000D02*
Y115983D01*
X255244Y72674D02*
Y73244D01*
Y52454D02*
Y72674D01*
Y73244D02*
Y73855D01*
X256000Y115983D02*
X256613Y116596D01*
X259649D01*
X261053Y118000D01*
X262000D01*
X255244Y72674D02*
X258830Y69088D01*
Y67170D02*
Y69088D01*
Y67170D02*
X259500Y66500D01*
X255244Y73244D02*
X255500Y73500D01*
X176500Y36000D02*
Y36048D01*
X180476Y40024D01*
X224500Y133000D02*
X224906Y132594D01*
X88815Y80000D02*
X102500D01*
X162269Y53370D02*
X170130D01*
X266628Y171500D02*
X267500D01*
X265257Y170130D02*
X266628Y171500D01*
X232630Y170130D02*
X265257D01*
X212232Y375778D02*
X216250Y371760D01*
X210563Y375778D02*
X212232D01*
X206546Y379795D02*
X210563Y375778D01*
X203987Y379795D02*
X206546D01*
X203705Y380077D02*
X203987Y379795D01*
X198615Y346115D02*
Y350120D01*
X216250Y367755D01*
Y371760D01*
X346553Y242000D02*
X347500D01*
X345527Y240974D02*
X346553Y242000D01*
X338977Y240974D02*
X345527D01*
X206219Y375077D02*
X211296Y370000D01*
X212000D01*
X300000Y399000D02*
Y412835D01*
X345330Y270830D02*
X347000Y272500D01*
X339892Y270830D02*
X345330D01*
X338977Y269915D02*
X339892Y270830D01*
X338977Y259285D02*
X340158D01*
X95500Y97000D02*
Y101784D01*
X94630Y102654D02*
X95500Y101784D01*
X94630Y102654D02*
Y106000D01*
X306000Y311500D02*
X318404Y323903D01*
X295962Y311000D02*
X305500D01*
X306000Y311500D02*
Y328270D01*
Y311500D02*
X307000Y310500D01*
X305500Y311500D02*
X306000D01*
X134835Y91000D02*
X139835Y86000D01*
X133000Y91000D02*
X134835D01*
X319634Y329500D02*
X322000D01*
Y329504D01*
X400527Y395866D02*
X410000Y405338D01*
X400527Y362280D02*
Y395866D01*
X389748Y351500D02*
X400527Y362280D01*
X343996Y351500D02*
X389748D01*
X322000Y329504D02*
X343996Y351500D01*
X99000Y289000D02*
X100000Y290000D01*
X99000Y281500D02*
Y289000D01*
X370000Y402717D02*
Y412835D01*
X367000Y399717D02*
X370000Y402717D01*
X367000Y399000D02*
Y399717D01*
X214000Y98250D02*
Y108000D01*
Y98250D02*
X218392Y93858D01*
X220685D01*
X57000Y111000D02*
X60500Y114500D01*
X57000Y107000D02*
Y111000D01*
X56000Y106000D02*
X57000Y107000D01*
X81000Y135000D02*
X81811D01*
X87630Y129181D01*
Y128000D02*
Y129181D01*
X150185Y159315D02*
X150500Y159000D01*
X141307Y159315D02*
X150185D01*
X132000Y106000D02*
X132500Y106500D01*
X123945Y106000D02*
X132000D01*
X139835Y86000D02*
X142000D01*
X173480Y47020D02*
X180000Y40500D01*
X180476Y40024D02*
Y53370D01*
X180988Y40488D02*
X186437Y45937D01*
X199064D01*
X206497Y53370D01*
X207678D01*
X153280Y47020D02*
X173480D01*
X146930Y53370D02*
X153280Y47020D01*
X143583Y53370D02*
X146930D01*
X263000Y37000D02*
X268728D01*
X270143Y35585D01*
X270143Y53370D02*
X271324D01*
X289523D02*
X289588Y53435D01*
X297935D01*
X298000Y53500D01*
X308199Y53370D02*
X308264Y53435D01*
X317435D01*
X317500Y53500D01*
X390330Y108670D02*
X390661Y109000D01*
X387008Y108670D02*
X390330D01*
X382808Y112869D02*
X387008Y108670D01*
X380111Y112869D02*
X382808D01*
X397000Y99959D02*
Y109000D01*
X377041Y80000D02*
X397000Y99959D01*
X374883Y115401D02*
X377784Y112500D01*
X374883Y120338D02*
X377414Y122869D01*
X374883Y115401D02*
Y120338D01*
X377784Y112500D02*
X380000D01*
X377414Y122869D02*
X380111D01*
X360623Y112877D02*
X361000Y112500D01*
X357926Y112869D02*
X360623D01*
X357795Y118000D02*
X361000D01*
X360623Y112877D02*
Y117869D01*
X357926Y127869D02*
X360623D01*
X355395Y125338D02*
X357926Y127869D01*
X355395Y120401D02*
Y125338D01*
Y120401D02*
X357795Y118000D01*
X338304Y143112D02*
X338416Y143224D01*
X330112Y143112D02*
X338304D01*
X330000Y143000D02*
X330112Y143112D01*
X301514Y143224D02*
X301652Y143362D01*
X309362D01*
X309500Y143500D01*
X289724Y143224D02*
X290500Y144000D01*
X283208Y143224D02*
X289724D01*
X261768Y230422D02*
X261846Y230344D01*
X252578Y230422D02*
X261768D01*
X252500Y230500D02*
X252578Y230422D01*
X377851Y240500D02*
X386500D01*
X377377Y240974D02*
X377851Y240500D01*
X358177Y269915D02*
X358469Y270208D01*
X366208D01*
X366500Y270500D01*
X289291Y285250D02*
X349785D01*
X231656Y227615D02*
X289291Y285250D01*
X349785D02*
X354576Y290041D01*
X288255Y287750D02*
X348750D01*
X229156Y228651D02*
X288255Y287750D01*
X348750D02*
X356338Y295338D01*
X287220Y290250D02*
X344179D01*
X226656Y229686D02*
X287220Y290250D01*
X344179D02*
X369267Y315338D01*
X286184Y292750D02*
X343143D01*
X224156Y230722D02*
X286184Y292750D01*
X343143D02*
X370434Y320041D01*
X285149Y295250D02*
X342108D01*
X221656Y231757D02*
X285149Y295250D01*
X342108D02*
X376899Y330041D01*
X284113Y297750D02*
X341072D01*
X219156Y232793D02*
X284113Y297750D01*
X341072D02*
X383363Y340041D01*
X283077Y300250D02*
X340037D01*
X216656Y233828D02*
X283077Y300250D01*
X340037D02*
X385125Y345338D01*
X282042Y302750D02*
X338750D01*
X214156Y234864D02*
X282042Y302750D01*
X338750D02*
X385000Y349000D01*
X319777Y269915D02*
X324000Y274138D01*
Y276500D01*
X105376Y398576D02*
X105453Y398653D01*
X96576Y398576D02*
X105376D01*
X96500Y398500D02*
X96576Y398576D01*
X210718Y369500D02*
X211500D01*
X203705Y365077D02*
X206295D01*
X210718Y369500D01*
X203705Y375077D02*
X206219D01*
X195691Y326868D02*
Y343191D01*
X198615Y346115D01*
X227453Y360608D02*
Y365023D01*
Y360608D02*
X229500Y358561D01*
Y358000D02*
Y358561D01*
X220500Y280000D02*
Y285500D01*
Y280000D02*
X223505Y276995D01*
X227453D01*
X208795Y335000D02*
Y337622D01*
Y332684D02*
Y335000D01*
X210500Y323500D02*
Y333295D01*
X208795Y335000D02*
X210500Y333295D01*
X203500Y330000D02*
X206111D01*
X203705Y340153D02*
X206264D01*
X208795Y337622D01*
X206111Y330000D02*
X208795Y332684D01*
X226272Y331338D02*
X227453D01*
X220000Y325066D02*
X226272Y331338D01*
X220000Y325000D02*
Y325066D01*
X305500Y311500D02*
Y312170D01*
X300803Y306304D02*
X305500Y311000D01*
X270590Y306304D02*
X300803D01*
X269800Y307094D02*
X270590Y306304D01*
X270500Y329500D02*
X270740Y329260D01*
Y318761D02*
Y329260D01*
X269800Y317821D02*
X270740Y318761D01*
X269800Y307094D02*
Y317821D01*
X318404Y328270D02*
X319634Y329500D01*
X318404Y323903D02*
Y328270D01*
X303500Y328500D02*
X305770D01*
X306000Y328270D01*
X286513Y329976D02*
X287694D01*
X305500Y312170D01*
X230996Y132594D02*
X232177D01*
X132591Y135409D02*
X140403Y127596D01*
X140944Y103629D02*
X142315Y105000D01*
X138778Y103629D02*
X140944D01*
X136453Y101304D02*
X138778Y103629D01*
X121220Y101304D02*
X136453D01*
X116830Y105694D02*
X121220Y101304D01*
X116830Y105694D02*
Y110170D01*
X108000Y119000D02*
X116830Y110170D01*
X94630Y106000D02*
X113315D01*
X83815Y85000D02*
X88815Y80000D01*
X394330Y174670D02*
X395000Y174000D01*
X390515Y174670D02*
X394330D01*
X386616Y178569D02*
X390515Y174670D01*
X383919Y178569D02*
X386616D01*
X383488Y179000D02*
X383919Y178569D01*
X264752Y143224D02*
X264975Y143000D01*
X189560Y52810D02*
X194489D01*
X195049Y53370D01*
X189000Y52250D02*
X189560Y52810D01*
X198617Y143617D02*
X199000Y144000D01*
X191383Y143617D02*
X198617D01*
X191000Y144000D02*
X191383Y143617D01*
X181000Y145000D02*
X183000Y143000D01*
X172000Y145000D02*
X181000D01*
X224906Y132594D02*
X230996D01*
X83815Y85000D02*
X84315Y85500D01*
X182099Y388108D02*
X226520D01*
X178099Y384108D02*
X182099Y388108D01*
X150549Y384108D02*
X178099D01*
X179135Y381608D02*
X183135Y385608D01*
X133049Y381608D02*
X179135D01*
X183135Y385608D02*
X225485D01*
X146634Y388023D02*
X150549Y384108D01*
X126634Y388023D02*
X133049Y381608D01*
X225485Y385608D02*
X235049Y376043D01*
X226520Y388108D02*
X237549Y377079D01*
X197028Y356353D02*
Y365959D01*
X179711Y346814D02*
X190615Y357718D01*
X203423Y369795D02*
X203705Y370077D01*
X193191Y352516D02*
X197028Y356353D01*
X193191Y327904D02*
Y352516D01*
X200864Y369795D02*
X203423D01*
X187499Y370338D02*
X190615Y367222D01*
Y357718D02*
Y367222D01*
X197028Y365959D02*
X200864Y369795D01*
X174750Y305927D02*
X195691Y326868D01*
X172250Y306963D02*
X193191Y327904D01*
X91145Y127694D02*
X99839Y119000D01*
X108000D01*
X63888Y163112D02*
X80933Y146067D01*
Y145960D02*
X91485Y135409D01*
X80933Y145960D02*
Y146067D01*
X75500Y216500D02*
X157500D01*
X173671Y229135D02*
X212436D01*
X76535Y214000D02*
X158536D01*
X231656Y227141D02*
Y227615D01*
X163857Y201258D02*
X163857D01*
X218650Y214135D02*
X231656Y227141D01*
X179234Y216635D02*
X217614D01*
X229156Y228177D02*
Y228651D01*
X163857Y201258D02*
X179234Y216635D01*
X217614D02*
X229156Y228177D01*
X354576Y290041D02*
X411353D01*
X216656Y233355D02*
Y233828D01*
X226656Y229212D02*
Y229686D01*
X163000Y192121D02*
X164844Y193965D01*
X224156Y230248D02*
Y230722D01*
X91145Y111224D02*
Y117064D01*
X34913Y162112D02*
X46097D01*
X63888Y163112D02*
Y201352D01*
X61000Y162358D02*
Y202000D01*
X46097Y162112D02*
X91145Y117064D01*
X61000Y162358D02*
X91145Y132213D01*
X175742Y224135D02*
X214508D01*
X68888Y198703D02*
X79185Y209000D01*
X63888Y201352D02*
X76535Y214000D01*
X66388Y171136D02*
X81724Y155800D01*
X68888Y174876D02*
Y198703D01*
X61000Y202000D02*
X75500Y216500D01*
X66388Y171136D02*
Y199739D01*
X68888Y174876D02*
X84449Y159315D01*
X91145Y127694D02*
Y132213D01*
X98260Y128000D02*
X115630D01*
X78149Y211500D02*
X159571D01*
X93137Y159315D02*
X103630D01*
X157500Y216500D02*
X172635Y231635D01*
X89621Y155800D02*
X93137Y159315D01*
X73366Y197000D02*
X114566Y155800D01*
X81724D02*
X89621D01*
X114566D02*
X133011D01*
X91115Y90511D02*
Y111193D01*
X91145Y111224D01*
X33888Y132112D02*
Y161087D01*
X79963Y261338D02*
X120173Y221128D01*
X155442D01*
X58453Y261338D02*
X79963D01*
X121781Y159315D02*
Y170781D01*
X174706Y226635D02*
X213472D01*
X126296Y223627D02*
X154742D01*
X219156Y232319D02*
Y232793D01*
X79185Y209000D02*
X160607D01*
X155442Y221128D02*
X155573Y221258D01*
X120453Y229471D02*
X126296Y223627D01*
X160607Y209000D02*
X175742Y224135D01*
X170347Y203358D02*
X170347D01*
X411353Y290041D02*
X414703Y293390D01*
X177813Y219135D02*
X216579D01*
X414703Y293390D02*
Y300635D01*
X160000Y204000D02*
X162678D01*
X159571Y211500D02*
X174706Y226635D01*
X157500Y206500D02*
X161642D01*
X158536Y214000D02*
X173671Y229135D01*
X156116Y221258D02*
X168000Y233142D01*
X181124Y214135D02*
X218650D01*
X154742Y223627D02*
X163372Y232257D01*
X155573Y221258D02*
X156116D01*
X155500Y170661D02*
Y199500D01*
X160000Y204000D01*
X212436Y229135D02*
X216656Y233355D01*
X172635Y231635D02*
X211401D01*
X167756Y196555D02*
Y200767D01*
X162678Y204000D02*
X177813Y219135D01*
X161642Y206500D02*
X176778Y221635D01*
X221656Y231284D02*
Y231757D01*
X213472Y226635D02*
X219156Y232319D01*
X216579Y219135D02*
X226656Y229212D01*
X176778Y221635D02*
X215543D01*
X66388Y199739D02*
X78149Y211500D01*
X214156Y234390D02*
Y234864D01*
X214508Y224135D02*
X221656Y231284D01*
X215543Y221635D02*
X224156Y230248D01*
X165166Y193965D02*
X167756Y196555D01*
X237549Y261969D02*
Y377079D01*
X223453Y257338D02*
X232918D01*
X221064Y259950D02*
X231994D01*
X215564Y262450D02*
X230959D01*
X232549Y264040D02*
Y319121D01*
X232918Y257338D02*
X237549Y261969D01*
X235049Y263005D02*
Y376043D01*
X231994Y259950D02*
X235049Y263005D01*
X230959Y262450D02*
X232549Y264040D01*
X211401Y231635D02*
X214156Y234390D01*
X403662Y349000D02*
X410000Y355338D01*
X385000Y349000D02*
X403662D01*
X385125Y345338D02*
X408338D01*
X410000Y385338D02*
X419703Y375635D01*
Y328390D02*
Y375635D01*
X405000Y370338D02*
X410000Y375338D01*
Y375338D01*
X411489Y360500D02*
X414703Y357286D01*
X417203Y335890D02*
Y358322D01*
X407500Y360500D02*
X411489D01*
X411353Y320041D02*
X419703Y328390D01*
X405000Y363000D02*
X407500Y360500D01*
X410484Y365041D02*
X417203Y358322D01*
X414703Y343390D02*
Y357286D01*
X411353Y330041D02*
X417203Y335890D01*
X411353Y340041D02*
X414703Y343390D01*
X383363Y340041D02*
X411353D01*
X173945Y159500D02*
X192630D01*
X212630D01*
X281377Y269915D02*
X299915D01*
X369267Y315338D02*
X408662D01*
X409000Y315000D01*
X370434Y320041D02*
X411353D01*
X356338Y295338D02*
X410000D01*
X376899Y330041D02*
X411353D01*
X167756Y200767D02*
X170347Y203358D01*
X162442Y198661D02*
Y199843D01*
X163857Y201258D01*
X173351Y180779D02*
X173787Y180342D01*
X173071Y198661D02*
X173351Y198382D01*
Y180779D02*
Y198382D01*
X155500Y170661D02*
X163315Y162847D01*
X170347Y203358D02*
X181124Y214135D01*
X410000Y305338D02*
X414703Y300635D01*
X163315Y159500D02*
Y162847D01*
X164844Y193965D02*
X165166D01*
X163000Y180500D02*
Y192121D01*
X408338Y345338D02*
X409000Y346000D01*
X91485Y135409D02*
X132591D01*
X140403Y127596D02*
X140900D01*
X142315Y126181D01*
Y125000D02*
Y126181D01*
X153197Y226128D02*
X160872Y233803D01*
X168000Y233142D02*
Y236885D01*
X126453Y227006D02*
Y254338D01*
X127332Y226128D02*
X153197D01*
X126453Y227006D02*
X127332Y226128D01*
X120453Y229471D02*
Y230338D01*
X73000Y197000D02*
X73366D01*
X121781Y170781D02*
X157500Y206500D01*
X163372Y232257D02*
Y301620D01*
X210296Y249181D02*
X221064Y259950D01*
X210296Y246495D02*
Y249181D01*
X209453Y236338D02*
X215453Y242338D01*
Y249338D02*
X223453Y257338D01*
X215453Y242338D02*
Y249338D01*
X84449Y159315D02*
X85630D01*
X133011Y155800D02*
X140126Y148685D01*
X112453Y32219D02*
X116219D01*
X100750Y28107D02*
X108341D01*
X116219Y32219D02*
X116500Y32500D01*
X96638Y32219D02*
X100750Y28107D01*
X108341D02*
X112453Y32219D01*
X82630Y106000D02*
X83630Y105000D01*
X140126Y148685D02*
X141307D01*
X262972Y330283D02*
X263260Y330571D01*
X262972Y312028D02*
Y330283D01*
Y312028D02*
X263000Y312000D01*
X261846Y240974D02*
X280000D01*
X319344Y230344D02*
X320000Y231000D01*
X300577Y230344D02*
X319344D01*
X33888Y132112D02*
X38000Y128000D01*
X33888Y161087D02*
X34913Y162112D01*
X94630Y85000D02*
Y86996D01*
X91115Y90511D02*
X94630Y86996D01*
X245749Y143224D02*
X264752D01*
X243358Y93858D02*
X244000Y94500D01*
X231315Y93858D02*
X243358D01*
X280773Y34873D02*
X281147Y34500D01*
X295500D01*
X319528Y132594D02*
X337906D01*
X376545Y91315D02*
X376685D01*
X357000D02*
X376545D01*
X376685D02*
X377000Y91000D01*
X308199Y64000D02*
X328500D01*
X308199Y64000D02*
X308199Y64000D01*
X231361Y73855D02*
X243974D01*
X231361Y32727D02*
X243199D01*
X231361Y52454D02*
X244023D01*
X231315Y114000D02*
X243500D01*
X96357Y32500D02*
X96500D01*
X84000Y44857D02*
X96357Y32500D01*
X84000Y44857D02*
Y65000D01*
X173787Y159343D02*
Y180342D01*
X143583Y64000D02*
X162630D01*
X143583Y64000D02*
X143583Y64000D01*
X94630Y65000D02*
X108630D01*
X66630Y106000D02*
X82630D01*
X212630Y170130D02*
Y198500D01*
X218630Y204500D01*
X192630Y170130D02*
X193811D01*
X195226Y171545D01*
Y172726D01*
X198630Y176130D01*
Y204500D01*
X212630Y159500D02*
X232630D01*
X85453Y388023D02*
X86634D01*
X88049Y386608D01*
Y385427D02*
X105138Y368338D01*
X91453Y301955D02*
X95626Y306128D01*
X69320Y267147D02*
X91453Y289280D01*
X215500Y320879D02*
Y344459D01*
X216379Y320000D02*
X231671D01*
X124138Y388023D02*
X124453Y388338D01*
X125453Y388023D02*
X126634D01*
X145453D02*
X146634D01*
X177211Y359646D02*
X182360Y364795D01*
X158164Y350599D02*
X182642Y375077D01*
X160664Y348099D02*
X182642Y370077D01*
X182360Y364795D02*
X184919D01*
X182642Y370077D02*
X185201D01*
X184919Y364795D02*
X185201Y365077D01*
X185453Y370338D02*
X187499D01*
X182642Y375077D02*
X185201D01*
X65453Y388023D02*
X66634D01*
X60356Y385133D02*
Y390913D01*
X61681Y392238D02*
X110560D01*
X57857Y384097D02*
Y390677D01*
X60356Y390913D02*
X61681Y392238D01*
X105453Y388023D02*
X124138D01*
X87453Y350338D02*
X120453D01*
X122849Y365338D02*
X124664Y363524D01*
X66634Y388023D02*
X89319Y365338D01*
X123385Y368338D02*
X127164Y364559D01*
X105138Y368338D02*
X123385D01*
X60356Y385133D02*
X87453Y358036D01*
X88049Y385427D02*
Y386608D01*
X89319Y365338D02*
X122849D01*
X82750Y348390D02*
Y359204D01*
X87453Y350338D02*
Y358036D01*
X57857Y384097D02*
X82750Y359204D01*
X35357Y292137D02*
X55346Y272147D01*
X52707Y281159D02*
X57213Y276653D01*
X52707Y281159D02*
Y345592D01*
X22453Y225338D02*
X58453Y261338D01*
X67249Y272147D02*
X83549Y288448D01*
X57453Y276338D02*
X57768Y276653D01*
X62587D01*
X77272Y291338D01*
X20802Y390338D02*
X24104D01*
X20505Y400041D02*
X24401D01*
X20802Y380338D02*
X24104D01*
X17750Y393390D02*
Y397286D01*
Y393390D02*
X20802Y390338D01*
X17750Y359260D02*
Y377286D01*
Y397286D02*
X20505Y400041D01*
X17750Y377286D02*
X20802Y380338D01*
X22453Y395338D02*
X22639D01*
X19469Y412541D02*
X54250D01*
X20505Y410041D02*
X52884D01*
X22453Y405338D02*
X22639D01*
X52884Y410041D02*
X64272Y398653D01*
X54250Y412541D02*
X64223Y402568D01*
X80747D02*
X82857Y400459D01*
X64272Y398653D02*
X65453D01*
X82857Y400068D02*
Y400459D01*
Y400068D02*
X84272Y398653D01*
X64223Y402568D02*
X80747D01*
X84272Y398653D02*
X85453D01*
X12750Y405822D02*
X19469Y412541D01*
X15250Y404786D02*
X20505Y410041D01*
X15250Y332541D02*
Y404786D01*
X24104Y380338D02*
X27156Y383390D01*
X12750Y325041D02*
Y405822D01*
X17750Y359260D02*
X22098Y354912D01*
Y335693D02*
Y354912D01*
X24104Y390338D02*
X27156Y387286D01*
X24401Y400041D02*
X41104Y383338D01*
X45453Y398653D02*
X46622Y397484D01*
X22639Y405338D02*
X36039Y391938D01*
X51049Y397484D02*
X57857Y390677D01*
X22639Y395338D02*
X35357Y382621D01*
X46622Y397484D02*
X51049D01*
X23144Y264647D02*
X70355D01*
X40644Y267147D02*
X69320D01*
X55346Y272147D02*
X67249D01*
X22453Y265338D02*
X23144Y264647D01*
X22453Y285338D02*
X40644Y267147D01*
X15250Y332541D02*
X22453Y325338D01*
X12750Y325041D02*
X22453Y315338D01*
X22098Y335693D02*
X22453Y335338D01*
X35357Y292137D02*
Y382621D01*
X41104Y383338D02*
X44574D01*
X45453Y384217D02*
Y388023D01*
X50549Y367158D02*
Y390913D01*
X57333Y316458D02*
Y340218D01*
X44574Y383338D02*
X45453Y384217D01*
X36039Y391938D02*
X49524D01*
X27156Y383390D02*
Y387286D01*
X49524Y391938D02*
X50549Y390913D01*
X52707Y345592D02*
X57453Y350338D01*
X57333Y340218D02*
X57453Y340338D01*
X82750Y348390D02*
X86099Y345041D01*
X105750D01*
X57453Y340338D02*
X62156Y345041D01*
Y355552D01*
X50549Y367158D02*
X62156Y355552D01*
X94357Y294459D02*
X95235Y295338D01*
X77272Y291338D02*
X78453D01*
Y302338D02*
X79264D01*
X83549Y288448D02*
Y298053D01*
X70355Y264647D02*
X94357Y288648D01*
X79264Y302338D02*
X83549Y298053D01*
X91453Y289280D02*
Y301955D01*
X172250Y263541D02*
X178453Y257338D01*
X95235Y295338D02*
X121408D01*
X151453Y270338D02*
X158372Y277257D01*
X152408Y275338D02*
X155872Y278803D01*
Y313555D01*
X158372Y311532D02*
X160664Y313824D01*
X155872Y313555D02*
X158164Y315846D01*
X158372Y277257D02*
Y311532D01*
X136408Y310338D02*
X151453D01*
X172250Y263541D02*
Y306963D01*
X174750Y281041D02*
Y305927D01*
X178453Y287338D02*
X179453Y288338D01*
Y296338D01*
X174750Y281041D02*
X179453Y276338D01*
X147242Y272082D02*
X150498Y275338D01*
X152408D01*
X147242Y254707D02*
Y272082D01*
Y248594D02*
Y254707D01*
Y234549D02*
Y248594D01*
X94357Y288648D02*
Y294459D01*
X95626Y306128D02*
X127242D01*
X125453Y398653D02*
X145453D01*
X120890Y402568D02*
X149524D01*
X121408Y295338D02*
X136408Y310338D01*
X110560Y392238D02*
X120890Y402568D01*
X153440Y398653D02*
X165453D01*
X149524Y402568D02*
X153440Y398653D01*
X160872Y233803D02*
Y308383D01*
X127242Y306128D02*
X151453Y330338D01*
X231671Y320000D02*
X232549Y319121D01*
X209453Y286338D02*
Y296338D01*
X198215Y287576D02*
Y332222D01*
Y287576D02*
X209453Y276338D01*
X158164Y315846D02*
Y350599D01*
X160664Y313824D02*
Y348099D01*
X179711Y338084D02*
X182642Y335153D01*
X163372Y301620D02*
X190691Y328939D01*
X160872Y308383D02*
X182923Y330435D01*
X147242Y234549D02*
X151453Y230338D01*
X172750Y241635D02*
X184750D01*
X168000Y236885D02*
X172750Y241635D01*
X190691Y328939D02*
Y337222D01*
X185453Y340338D02*
X187575D01*
X190691Y337222D01*
X179711Y338084D02*
Y346814D01*
X177211Y335584D02*
X182360Y330435D01*
X182642Y335153D02*
X185201D01*
X177211Y335584D02*
Y359646D01*
X121453Y320338D02*
Y321338D01*
X120453Y311338D02*
X121453D01*
X105750Y345041D02*
X120453Y330338D01*
X121453Y311338D02*
X127164Y317049D01*
X121453Y321338D02*
X124664Y324549D01*
X204473Y345318D02*
X207039D01*
X207059Y345338D01*
X214621D02*
X215500Y344459D01*
Y320879D02*
X216379Y320000D01*
X207059Y345338D02*
X214621D01*
X209453Y236338D02*
X209453D01*
X184750Y241635D02*
X209453Y266338D01*
X209466Y266352D01*
X226439D01*
X209453Y256338D02*
X215564Y262450D01*
X124664Y324549D02*
Y363524D01*
X127164Y317049D02*
Y364559D01*
X120453Y260338D02*
X126453Y254338D01*
X201331Y335338D02*
X202453D01*
X198215Y332222D02*
X201331Y335338D01*
D54*
X73000Y227000D02*
D03*
X38000Y74354D02*
D03*
X38000Y158000D02*
D03*
X267500Y191500D02*
D03*
D55*
X73000Y197000D02*
D03*
X38000Y44354D02*
D03*
X38000Y128000D02*
D03*
X267500Y181500D02*
D03*
Y171500D02*
D03*
X106638Y32219D02*
D03*
X96638D02*
D03*
X208630Y204500D02*
D03*
X218630D02*
D03*
D56*
X22453Y235338D02*
D03*
Y375338D02*
D03*
Y385338D02*
D03*
Y395338D02*
D03*
Y405338D02*
D03*
Y335338D02*
D03*
Y325338D02*
D03*
X209453Y236338D02*
D03*
Y246338D02*
D03*
Y256338D02*
D03*
Y266338D02*
D03*
Y276338D02*
D03*
Y286338D02*
D03*
Y296338D02*
D03*
X179453Y236338D02*
D03*
Y246338D02*
D03*
Y256338D02*
D03*
Y266338D02*
D03*
Y276338D02*
D03*
Y286338D02*
D03*
X22453Y265338D02*
D03*
Y275338D02*
D03*
X57453Y340338D02*
D03*
X87453Y350338D02*
D03*
Y340338D02*
D03*
X410000Y250000D02*
D03*
Y240000D02*
D03*
Y230000D02*
D03*
Y220000D02*
D03*
Y210000D02*
D03*
Y200000D02*
D03*
Y190000D02*
D03*
Y180000D02*
D03*
Y170000D02*
D03*
Y160000D02*
D03*
Y150000D02*
D03*
Y140000D02*
D03*
Y130000D02*
D03*
Y405338D02*
D03*
Y395338D02*
D03*
Y385338D02*
D03*
Y375338D02*
D03*
Y365338D02*
D03*
Y355338D02*
D03*
Y345338D02*
D03*
Y335338D02*
D03*
Y325338D02*
D03*
Y315338D02*
D03*
Y305338D02*
D03*
Y295338D02*
D03*
Y285338D02*
D03*
D57*
X22453Y225338D02*
D03*
Y365338D02*
D03*
Y315338D02*
D03*
Y285338D02*
D03*
X410000Y120000D02*
D03*
Y275338D02*
D03*
D58*
X151453Y360338D02*
D03*
Y350338D02*
D03*
Y340338D02*
D03*
Y330338D02*
D03*
Y320338D02*
D03*
Y310338D02*
D03*
Y300338D02*
D03*
Y290338D02*
D03*
Y280338D02*
D03*
Y270338D02*
D03*
Y260338D02*
D03*
Y250338D02*
D03*
Y240338D02*
D03*
Y230338D02*
D03*
X120453D02*
D03*
Y240338D02*
D03*
Y250338D02*
D03*
Y260338D02*
D03*
Y270338D02*
D03*
Y280338D02*
D03*
Y290338D02*
D03*
Y300338D02*
D03*
Y310338D02*
D03*
Y320338D02*
D03*
Y330338D02*
D03*
Y340338D02*
D03*
Y350338D02*
D03*
D59*
Y360338D02*
D03*
D60*
X179453Y296338D02*
D03*
X57453Y350338D02*
D03*
D61*
X57213Y316653D02*
D03*
Y276653D02*
D03*
D62*
X116638Y32219D02*
D03*
X198630Y204500D02*
D03*
D63*
X240000Y420000D02*
D03*
Y410000D02*
D03*
X230000Y420000D02*
D03*
Y410000D02*
D03*
X220000D02*
D03*
Y420000D02*
D03*
X210000Y410000D02*
D03*
Y420000D02*
D03*
X200000Y410000D02*
D03*
Y420000D02*
D03*
D64*
X349000Y419500D02*
D03*
X419500Y255000D02*
D03*
X327500Y259000D02*
D03*
X350500Y263500D02*
D03*
X326500Y217500D02*
D03*
X188500Y29500D02*
D03*
X212500Y40000D02*
D03*
X210000Y33500D02*
D03*
X262500Y36500D02*
D03*
X351000Y108500D02*
D03*
X348500Y98500D02*
D03*
X392500Y141000D02*
D03*
X370500Y151000D02*
D03*
X263000Y29500D02*
D03*
X390000Y403000D02*
D03*
X296500Y339000D02*
D03*
X289000Y258500D02*
D03*
X312500Y242000D02*
D03*
X292000Y166000D02*
D03*
X274000Y131000D02*
D03*
X275000Y143000D02*
D03*
X262000Y118000D02*
D03*
X259500Y66500D02*
D03*
X182500Y83500D02*
D03*
X195500Y88500D02*
D03*
X203256Y97245D02*
D03*
X172500Y54000D02*
D03*
X176500Y36000D02*
D03*
X224500Y133000D02*
D03*
X291500Y137000D02*
D03*
X128000Y80500D02*
D03*
X102500Y80000D02*
D03*
X151000Y31000D02*
D03*
X212000Y370000D02*
D03*
X186500Y119500D02*
D03*
X300000Y399000D02*
D03*
X347500Y242000D02*
D03*
X347000Y272500D02*
D03*
X95500Y97000D02*
D03*
X307000Y310500D02*
D03*
X324000Y122500D02*
D03*
X285000Y120000D02*
D03*
X238000Y69500D02*
D03*
X198500Y110000D02*
D03*
X133000Y91000D02*
D03*
X197000Y122500D02*
D03*
X205000Y119500D02*
D03*
X99000Y281500D02*
D03*
X367000Y399000D02*
D03*
X224000Y143500D02*
D03*
X208000D02*
D03*
X214000Y108000D02*
D03*
X60500Y114500D02*
D03*
X81000Y135000D02*
D03*
X150500Y159000D02*
D03*
X132500Y106500D02*
D03*
X298000Y53500D02*
D03*
X317500D02*
D03*
X397000Y109000D02*
D03*
X330000Y143000D02*
D03*
X309500Y143500D02*
D03*
X290500Y144000D02*
D03*
X252500Y230500D02*
D03*
X386500Y240500D02*
D03*
X390500Y277000D02*
D03*
X366500Y270500D02*
D03*
X324000Y276500D02*
D03*
X96500Y398500D02*
D03*
X229500Y358000D02*
D03*
X220500Y285500D02*
D03*
X210500Y323500D02*
D03*
X220000Y325000D02*
D03*
X307848Y272152D02*
D03*
X213500Y117500D02*
D03*
X254500Y132500D02*
D03*
X134000Y115000D02*
D03*
X189000Y52250D02*
D03*
X395000Y174000D02*
D03*
X321000Y418000D02*
D03*
D65*
X281000Y85000D02*
D03*
X280151Y70171D02*
D03*
X112000Y51000D02*
D03*
X191000Y144000D02*
D03*
X172000Y145000D02*
D03*
X176000Y388000D02*
D03*
X189000Y351000D02*
D03*
M02*
