G04*
G04 #@! TF.GenerationSoftware,Altium Limited,Altium Designer,20.0.9 (164)*
G04*
G04 Layer_Color=65535*
%FSLAX25Y25*%
%MOIN*%
G70*
G01*
G75*
%ADD10C,0.00787*%
%ADD11C,0.02362*%
%ADD12C,0.00984*%
%ADD13C,0.00500*%
%ADD14C,0.00591*%
%ADD15C,0.01000*%
D10*
X103000Y212000D02*
G03*
X103000Y212000I-30000J0D01*
G01*
X68000Y59354D02*
G03*
X68000Y59354I-30000J0D01*
G01*
X116268Y360338D02*
G03*
X116268Y360338I-394J0D01*
G01*
X191953Y306102D02*
G03*
X196953Y306102I2500J0D01*
G01*
X69953Y355378D02*
G03*
X74953Y355378I2500J0D01*
G01*
X68000Y143000D02*
G03*
X68000Y143000I-30000J0D01*
G01*
X180792Y117026D02*
G03*
X180792Y117026I-394J0D01*
G01*
X384567Y413406D02*
G03*
X384567Y413406I-394J0D01*
G01*
X314567D02*
G03*
X314567Y413406I-394J0D01*
G01*
X354816Y144011D02*
G03*
X354816Y144011I-394J0D01*
G01*
X358193Y210142D02*
G03*
X358193Y210142I-394J0D01*
G01*
X296586D02*
G03*
X296586Y210142I-394J0D01*
G01*
X265449Y113142D02*
G03*
X265449Y113142I-394J0D01*
G01*
X341034Y80858D02*
G03*
X341034Y80858I-394J0D01*
G01*
X218662Y136334D02*
Y139483D01*
X212757Y136334D02*
Y139483D01*
X322730Y263026D02*
Y266175D01*
X316824Y263026D02*
Y266175D01*
X59740Y108953D02*
X62890D01*
X59740Y103047D02*
X62890D01*
X204726Y57110D02*
Y60260D01*
X210631Y57110D02*
Y60260D01*
X17453Y220338D02*
Y240338D01*
Y220338D02*
X27453D01*
Y240338D01*
X17453D02*
X27453D01*
X17453Y410338D02*
X27453D01*
Y360338D02*
Y410338D01*
X17453Y360338D02*
Y410338D01*
Y360338D02*
X27453D01*
X17453Y310338D02*
X27453D01*
X17453D02*
Y340338D01*
X27453D01*
Y310338D02*
Y340338D01*
X184020Y226574D02*
X204886D01*
X196953Y306102D02*
X204886D01*
X184020D02*
X191953D01*
X204886Y226574D02*
Y306102D01*
X184020Y226574D02*
Y306102D01*
X52213Y309653D02*
X62213D01*
X52213Y283653D02*
Y309653D01*
Y283653D02*
X62213D01*
Y309653D01*
X52213Y288653D02*
X62213D01*
X57213Y309653D02*
Y312653D01*
Y280653D02*
Y283653D01*
X17453Y290338D02*
X27453D01*
Y260338D02*
Y290338D01*
X17453Y260338D02*
X27453D01*
X17453D02*
Y290338D01*
X62020Y335299D02*
Y355378D01*
X82886Y335299D02*
Y355378D01*
X62020D02*
X69953D01*
X74953D02*
X82886D01*
X62020Y335299D02*
X82886D01*
X122500Y391763D02*
Y394913D01*
X128406Y391763D02*
Y394913D01*
X190516Y362735D02*
X198390D01*
X190516Y382420D02*
X198390D01*
Y362735D02*
Y382420D01*
X190516Y362735D02*
Y382420D01*
X88406Y391763D02*
Y394913D01*
X82500Y391763D02*
Y394913D01*
X68406Y391763D02*
Y394913D01*
X62500Y391763D02*
Y394913D01*
X108406Y391763D02*
Y394913D01*
X102500Y391763D02*
Y394913D01*
X148406Y391763D02*
Y394913D01*
X142500Y391763D02*
Y394913D01*
X168406Y391763D02*
Y394913D01*
X162500Y391763D02*
Y394913D01*
X42500Y391763D02*
Y394913D01*
X48406Y391763D02*
Y394913D01*
X97047Y293740D02*
Y296890D01*
X102953Y293740D02*
Y296890D01*
X81406Y295078D02*
Y298228D01*
X75500Y295078D02*
Y298228D01*
X224500Y368763D02*
Y371913D01*
X230406Y368763D02*
Y371913D01*
X230406Y270105D02*
Y273255D01*
X224500Y270105D02*
Y273255D01*
X224500Y335078D02*
Y338228D01*
X230406Y335078D02*
Y338228D01*
X190516Y327811D02*
X198390D01*
X190516Y347496D02*
X198390D01*
Y327811D02*
Y347496D01*
X190516Y327811D02*
Y347496D01*
X183429Y57110D02*
Y60260D01*
X177523Y57110D02*
Y60260D01*
X138354Y152425D02*
Y155575D01*
X144260Y152425D02*
Y155575D01*
X119370Y125047D02*
X122520D01*
X119370Y130953D02*
X122520D01*
X112906Y60276D02*
X122354D01*
X112906Y69724D02*
X122354D01*
X87740Y103047D02*
X90890D01*
X87740Y108953D02*
X90890D01*
X145740Y83047D02*
X148890D01*
X145740Y88953D02*
X148890D01*
X117055Y108953D02*
X120205D01*
X117055Y103047D02*
X120205D01*
X91370Y125047D02*
X94520D01*
X91370Y130953D02*
X94520D01*
X88055Y82547D02*
X91205D01*
X88055Y88453D02*
X91205D01*
X87740Y62047D02*
X90890D01*
X87740Y67953D02*
X90890D01*
X257500Y201500D02*
X277500D01*
X257500Y156500D02*
Y201500D01*
Y156500D02*
X267500D01*
Y161500D01*
X277500D01*
Y201500D01*
X229224Y136334D02*
Y139483D01*
X235130Y136334D02*
Y139483D01*
X126638Y22219D02*
Y42219D01*
X81638D02*
X126638D01*
X81638Y32219D02*
Y42219D01*
Y32219D02*
X86638D01*
Y22219D02*
Y32219D01*
Y22219D02*
X126638D01*
X235583Y163240D02*
Y166390D01*
X229677Y163240D02*
Y166390D01*
X192097Y57110D02*
Y60260D01*
X198002Y57110D02*
Y60260D01*
X159317Y57110D02*
Y60260D01*
X165222Y57110D02*
Y60260D01*
X146536Y57110D02*
Y60260D01*
X140630Y57110D02*
Y60260D01*
X146055Y122047D02*
X149205D01*
X146055Y127953D02*
X149205D01*
X146055Y102047D02*
X149205D01*
X146055Y107953D02*
X149205D01*
X82677Y152425D02*
Y155575D01*
X88583Y152425D02*
Y155575D01*
X166182Y195709D02*
X169331D01*
X166182Y201614D02*
X169331D01*
X100677Y152425D02*
Y155575D01*
X106583Y152425D02*
Y155575D01*
X166740Y177547D02*
X169890D01*
X166740Y183453D02*
X169890D01*
X118829Y152425D02*
Y155575D01*
X124734Y152425D02*
Y155575D01*
X195583Y163240D02*
Y166390D01*
X189677Y163240D02*
Y166390D01*
X167055Y156547D02*
X170205D01*
X167055Y162453D02*
X170205D01*
X215583Y163240D02*
Y166390D01*
X209677Y163240D02*
Y166390D01*
X188630Y194500D02*
Y214500D01*
Y194500D02*
X233630D01*
Y204500D01*
X228630D02*
X233630D01*
X228630D02*
Y214500D01*
X188630D02*
X228630D01*
X266425Y308047D02*
X269575D01*
X266425Y313953D02*
X269575D01*
X306709Y333425D02*
Y336575D01*
X300804Y333425D02*
Y336575D01*
X289072Y313953D02*
X292221D01*
X289072Y308047D02*
X292221D01*
X323953Y333425D02*
Y336575D01*
X318047Y333425D02*
Y336575D01*
X289465Y333716D02*
Y336866D01*
X283560Y333716D02*
Y336866D01*
X269756Y337756D02*
X272905D01*
Y334213D02*
Y337756D01*
X261094D02*
X264244D01*
X261094Y334213D02*
Y337756D01*
X405000Y122500D02*
Y255000D01*
Y115000D02*
Y122500D01*
Y115000D02*
X415000D01*
Y255000D01*
X405000D02*
X415000D01*
X405000Y277838D02*
Y410338D01*
Y270338D02*
Y277838D01*
Y270338D02*
X415000D01*
Y410338D01*
X405000D02*
X415000D01*
X202307Y136334D02*
Y139483D01*
X196402Y136334D02*
Y139483D01*
X382457Y281803D02*
Y282197D01*
X185182Y136334D02*
Y139483D01*
X179277Y136334D02*
Y139483D01*
X336024Y263026D02*
Y266175D01*
X341930Y263026D02*
Y266175D01*
X361130Y234084D02*
Y237233D01*
X355224Y234084D02*
Y237233D01*
X355224Y263026D02*
Y266175D01*
X361130Y263026D02*
Y266175D01*
X278424Y234084D02*
Y237233D01*
X284330Y234084D02*
Y237233D01*
X264799Y234084D02*
Y237233D01*
X258893Y234084D02*
Y237233D01*
X374424Y234084D02*
Y237233D01*
X380330Y234084D02*
Y237233D01*
X336024Y234084D02*
Y237233D01*
X341930Y234084D02*
Y237233D01*
X297624Y234084D02*
Y237233D01*
X303530Y234084D02*
Y237233D01*
X316824Y234084D02*
Y237233D01*
X322730Y234084D02*
Y237233D01*
X303530Y263026D02*
Y266175D01*
X297624Y263026D02*
Y266175D01*
X284330Y263026D02*
Y266175D01*
X278424Y263026D02*
Y266175D01*
X322481Y136334D02*
Y139483D01*
X316575Y136334D02*
Y139483D01*
X335464Y136334D02*
Y139483D01*
X341369Y136334D02*
Y139483D01*
X324905Y57110D02*
Y60260D01*
X330811Y57110D02*
Y60260D01*
X311152Y57110D02*
Y60260D01*
X305246Y57110D02*
Y60260D01*
X299508Y31921D02*
X302657D01*
X299508Y37826D02*
X302657D01*
X273883Y31921D02*
X277033D01*
X273883Y37826D02*
X277033D01*
X248308Y90905D02*
X251458D01*
X248308Y96811D02*
X251458D01*
X224425Y90905D02*
X227575D01*
X224425Y96811D02*
X227575D01*
X292476Y57110D02*
Y60260D01*
X286571Y57110D02*
Y60260D01*
X354047Y84425D02*
Y87575D01*
X359953Y84425D02*
Y87575D01*
X379498Y84425D02*
Y87575D01*
X373592Y84425D02*
Y87575D01*
X274277Y57110D02*
Y60260D01*
X268372Y57110D02*
Y60260D01*
X224471Y70902D02*
X227621D01*
X224471Y76808D02*
X227621D01*
X298561Y136334D02*
Y139483D01*
X304467Y136334D02*
Y139483D01*
X248354Y76808D02*
X251504D01*
X248354Y70902D02*
X251504D01*
X280255Y136334D02*
Y139483D01*
X286161Y136334D02*
Y139483D01*
X224471Y49501D02*
X227621D01*
X224471Y55407D02*
X227621D01*
X248354Y55407D02*
X251504D01*
X248354Y49501D02*
X251504D01*
X224471Y29774D02*
X227621D01*
X224471Y35680D02*
X227621D01*
X248354Y35680D02*
X251504D01*
X248354Y29774D02*
X251504D01*
X248702Y136334D02*
Y139483D01*
X242796Y136334D02*
Y139483D01*
X267705Y136334D02*
Y139483D01*
X261799Y136334D02*
Y139483D01*
X224425Y111047D02*
X227575D01*
X224425Y116953D02*
X227575D01*
X248308Y116953D02*
X251458D01*
X248308Y111047D02*
X251458D01*
D11*
X189138Y302165D02*
G03*
X189138Y302165I-1181J0D01*
G01*
X67138Y351441D02*
G03*
X67138Y351441I-1181J0D01*
G01*
D12*
X179945Y301456D02*
G03*
X179945Y301456I-492J0D01*
G01*
X57945Y355456D02*
G03*
X57945Y355456I-492J0D01*
G01*
X185693Y383423D02*
G03*
X185693Y383423I-492J0D01*
G01*
Y348499D02*
G03*
X185693Y348499I-492J0D01*
G01*
X264146Y340315D02*
G03*
X264146Y340315I-492J0D01*
G01*
D13*
X121703Y226618D02*
X150203D01*
X121703Y364059D02*
X150203D01*
X184157Y94338D02*
X184630Y93864D01*
X195292Y105473D02*
X195765Y105000D01*
X173494D02*
X173968Y104527D01*
X184630Y116136D02*
X185103Y115662D01*
X184630Y93864D02*
X185103Y94338D01*
X195292Y104527D02*
X195765Y105000D01*
X173494D02*
X173968Y105473D01*
X184157Y115662D02*
X184630Y116136D01*
X390000Y386232D02*
Y398063D01*
X350000Y386232D02*
Y398063D01*
X390000D01*
X320000Y386232D02*
Y398063D01*
X280000Y386232D02*
Y398063D01*
X320000D01*
X179921Y397087D02*
Y432913D01*
Y397087D02*
X260079D01*
Y432913D01*
X179921D02*
X260079D01*
X365761Y110842D02*
X374973D01*
X365761Y144897D02*
X374973D01*
X369138Y176972D02*
X378350D01*
X369138Y211028D02*
X378350D01*
X307531Y176972D02*
X316744D01*
X307531Y211028D02*
X316744D01*
X276394Y79972D02*
X285606D01*
X276394Y114028D02*
X285606D01*
X320089D02*
X329302D01*
X320089Y79972D02*
X329302D01*
D14*
X72949Y244015D02*
Y247951D01*
X70981Y245983D02*
X74917D01*
X37949Y91369D02*
Y95305D01*
X35981Y93337D02*
X39917D01*
X37949Y175015D02*
Y178951D01*
X35981Y176983D02*
X39917D01*
D15*
X192500Y407500D02*
X194166D01*
X193333D01*
Y412498D01*
X192500Y411665D01*
X47599Y256498D02*
X46599Y257498D01*
X44600D01*
X43600Y256498D01*
Y252500D01*
X44600Y251500D01*
X46599D01*
X47599Y252500D01*
X49598Y256498D02*
X50598Y257498D01*
X52597D01*
X53597Y256498D01*
Y255499D01*
X52597Y254499D01*
X51597D01*
X52597D01*
X53597Y253499D01*
Y252500D01*
X52597Y251500D01*
X50598D01*
X49598Y252500D01*
X383100Y292198D02*
Y286200D01*
X385099Y288199D01*
X387099Y286200D01*
Y292198D01*
X389098Y286200D02*
X391097D01*
X390098D01*
Y292198D01*
X389098Y291198D01*
X55053Y365436D02*
Y360438D01*
X56053Y359438D01*
X58052D01*
X59052Y360438D01*
Y365436D01*
X61051Y359438D02*
X63050D01*
X62051D01*
Y365436D01*
X61051Y364437D01*
X69048Y359438D02*
Y365436D01*
X66049Y362437D01*
X70048D01*
X181853Y358436D02*
Y353438D01*
X182853Y352438D01*
X184852D01*
X185852Y353438D01*
Y358436D01*
X187851Y352438D02*
X189850D01*
X188851D01*
Y358436D01*
X187851Y357436D01*
X192849Y352438D02*
X194849D01*
X193849D01*
Y358436D01*
X192849Y357436D01*
X116053Y373636D02*
Y368638D01*
X117053Y367638D01*
X119052D01*
X120052Y368638D01*
Y373636D01*
X122051Y368638D02*
X123051Y367638D01*
X125050D01*
X126050Y368638D01*
Y372637D01*
X125050Y373636D01*
X123051D01*
X122051Y372637D01*
Y371637D01*
X123051Y370637D01*
X126050D01*
X181853Y393436D02*
Y388438D01*
X182853Y387438D01*
X184852D01*
X185852Y388438D01*
Y393436D01*
X187851Y392437D02*
X188851Y393436D01*
X190850D01*
X191850Y392437D01*
Y391437D01*
X190850Y390437D01*
X191850Y389438D01*
Y388438D01*
X190850Y387438D01*
X188851D01*
X187851Y388438D01*
Y389438D01*
X188851Y390437D01*
X187851Y391437D01*
Y392437D01*
X188851Y390437D02*
X190850D01*
X177053Y315536D02*
Y310538D01*
X178053Y309538D01*
X180052D01*
X181052Y310538D01*
Y315536D01*
X183051D02*
X187050D01*
Y314536D01*
X183051Y310538D01*
Y309538D01*
X296387Y221148D02*
Y216150D01*
X297387Y215150D01*
X299386D01*
X300386Y216150D01*
Y221148D01*
X306384D02*
X304385Y220148D01*
X302385Y218149D01*
Y216150D01*
X303385Y215150D01*
X305384D01*
X306384Y216150D01*
Y217149D01*
X305384Y218149D01*
X302385D01*
X357994Y221148D02*
Y216150D01*
X358994Y215150D01*
X360993D01*
X361993Y216150D01*
Y221148D01*
X367991D02*
X363992D01*
Y218149D01*
X365991Y219149D01*
X366991D01*
X367991Y218149D01*
Y216150D01*
X366991Y215150D01*
X364992D01*
X363992Y216150D01*
X354617Y155017D02*
Y150019D01*
X355617Y149019D01*
X357616D01*
X358616Y150019D01*
Y155017D01*
X363614Y149019D02*
Y155017D01*
X360615Y152018D01*
X364614D01*
X310995Y124098D02*
Y119100D01*
X311995Y118100D01*
X313994D01*
X314994Y119100D01*
Y124098D01*
X316993Y123098D02*
X317993Y124098D01*
X319992D01*
X320992Y123098D01*
Y122099D01*
X319992Y121099D01*
X318993D01*
X319992D01*
X320992Y120099D01*
Y119100D01*
X319992Y118100D01*
X317993D01*
X316993Y119100D01*
X265250Y124148D02*
Y119150D01*
X266250Y118150D01*
X268249D01*
X269249Y119150D01*
Y124148D01*
X275247Y118150D02*
X271248D01*
X275247Y122149D01*
Y123148D01*
X274247Y124148D01*
X272248D01*
X271248Y123148D01*
X169630Y129998D02*
Y125000D01*
X170630Y124000D01*
X172629D01*
X173629Y125000D01*
Y129998D01*
X175628Y124000D02*
X177627D01*
X176628D01*
Y129998D01*
X175628Y128998D01*
X162553Y404438D02*
Y410436D01*
X165552D01*
X166552Y409437D01*
Y407437D01*
X165552Y406437D01*
X162553D01*
X164552D02*
X166552Y404438D01*
X172550Y410436D02*
X170550Y409437D01*
X168551Y407437D01*
Y405438D01*
X169551Y404438D01*
X171550D01*
X172550Y405438D01*
Y406437D01*
X171550Y407437D01*
X168551D01*
X174549Y404438D02*
X176548D01*
X175549D01*
Y410436D01*
X174549Y409437D01*
X75553Y307738D02*
Y313736D01*
X78552D01*
X79552Y312737D01*
Y310737D01*
X78552Y309737D01*
X75553D01*
X77552D02*
X79552Y307738D01*
X85550Y313736D02*
X83550Y312737D01*
X81551Y310737D01*
Y308738D01*
X82551Y307738D01*
X84550D01*
X85550Y308738D01*
Y309737D01*
X84550Y310737D01*
X81551D01*
X87549Y312737D02*
X88549Y313736D01*
X90548D01*
X91548Y312737D01*
Y308738D01*
X90548Y307738D01*
X88549D01*
X87549Y308738D01*
Y312737D01*
X142553Y404438D02*
Y410436D01*
X145552D01*
X146552Y409437D01*
Y407437D01*
X145552Y406437D01*
X142553D01*
X144552D02*
X146552Y404438D01*
X152550Y410436D02*
X148551D01*
Y407437D01*
X150550Y408437D01*
X151550D01*
X152550Y407437D01*
Y405438D01*
X151550Y404438D01*
X149551D01*
X148551Y405438D01*
X154549D02*
X155549Y404438D01*
X157548D01*
X158548Y405438D01*
Y409437D01*
X157548Y410436D01*
X155549D01*
X154549Y409437D01*
Y408437D01*
X155549Y407437D01*
X158548D01*
X122553Y404438D02*
Y410436D01*
X125552D01*
X126552Y409437D01*
Y407437D01*
X125552Y406437D01*
X122553D01*
X124552D02*
X126552Y404438D01*
X132550Y410436D02*
X128551D01*
Y407437D01*
X130550Y408437D01*
X131550D01*
X132550Y407437D01*
Y405438D01*
X131550Y404438D01*
X129551D01*
X128551Y405438D01*
X134549Y409437D02*
X135549Y410436D01*
X137548D01*
X138548Y409437D01*
Y408437D01*
X137548Y407437D01*
X138548Y406437D01*
Y405438D01*
X137548Y404438D01*
X135549D01*
X134549Y405438D01*
Y406437D01*
X135549Y407437D01*
X134549Y408437D01*
Y409437D01*
X135549Y407437D02*
X137548D01*
X102553Y404438D02*
Y410436D01*
X105552D01*
X106552Y409437D01*
Y407437D01*
X105552Y406437D01*
X102553D01*
X104552D02*
X106552Y404438D01*
X112550Y410436D02*
X108551D01*
Y407437D01*
X110550Y408437D01*
X111550D01*
X112550Y407437D01*
Y405438D01*
X111550Y404438D01*
X109551D01*
X108551Y405438D01*
X114549Y410436D02*
X118548D01*
Y409437D01*
X114549Y405438D01*
Y404438D01*
X82553D02*
Y410436D01*
X85552D01*
X86552Y409437D01*
Y407437D01*
X85552Y406437D01*
X82553D01*
X84552D02*
X86552Y404438D01*
X92550Y410436D02*
X88551D01*
Y407437D01*
X90550Y408437D01*
X91550D01*
X92550Y407437D01*
Y405438D01*
X91550Y404438D01*
X89551D01*
X88551Y405438D01*
X98548Y410436D02*
X96548Y409437D01*
X94549Y407437D01*
Y405438D01*
X95549Y404438D01*
X97548D01*
X98548Y405438D01*
Y406437D01*
X97548Y407437D01*
X94549D01*
X62553Y404438D02*
Y410436D01*
X65552D01*
X66552Y409437D01*
Y407437D01*
X65552Y406437D01*
X62553D01*
X64552D02*
X66552Y404438D01*
X72550Y410436D02*
X68551D01*
Y407437D01*
X70550Y408437D01*
X71550D01*
X72550Y407437D01*
Y405438D01*
X71550Y404438D01*
X69551D01*
X68551Y405438D01*
X78548Y410436D02*
X74549D01*
Y407437D01*
X76548Y408437D01*
X77548D01*
X78548Y407437D01*
Y405438D01*
X77548Y404438D01*
X75549D01*
X74549Y405438D01*
X42553Y404438D02*
Y410436D01*
X45552D01*
X46552Y409437D01*
Y407437D01*
X45552Y406437D01*
X42553D01*
X44552D02*
X46552Y404438D01*
X52550Y410436D02*
X48551D01*
Y407437D01*
X50550Y408437D01*
X51550D01*
X52550Y407437D01*
Y405438D01*
X51550Y404438D01*
X49551D01*
X48551Y405438D01*
X57548Y404438D02*
Y410436D01*
X54549Y407437D01*
X58548D01*
X278427Y275651D02*
Y281648D01*
X281426D01*
X282426Y280649D01*
Y278649D01*
X281426Y277650D01*
X278427D01*
X280426D02*
X282426Y275651D01*
X288424Y281648D02*
X284425D01*
Y278649D01*
X286424Y279649D01*
X287424D01*
X288424Y278649D01*
Y276650D01*
X287424Y275651D01*
X285425D01*
X284425Y276650D01*
X290423Y280649D02*
X291423Y281648D01*
X293422D01*
X294422Y280649D01*
Y279649D01*
X293422Y278649D01*
X292423D01*
X293422D01*
X294422Y277650D01*
Y276650D01*
X293422Y275651D01*
X291423D01*
X290423Y276650D01*
X297627Y275651D02*
Y281648D01*
X300626D01*
X301626Y280649D01*
Y278649D01*
X300626Y277650D01*
X297627D01*
X299626D02*
X301626Y275651D01*
X307624Y281648D02*
X303625D01*
Y278649D01*
X305625Y279649D01*
X306624D01*
X307624Y278649D01*
Y276650D01*
X306624Y275651D01*
X304625D01*
X303625Y276650D01*
X313622Y275651D02*
X309623D01*
X313622Y279649D01*
Y280649D01*
X312622Y281648D01*
X310623D01*
X309623Y280649D01*
X355277Y246759D02*
Y252757D01*
X358276D01*
X359276Y251757D01*
Y249758D01*
X358276Y248758D01*
X355277D01*
X357276D02*
X359276Y246759D01*
X365274Y252757D02*
X361275D01*
Y249758D01*
X363275Y250757D01*
X364274D01*
X365274Y249758D01*
Y247758D01*
X364274Y246759D01*
X362275D01*
X361275Y247758D01*
X367273Y246759D02*
X369272D01*
X368273D01*
Y252757D01*
X367273Y251757D01*
X355277Y275700D02*
Y281698D01*
X358276D01*
X359276Y280699D01*
Y278699D01*
X358276Y277700D01*
X355277D01*
X357276D02*
X359276Y275700D01*
X365274Y281698D02*
X361275D01*
Y278699D01*
X363275Y279699D01*
X364274D01*
X365274Y278699D01*
Y276700D01*
X364274Y275700D01*
X362275D01*
X361275Y276700D01*
X367273Y280699D02*
X368273Y281698D01*
X370272D01*
X371272Y280699D01*
Y276700D01*
X370272Y275700D01*
X368273D01*
X367273Y276700D01*
Y280699D01*
X316877Y246774D02*
Y252772D01*
X319876D01*
X320876Y251772D01*
Y249773D01*
X319876Y248773D01*
X316877D01*
X318876D02*
X320876Y246774D01*
X325874D02*
Y252772D01*
X322875Y249773D01*
X326874D01*
X328873Y247773D02*
X329873Y246774D01*
X331872D01*
X332872Y247773D01*
Y251772D01*
X331872Y252772D01*
X329873D01*
X328873Y251772D01*
Y250772D01*
X329873Y249773D01*
X332872D01*
X297677Y246774D02*
Y252772D01*
X300676D01*
X301676Y251772D01*
Y249773D01*
X300676Y248773D01*
X297677D01*
X299676D02*
X301676Y246774D01*
X306674D02*
Y252772D01*
X303675Y249773D01*
X307674D01*
X309673Y251772D02*
X310673Y252772D01*
X312672D01*
X313672Y251772D01*
Y250772D01*
X312672Y249773D01*
X313672Y248773D01*
Y247773D01*
X312672Y246774D01*
X310673D01*
X309673Y247773D01*
Y248773D01*
X310673Y249773D01*
X309673Y250772D01*
Y251772D01*
X310673Y249773D02*
X312672D01*
X278477Y246759D02*
Y252757D01*
X281476D01*
X282476Y251757D01*
Y249758D01*
X281476Y248758D01*
X278477D01*
X280476D02*
X282476Y246759D01*
X287474D02*
Y252757D01*
X284475Y249758D01*
X288474D01*
X290473Y252757D02*
X294472D01*
Y251757D01*
X290473Y247758D01*
Y246759D01*
X258896Y246709D02*
Y252707D01*
X261895D01*
X262895Y251707D01*
Y249708D01*
X261895Y248708D01*
X258896D01*
X260895D02*
X262895Y246709D01*
X267893D02*
Y252707D01*
X264894Y249708D01*
X268893D01*
X274891Y252707D02*
X272891Y251707D01*
X270892Y249708D01*
Y247708D01*
X271892Y246709D01*
X273891D01*
X274891Y247708D01*
Y248708D01*
X273891Y249708D01*
X270892D01*
X242798Y120900D02*
Y126898D01*
X245797D01*
X246797Y125898D01*
Y123899D01*
X245797Y122899D01*
X242798D01*
X244797D02*
X246797Y120900D01*
X251795D02*
Y126898D01*
X248796Y123899D01*
X252795D01*
X258793Y126898D02*
X254794D01*
Y123899D01*
X256793Y124899D01*
X257793D01*
X258793Y123899D01*
Y121900D01*
X257793Y120900D01*
X255794D01*
X254794Y121900D01*
X218900Y120900D02*
Y126898D01*
X221899D01*
X222899Y125898D01*
Y123899D01*
X221899Y122899D01*
X218900D01*
X220899D02*
X222899Y120900D01*
X227897D02*
Y126898D01*
X224898Y123899D01*
X228897D01*
X233895Y120900D02*
Y126898D01*
X230896Y123899D01*
X234895D01*
X261802Y148959D02*
Y154957D01*
X264801D01*
X265800Y153957D01*
Y151958D01*
X264801Y150958D01*
X261802D01*
X263801D02*
X265800Y148959D01*
X270799D02*
Y154957D01*
X267800Y151958D01*
X271798D01*
X273798Y153957D02*
X274798Y154957D01*
X276797D01*
X277797Y153957D01*
Y152957D01*
X276797Y151958D01*
X275797D01*
X276797D01*
X277797Y150958D01*
Y149958D01*
X276797Y148959D01*
X274798D01*
X273798Y149958D01*
X242849Y149009D02*
Y155007D01*
X245848D01*
X246848Y154007D01*
Y152008D01*
X245848Y151008D01*
X242849D01*
X244848D02*
X246848Y149009D01*
X251846D02*
Y155007D01*
X248847Y152008D01*
X252846D01*
X258844Y149009D02*
X254845D01*
X258844Y153007D01*
Y154007D01*
X257844Y155007D01*
X255845D01*
X254845Y154007D01*
X242829Y39627D02*
Y45625D01*
X245828D01*
X246828Y44625D01*
Y42626D01*
X245828Y41626D01*
X242829D01*
X244829D02*
X246828Y39627D01*
X251826D02*
Y45625D01*
X248827Y42626D01*
X252826D01*
X254825Y39627D02*
X256825D01*
X255825D01*
Y45625D01*
X254825Y44625D01*
X218946Y39627D02*
Y45625D01*
X221945D01*
X222945Y44625D01*
Y42626D01*
X221945Y41626D01*
X218946D01*
X220946D02*
X222945Y39627D01*
X227943D02*
Y45625D01*
X224944Y42626D01*
X228943D01*
X230942Y44625D02*
X231942Y45625D01*
X233941D01*
X234941Y44625D01*
Y40627D01*
X233941Y39627D01*
X231942D01*
X230942Y40627D01*
Y44625D01*
X242829Y59354D02*
Y65352D01*
X245828D01*
X246828Y64352D01*
Y62353D01*
X245828Y61353D01*
X242829D01*
X244829D02*
X246828Y59354D01*
X248827Y64352D02*
X249827Y65352D01*
X251826D01*
X252826Y64352D01*
Y63353D01*
X251826Y62353D01*
X250827D01*
X251826D01*
X252826Y61353D01*
Y60354D01*
X251826Y59354D01*
X249827D01*
X248827Y60354D01*
X254825D02*
X255825Y59354D01*
X257824D01*
X258824Y60354D01*
Y64352D01*
X257824Y65352D01*
X255825D01*
X254825Y64352D01*
Y63353D01*
X255825Y62353D01*
X258824D01*
X218946Y59354D02*
Y65352D01*
X221945D01*
X222945Y64352D01*
Y62353D01*
X221945Y61353D01*
X218946D01*
X220946D02*
X222945Y59354D01*
X224944Y64352D02*
X225944Y65352D01*
X227943D01*
X228943Y64352D01*
Y63353D01*
X227943Y62353D01*
X226943D01*
X227943D01*
X228943Y61353D01*
Y60354D01*
X227943Y59354D01*
X225944D01*
X224944Y60354D01*
X230942Y64352D02*
X231942Y65352D01*
X233941D01*
X234941Y64352D01*
Y63353D01*
X233941Y62353D01*
X234941Y61353D01*
Y60354D01*
X233941Y59354D01*
X231942D01*
X230942Y60354D01*
Y61353D01*
X231942Y62353D01*
X230942Y63353D01*
Y64352D01*
X231942Y62353D02*
X233941D01*
X242829Y80755D02*
Y86753D01*
X245828D01*
X246828Y85753D01*
Y83754D01*
X245828Y82754D01*
X242829D01*
X244829D02*
X246828Y80755D01*
X248827Y85753D02*
X249827Y86753D01*
X251826D01*
X252826Y85753D01*
Y84754D01*
X251826Y83754D01*
X250827D01*
X251826D01*
X252826Y82754D01*
Y81755D01*
X251826Y80755D01*
X249827D01*
X248827Y81755D01*
X254825Y86753D02*
X258824D01*
Y85753D01*
X254825Y81755D01*
Y80755D01*
X218946Y80755D02*
Y86753D01*
X221945D01*
X222945Y85753D01*
Y83754D01*
X221945Y82754D01*
X218946D01*
X220946D02*
X222945Y80755D01*
X224944Y85753D02*
X225944Y86753D01*
X227943D01*
X228943Y85753D01*
Y84754D01*
X227943Y83754D01*
X226943D01*
X227943D01*
X228943Y82754D01*
Y81755D01*
X227943Y80755D01*
X225944D01*
X224944Y81755D01*
X234941Y86753D02*
X232942Y85753D01*
X230942Y83754D01*
Y81755D01*
X231942Y80755D01*
X233941D01*
X234941Y81755D01*
Y82754D01*
X233941Y83754D01*
X230942D01*
X354100Y97100D02*
Y103098D01*
X357099D01*
X358099Y102098D01*
Y100099D01*
X357099Y99099D01*
X354100D01*
X356099D02*
X358099Y97100D01*
X360098Y102098D02*
X361098Y103098D01*
X363097D01*
X364097Y102098D01*
Y101099D01*
X363097Y100099D01*
X362097D01*
X363097D01*
X364097Y99099D01*
Y98100D01*
X363097Y97100D01*
X361098D01*
X360098Y98100D01*
X370095Y103098D02*
X366096D01*
Y100099D01*
X368095Y101099D01*
X369095D01*
X370095Y100099D01*
Y98100D01*
X369095Y97100D01*
X367096D01*
X366096Y98100D01*
X373595Y97050D02*
Y103048D01*
X376594D01*
X377594Y102048D01*
Y100049D01*
X376594Y99049D01*
X373595D01*
X375594D02*
X377594Y97050D01*
X379593Y102048D02*
X380593Y103048D01*
X382592D01*
X383592Y102048D01*
Y101049D01*
X382592Y100049D01*
X381593D01*
X382592D01*
X383592Y99049D01*
Y98050D01*
X382592Y97050D01*
X380593D01*
X379593Y98050D01*
X388590Y97050D02*
Y103048D01*
X385591Y100049D01*
X389590D01*
X242783Y100758D02*
Y106756D01*
X245782D01*
X246782Y105756D01*
Y103757D01*
X245782Y102757D01*
X242783D01*
X244782D02*
X246782Y100758D01*
X248781Y105756D02*
X249781Y106756D01*
X251780D01*
X252780Y105756D01*
Y104757D01*
X251780Y103757D01*
X250781D01*
X251780D01*
X252780Y102757D01*
Y101758D01*
X251780Y100758D01*
X249781D01*
X248781Y101758D01*
X254779Y105756D02*
X255779Y106756D01*
X257778D01*
X258778Y105756D01*
Y104757D01*
X257778Y103757D01*
X256779D01*
X257778D01*
X258778Y102757D01*
Y101758D01*
X257778Y100758D01*
X255779D01*
X254779Y101758D01*
X218900Y100758D02*
Y106756D01*
X221899D01*
X222899Y105756D01*
Y103757D01*
X221899Y102757D01*
X218900D01*
X220899D02*
X222899Y100758D01*
X224898Y105756D02*
X225898Y106756D01*
X227897D01*
X228897Y105756D01*
Y104757D01*
X227897Y103757D01*
X226897D01*
X227897D01*
X228897Y102757D01*
Y101758D01*
X227897Y100758D01*
X225898D01*
X224898Y101758D01*
X234895Y100758D02*
X230896D01*
X234895Y104757D01*
Y105756D01*
X233895Y106756D01*
X231896D01*
X230896Y105756D01*
X293982Y41773D02*
Y47771D01*
X296981D01*
X297981Y46772D01*
Y44772D01*
X296981Y43773D01*
X293982D01*
X295982D02*
X297981Y41773D01*
X299980Y46772D02*
X300980Y47771D01*
X302979D01*
X303979Y46772D01*
Y45772D01*
X302979Y44772D01*
X301980D01*
X302979D01*
X303979Y43773D01*
Y42773D01*
X302979Y41773D01*
X300980D01*
X299980Y42773D01*
X305978Y41773D02*
X307978D01*
X306978D01*
Y47771D01*
X305978Y46772D01*
X268358Y41773D02*
Y47771D01*
X271357D01*
X272357Y46772D01*
Y44772D01*
X271357Y43773D01*
X268358D01*
X270357D02*
X272357Y41773D01*
X274356Y46772D02*
X275356Y47771D01*
X277355D01*
X278355Y46772D01*
Y45772D01*
X277355Y44772D01*
X276356D01*
X277355D01*
X278355Y43773D01*
Y42773D01*
X277355Y41773D01*
X275356D01*
X274356Y42773D01*
X280354Y46772D02*
X281354Y47771D01*
X283353D01*
X284353Y46772D01*
Y42773D01*
X283353Y41773D01*
X281354D01*
X280354Y42773D01*
Y46772D01*
X324958Y69785D02*
Y75783D01*
X327957D01*
X328957Y74783D01*
Y72784D01*
X327957Y71784D01*
X324958D01*
X326958D02*
X328957Y69785D01*
X334955D02*
X330956D01*
X334955Y73784D01*
Y74783D01*
X333955Y75783D01*
X331956D01*
X330956Y74783D01*
X336954Y70785D02*
X337954Y69785D01*
X339953D01*
X340953Y70785D01*
Y74783D01*
X339953Y75783D01*
X337954D01*
X336954Y74783D01*
Y73784D01*
X337954Y72784D01*
X340953D01*
X305249Y69735D02*
Y75733D01*
X308248D01*
X309248Y74734D01*
Y72734D01*
X308248Y71734D01*
X305249D01*
X307248D02*
X309248Y69735D01*
X315246D02*
X311247D01*
X315246Y73734D01*
Y74734D01*
X314246Y75733D01*
X312247D01*
X311247Y74734D01*
X317245D02*
X318245Y75733D01*
X320244D01*
X321244Y74734D01*
Y73734D01*
X320244Y72734D01*
X321244Y71734D01*
Y70735D01*
X320244Y69735D01*
X318245D01*
X317245Y70735D01*
Y71734D01*
X318245Y72734D01*
X317245Y73734D01*
Y74734D01*
X318245Y72734D02*
X320244D01*
X316620Y148994D02*
Y154992D01*
X319619D01*
X320618Y153992D01*
Y151993D01*
X319619Y150993D01*
X316620D01*
X318619D02*
X320618Y148994D01*
X326617D02*
X322618D01*
X326617Y152993D01*
Y153992D01*
X325617Y154992D01*
X323618D01*
X322618Y153992D01*
X328616Y154992D02*
X332615D01*
Y153992D01*
X328616Y149994D01*
Y148994D01*
X335520D02*
Y154992D01*
X338519D01*
X339518Y153992D01*
Y151993D01*
X338519Y150993D01*
X335520D01*
X337519D02*
X339518Y148994D01*
X345516D02*
X341518D01*
X345516Y152993D01*
Y153992D01*
X344517Y154992D01*
X342517D01*
X341518Y153992D01*
X351515Y154992D02*
X349515Y153992D01*
X347516Y151993D01*
Y149994D01*
X348516Y148994D01*
X350515D01*
X351515Y149994D01*
Y150993D01*
X350515Y151993D01*
X347516D01*
X260900Y317900D02*
Y323898D01*
X263899D01*
X264899Y322898D01*
Y320899D01*
X263899Y319899D01*
X260900D01*
X262899D02*
X264899Y317900D01*
X270897D02*
X266898D01*
X270897Y321899D01*
Y322898D01*
X269897Y323898D01*
X267898D01*
X266898Y322898D01*
X276895Y323898D02*
X272896D01*
Y320899D01*
X274896Y321899D01*
X275895D01*
X276895Y320899D01*
Y318900D01*
X275895Y317900D01*
X273896D01*
X272896Y318900D01*
X189230Y217900D02*
Y223898D01*
X192229D01*
X193229Y222898D01*
Y220899D01*
X192229Y219899D01*
X189230D01*
X191229D02*
X193229Y217900D01*
X199227D02*
X195228D01*
X199227Y221899D01*
Y222898D01*
X198227Y223898D01*
X196228D01*
X195228Y222898D01*
X204225Y217900D02*
Y223898D01*
X201226Y220899D01*
X205225D01*
X209680Y175865D02*
Y181863D01*
X212679D01*
X213679Y180863D01*
Y178864D01*
X212679Y177864D01*
X209680D01*
X211679D02*
X213679Y175865D01*
X219677D02*
X215678D01*
X219677Y179864D01*
Y180863D01*
X218677Y181863D01*
X216678D01*
X215678Y180863D01*
X221676D02*
X222676Y181863D01*
X224675D01*
X225675Y180863D01*
Y179864D01*
X224675Y178864D01*
X223675D01*
X224675D01*
X225675Y177864D01*
Y176865D01*
X224675Y175865D01*
X222676D01*
X221676Y176865D01*
X189680Y175865D02*
Y181863D01*
X192679D01*
X193679Y180863D01*
Y178864D01*
X192679Y177864D01*
X189680D01*
X191679D02*
X193679Y175865D01*
X199677D02*
X195678D01*
X199677Y179864D01*
Y180863D01*
X198677Y181863D01*
X196678D01*
X195678Y180863D01*
X205675Y175865D02*
X201676D01*
X205675Y179864D01*
Y180863D01*
X204675Y181863D01*
X202676D01*
X201676Y180863D01*
X161580Y166450D02*
Y172448D01*
X164579D01*
X165579Y171448D01*
Y169449D01*
X164579Y168449D01*
X161580D01*
X163579D02*
X165579Y166450D01*
X171577D02*
X167578D01*
X171577Y170449D01*
Y171448D01*
X170577Y172448D01*
X168578D01*
X167578Y171448D01*
X173576Y166450D02*
X175575D01*
X174576D01*
Y172448D01*
X173576Y171448D01*
X118881Y165085D02*
Y171083D01*
X121880D01*
X122880Y170083D01*
Y168084D01*
X121880Y167084D01*
X118881D01*
X120881D02*
X122880Y165085D01*
X128878D02*
X124880D01*
X128878Y169084D01*
Y170083D01*
X127878Y171083D01*
X125879D01*
X124880Y170083D01*
X130877D02*
X131877Y171083D01*
X133877D01*
X134876Y170083D01*
Y166085D01*
X133877Y165085D01*
X131877D01*
X130877Y166085D01*
Y170083D01*
X161265Y187450D02*
Y193448D01*
X164264D01*
X165264Y192448D01*
Y190449D01*
X164264Y189449D01*
X161265D01*
X163264D02*
X165264Y187450D01*
X167263D02*
X169262D01*
X168263D01*
Y193448D01*
X167263Y192448D01*
X172261Y188450D02*
X173261Y187450D01*
X175260D01*
X176260Y188450D01*
Y192448D01*
X175260Y193448D01*
X173261D01*
X172261Y192448D01*
Y191449D01*
X173261Y190449D01*
X176260D01*
X100730Y165085D02*
Y171083D01*
X103729D01*
X104729Y170083D01*
Y168084D01*
X103729Y167084D01*
X100730D01*
X102729D02*
X104729Y165085D01*
X106728D02*
X108727D01*
X107728D01*
Y171083D01*
X106728Y170083D01*
X111726D02*
X112726Y171083D01*
X114725D01*
X115725Y170083D01*
Y169084D01*
X114725Y168084D01*
X115725Y167084D01*
Y166085D01*
X114725Y165085D01*
X112726D01*
X111726Y166085D01*
Y167084D01*
X112726Y168084D01*
X111726Y169084D01*
Y170083D01*
X112726Y168084D02*
X114725D01*
X160706Y205611D02*
Y211610D01*
X163706D01*
X164705Y210610D01*
Y208611D01*
X163706Y207611D01*
X160706D01*
X162706D02*
X164705Y205611D01*
X166704D02*
X168704D01*
X167704D01*
Y211610D01*
X166704Y210610D01*
X171703Y211610D02*
X175702D01*
Y210610D01*
X171703Y206611D01*
Y205611D01*
X82730Y165085D02*
Y171083D01*
X85729D01*
X86729Y170083D01*
Y168084D01*
X85729Y167084D01*
X82730D01*
X84729D02*
X86729Y165085D01*
X88728D02*
X90727D01*
X89728D01*
Y171083D01*
X88728Y170083D01*
X97725Y171083D02*
X95726Y170083D01*
X93726Y168084D01*
Y166085D01*
X94726Y165085D01*
X96725D01*
X97725Y166085D01*
Y167084D01*
X96725Y168084D01*
X93726D01*
X140530Y111900D02*
Y117898D01*
X143529D01*
X144529Y116898D01*
Y114899D01*
X143529Y113899D01*
X140530D01*
X142529D02*
X144529Y111900D01*
X146528D02*
X148527D01*
X147528D01*
Y117898D01*
X146528Y116898D01*
X155525Y117898D02*
X151526D01*
Y114899D01*
X153526Y115899D01*
X154525D01*
X155525Y114899D01*
Y112900D01*
X154525Y111900D01*
X152526D01*
X151526Y112900D01*
X140530Y131900D02*
Y137898D01*
X143529D01*
X144529Y136898D01*
Y134899D01*
X143529Y133899D01*
X140530D01*
X142529D02*
X144529Y131900D01*
X146528D02*
X148527D01*
X147528D01*
Y137898D01*
X146528Y136898D01*
X154525Y131900D02*
Y137898D01*
X151526Y134899D01*
X155525D01*
X140630Y69800D02*
Y75798D01*
X143629D01*
X144629Y74798D01*
Y72799D01*
X143629Y71799D01*
X140630D01*
X142629D02*
X144629Y69800D01*
X146628D02*
X148627D01*
X147628D01*
Y75798D01*
X146628Y74798D01*
X151626D02*
X152626Y75798D01*
X154625D01*
X155625Y74798D01*
Y73799D01*
X154625Y72799D01*
X153626D01*
X154625D01*
X155625Y71799D01*
Y70800D01*
X154625Y69800D01*
X152626D01*
X151626Y70800D01*
X205001Y84498D02*
X210999D01*
Y81498D01*
X209999Y80499D01*
X208000D01*
X207000Y81498D01*
Y84498D01*
Y82498D02*
X205001Y80499D01*
Y78500D02*
Y76500D01*
Y77500D01*
X210999D01*
X209999Y78500D01*
X205001Y69502D02*
Y73501D01*
X209000Y69502D01*
X209999D01*
X210999Y70502D01*
Y72501D01*
X209999Y73501D01*
X214002Y149001D02*
Y154999D01*
X217001D01*
X218001Y153999D01*
Y152000D01*
X217001Y151000D01*
X214002D01*
X216002D02*
X218001Y149001D01*
X220000D02*
X222000D01*
X221000D01*
Y154999D01*
X220000Y153999D01*
X224998Y149001D02*
X226998D01*
X225998D01*
Y154999D01*
X224998Y153999D01*
X229730Y175930D02*
Y181928D01*
X232729D01*
X233729Y180928D01*
Y178929D01*
X232729Y177929D01*
X229730D01*
X231729D02*
X233729Y175930D01*
X235728D02*
X237727D01*
X236728D01*
Y181928D01*
X235728Y180928D01*
X240726D02*
X241726Y181928D01*
X243725D01*
X244725Y180928D01*
Y176930D01*
X243725Y175930D01*
X241726D01*
X240726Y176930D01*
Y180928D01*
X82238Y45619D02*
Y51617D01*
X85237D01*
X86237Y50617D01*
Y48618D01*
X85237Y47618D01*
X82238D01*
X84237D02*
X86237Y45619D01*
X88236Y46619D02*
X89236Y45619D01*
X91235D01*
X92234Y46619D01*
Y50617D01*
X91235Y51617D01*
X89236D01*
X88236Y50617D01*
Y49618D01*
X89236Y48618D01*
X92234D01*
X229277Y148994D02*
Y154992D01*
X232276D01*
X233276Y153992D01*
Y151993D01*
X232276Y150993D01*
X229277D01*
X231276D02*
X233276Y148994D01*
X235275Y153992D02*
X236275Y154992D01*
X238274D01*
X239274Y153992D01*
Y152992D01*
X238274Y151993D01*
X239274Y150993D01*
Y149993D01*
X238274Y148994D01*
X236275D01*
X235275Y149993D01*
Y150993D01*
X236275Y151993D01*
X235275Y152992D01*
Y153992D01*
X236275Y151993D02*
X238274D01*
X258100Y204900D02*
Y210898D01*
X261099D01*
X262099Y209898D01*
Y207899D01*
X261099Y206899D01*
X258100D01*
X260099D02*
X262099Y204900D01*
X264098Y210898D02*
X268097D01*
Y209898D01*
X264098Y205900D01*
Y204900D01*
X54525Y94146D02*
Y100144D01*
X57524D01*
X58523Y99144D01*
Y97145D01*
X57524Y96145D01*
X54525D01*
X56524D02*
X58523Y94146D01*
X64521Y100144D02*
X62522Y99144D01*
X60523Y97145D01*
Y95145D01*
X61523Y94146D01*
X63522D01*
X64521Y95145D01*
Y96145D01*
X63522Y97145D01*
X60523D01*
X82265Y71950D02*
Y77948D01*
X85264D01*
X86264Y76948D01*
Y74949D01*
X85264Y73949D01*
X82265D01*
X84264D02*
X86264Y71950D01*
X92262Y77948D02*
X88263D01*
Y74949D01*
X90262Y75949D01*
X91262D01*
X92262Y74949D01*
Y72950D01*
X91262Y71950D01*
X89263D01*
X88263Y72950D01*
X82580Y92450D02*
Y98448D01*
X85579D01*
X86579Y97448D01*
Y95449D01*
X85579Y94449D01*
X82580D01*
X84579D02*
X86579Y92450D01*
X91577D02*
Y98448D01*
X88578Y95449D01*
X92577D01*
X82265Y112950D02*
Y118948D01*
X85264D01*
X86264Y117948D01*
Y115949D01*
X85264Y114949D01*
X82265D01*
X84264D02*
X86264Y112950D01*
X88263Y117948D02*
X89263Y118948D01*
X91262D01*
X92262Y117948D01*
Y116949D01*
X91262Y115949D01*
X90262D01*
X91262D01*
X92262Y114949D01*
Y113950D01*
X91262Y112950D01*
X89263D01*
X88263Y113950D01*
X107030Y73700D02*
Y79698D01*
X110029D01*
X111029Y78698D01*
Y76699D01*
X110029Y75699D01*
X107030D01*
X109029D02*
X111029Y73700D01*
X117027D02*
X113028D01*
X117027Y77699D01*
Y78698D01*
X116027Y79698D01*
X114028D01*
X113028Y78698D01*
X113895Y134950D02*
Y140948D01*
X116894D01*
X117894Y139948D01*
Y137949D01*
X116894Y136949D01*
X113895D01*
X115894D02*
X117894Y134950D01*
X119893D02*
X121892D01*
X120893D01*
Y140948D01*
X119893Y139948D01*
X282599Y425437D02*
Y429436D01*
X281599Y430436D01*
X279600D01*
X278600Y429436D01*
Y425437D01*
X279600Y424438D01*
X281599D01*
X280599Y426437D02*
X282599Y424438D01*
X281599D02*
X282599Y425437D01*
X288597Y424438D02*
X284598D01*
X288597Y428437D01*
Y429436D01*
X287597Y430436D01*
X285598D01*
X284598Y429436D01*
X352599Y425437D02*
Y429436D01*
X351599Y430436D01*
X349600D01*
X348600Y429436D01*
Y425437D01*
X349600Y424438D01*
X351599D01*
X350599Y426437D02*
X352599Y424438D01*
X351599D02*
X352599Y425437D01*
X354598Y424438D02*
X356597D01*
X355598D01*
Y430436D01*
X354598Y429436D01*
X18053Y413738D02*
Y419736D01*
X21052D01*
X22052Y418737D01*
Y416737D01*
X21052Y415737D01*
X18053D01*
X24051Y419736D02*
X28050D01*
Y418737D01*
X24051Y414738D01*
Y413738D01*
X18053Y343738D02*
Y349736D01*
X21052D01*
X22052Y348737D01*
Y346737D01*
X21052Y345738D01*
X18053D01*
X28050Y349736D02*
X26050Y348737D01*
X24051Y346737D01*
Y344738D01*
X25051Y343738D01*
X27050D01*
X28050Y344738D01*
Y345738D01*
X27050Y346737D01*
X24051D01*
X18053Y293738D02*
Y299736D01*
X21052D01*
X22052Y298737D01*
Y296737D01*
X21052Y295738D01*
X18053D01*
X28050Y299736D02*
X24051D01*
Y296737D01*
X26050Y297737D01*
X27050D01*
X28050Y296737D01*
Y294738D01*
X27050Y293738D01*
X25051D01*
X24051Y294738D01*
X18053Y243738D02*
Y249736D01*
X21052D01*
X22052Y248737D01*
Y246737D01*
X21052Y245738D01*
X18053D01*
X27050Y243738D02*
Y249736D01*
X24051Y246737D01*
X28050D01*
X405600Y258400D02*
Y264398D01*
X408599D01*
X409599Y263398D01*
Y261399D01*
X408599Y260399D01*
X405600D01*
X415597Y258400D02*
X411598D01*
X415597Y262399D01*
Y263398D01*
X414597Y264398D01*
X412598D01*
X411598Y263398D01*
X405600Y413738D02*
Y419736D01*
X408599D01*
X409599Y418737D01*
Y416737D01*
X408599Y415737D01*
X405600D01*
X411598Y413738D02*
X413597D01*
X412598D01*
Y419736D01*
X411598Y418737D01*
X183899Y442898D02*
X181899D01*
X182899D01*
Y437900D01*
X181899Y436900D01*
X180900D01*
X179900Y437900D01*
X185898Y436900D02*
X187897D01*
X186898D01*
Y442898D01*
X185898Y441898D01*
X52853Y328836D02*
Y322838D01*
X55852D01*
X56852Y323838D01*
Y327836D01*
X55852Y328836D01*
X52853D01*
X62850Y322838D02*
X58851D01*
X62850Y326837D01*
Y327836D01*
X61850Y328836D01*
X59851D01*
X58851Y327836D01*
X260900Y351898D02*
Y345900D01*
X263899D01*
X264899Y346900D01*
Y350898D01*
X263899Y351898D01*
X260900D01*
X266898Y345900D02*
X268897D01*
X267898D01*
Y351898D01*
X266898Y350898D01*
X228552Y352736D02*
X227552Y353736D01*
X225553D01*
X224553Y352736D01*
Y348738D01*
X225553Y347738D01*
X227552D01*
X228552Y348738D01*
X234550Y347738D02*
X230551D01*
X234550Y351737D01*
Y352736D01*
X233550Y353736D01*
X231551D01*
X230551Y352736D01*
X236549D02*
X237549Y353736D01*
X239548D01*
X240548Y352736D01*
Y351737D01*
X239548Y350737D01*
X240548Y349738D01*
Y348738D01*
X239548Y347738D01*
X237549D01*
X236549Y348738D01*
Y349738D01*
X237549Y350737D01*
X236549Y351737D01*
Y352736D01*
X237549Y350737D02*
X239548D01*
X101099Y311398D02*
X100099Y312398D01*
X98100D01*
X97100Y311398D01*
Y307400D01*
X98100Y306400D01*
X100099D01*
X101099Y307400D01*
X107097Y306400D02*
X103098D01*
X107097Y310399D01*
Y311398D01*
X106097Y312398D01*
X104098D01*
X103098Y311398D01*
X109096Y312398D02*
X113095D01*
Y311398D01*
X109096Y307400D01*
Y306400D01*
X228552Y386437D02*
X227552Y387436D01*
X225553D01*
X224553Y386437D01*
Y382438D01*
X225553Y381438D01*
X227552D01*
X228552Y382438D01*
X234550Y381438D02*
X230551D01*
X234550Y385437D01*
Y386437D01*
X233550Y387436D01*
X231551D01*
X230551Y386437D01*
X240548Y387436D02*
X238548Y386437D01*
X236549Y384437D01*
Y382438D01*
X237549Y381438D01*
X239548D01*
X240548Y382438D01*
Y383437D01*
X239548Y384437D01*
X236549D01*
X228552Y287737D02*
X227552Y288736D01*
X225553D01*
X224553Y287737D01*
Y283738D01*
X225553Y282738D01*
X227552D01*
X228552Y283738D01*
X234550Y282738D02*
X230551D01*
X234550Y286737D01*
Y287737D01*
X233550Y288736D01*
X231551D01*
X230551Y287737D01*
X240548Y288736D02*
X236549D01*
Y285737D01*
X238548Y286737D01*
X239548D01*
X240548Y285737D01*
Y283738D01*
X239548Y282738D01*
X237549D01*
X236549Y283738D01*
X340076Y251757D02*
X339076Y252757D01*
X337077D01*
X336077Y251757D01*
Y247758D01*
X337077Y246759D01*
X339076D01*
X340076Y247758D01*
X346074Y246759D02*
X342075D01*
X346074Y250757D01*
Y251757D01*
X345074Y252757D01*
X343075D01*
X342075Y251757D01*
X351072Y246759D02*
Y252757D01*
X348073Y249758D01*
X352072D01*
X378476Y251757D02*
X377476Y252757D01*
X375477D01*
X374477Y251757D01*
Y247758D01*
X375477Y246759D01*
X377476D01*
X378476Y247758D01*
X384474Y246759D02*
X380475D01*
X384474Y250757D01*
Y251757D01*
X383474Y252757D01*
X381475D01*
X380475Y251757D01*
X386473D02*
X387473Y252757D01*
X389472D01*
X390472Y251757D01*
Y250757D01*
X389472Y249758D01*
X388473D01*
X389472D01*
X390472Y248758D01*
Y247758D01*
X389472Y246759D01*
X387473D01*
X386473Y247758D01*
X340076Y280699D02*
X339076Y281698D01*
X337077D01*
X336077Y280699D01*
Y276700D01*
X337077Y275700D01*
X339076D01*
X340076Y276700D01*
X346074Y275700D02*
X342075D01*
X346074Y279699D01*
Y280699D01*
X345074Y281698D01*
X343075D01*
X342075Y280699D01*
X352072Y275700D02*
X348073D01*
X352072Y279699D01*
Y280699D01*
X351072Y281698D01*
X349073D01*
X348073Y280699D01*
X320876D02*
X319876Y281698D01*
X317877D01*
X316877Y280699D01*
Y276700D01*
X317877Y275700D01*
X319876D01*
X320876Y276700D01*
X326874Y275700D02*
X322875D01*
X326874Y279699D01*
Y280699D01*
X325874Y281698D01*
X323875D01*
X322875Y280699D01*
X328873Y275700D02*
X330873D01*
X329873D01*
Y281698D01*
X328873Y280699D01*
X284307Y153992D02*
X283307Y154992D01*
X281308D01*
X280308Y153992D01*
Y149993D01*
X281308Y148994D01*
X283307D01*
X284307Y149993D01*
X290305Y148994D02*
X286306D01*
X290305Y152992D01*
Y153992D01*
X289305Y154992D01*
X287306D01*
X286306Y153992D01*
X292304D02*
X293304Y154992D01*
X295303D01*
X296303Y153992D01*
Y149993D01*
X295303Y148994D01*
X293304D01*
X292304Y149993D01*
Y153992D01*
X302612Y154007D02*
X301613Y155007D01*
X299613D01*
X298614Y154007D01*
Y150008D01*
X299613Y149009D01*
X301613D01*
X302612Y150008D01*
X304612Y149009D02*
X306611D01*
X305611D01*
Y155007D01*
X304612Y154007D01*
X309610Y150008D02*
X310610Y149009D01*
X312609D01*
X313609Y150008D01*
Y154007D01*
X312609Y155007D01*
X310610D01*
X309610Y154007D01*
Y153007D01*
X310610Y152008D01*
X313609D01*
X272423Y74783D02*
X271423Y75783D01*
X269424D01*
X268424Y74783D01*
Y70785D01*
X269424Y69785D01*
X271423D01*
X272423Y70785D01*
X274422Y69785D02*
X276422D01*
X275422D01*
Y75783D01*
X274422Y74783D01*
X279421D02*
X280420Y75783D01*
X282420D01*
X283419Y74783D01*
Y73784D01*
X282420Y72784D01*
X283419Y71784D01*
Y70785D01*
X282420Y69785D01*
X280420D01*
X279421Y70785D01*
Y71784D01*
X280420Y72784D01*
X279421Y73784D01*
Y74783D01*
X280420Y72784D02*
X282420D01*
X290622Y74783D02*
X289622Y75783D01*
X287623D01*
X286623Y74783D01*
Y70785D01*
X287623Y69785D01*
X289622D01*
X290622Y70785D01*
X292621Y69785D02*
X294621D01*
X293621D01*
Y75783D01*
X292621Y74783D01*
X297620Y75783D02*
X301619D01*
Y74783D01*
X297620Y70785D01*
Y69785D01*
X183328Y154007D02*
X182328Y155007D01*
X180329D01*
X179329Y154007D01*
Y150008D01*
X180329Y149009D01*
X182328D01*
X183328Y150008D01*
X185327Y149009D02*
X187327D01*
X186327D01*
Y155007D01*
X185327Y154007D01*
X194325Y155007D02*
X192325Y154007D01*
X190326Y152008D01*
Y150008D01*
X191325Y149009D01*
X193325D01*
X194325Y150008D01*
Y151008D01*
X193325Y152008D01*
X190326D01*
X200453Y154007D02*
X199454Y155007D01*
X197454D01*
X196455Y154007D01*
Y150008D01*
X197454Y149009D01*
X199454D01*
X200453Y150008D01*
X202453Y149009D02*
X204452D01*
X203452D01*
Y155007D01*
X202453Y154007D01*
X211450Y155007D02*
X207451D01*
Y152008D01*
X209450Y153007D01*
X210450D01*
X211450Y152008D01*
Y150008D01*
X210450Y149009D01*
X208451D01*
X207451Y150008D01*
X287611Y351404D02*
X286612Y352404D01*
X284612D01*
X283613Y351404D01*
Y347406D01*
X284612Y346406D01*
X286612D01*
X287611Y347406D01*
X289611Y346406D02*
X291610D01*
X290611D01*
Y352404D01*
X289611Y351404D01*
X297608Y346406D02*
Y352404D01*
X294609Y349405D01*
X298608D01*
X322099Y351101D02*
X321099Y352101D01*
X319100D01*
X318100Y351101D01*
Y347103D01*
X319100Y346103D01*
X321099D01*
X322099Y347103D01*
X324098Y346103D02*
X326097D01*
X325098D01*
Y352101D01*
X324098Y351101D01*
X329096D02*
X330096Y352101D01*
X332096D01*
X333095Y351101D01*
Y350102D01*
X332096Y349102D01*
X331096D01*
X332096D01*
X333095Y348102D01*
Y347103D01*
X332096Y346103D01*
X330096D01*
X329096Y347103D01*
X287611Y322932D02*
X286611Y323932D01*
X284612D01*
X283612Y322932D01*
Y318934D01*
X284612Y317934D01*
X286611D01*
X287611Y318934D01*
X289610Y317934D02*
X291610D01*
X290610D01*
Y323932D01*
X289610Y322932D01*
X298607Y317934D02*
X294609D01*
X298607Y321933D01*
Y322932D01*
X297608Y323932D01*
X295608D01*
X294609Y322932D01*
X304855Y351098D02*
X303855Y352098D01*
X301856D01*
X300856Y351098D01*
Y347100D01*
X301856Y346100D01*
X303855D01*
X304855Y347100D01*
X306854Y346100D02*
X308854D01*
X307854D01*
Y352098D01*
X306854Y351098D01*
X311853Y346100D02*
X313852D01*
X312853D01*
Y352098D01*
X311853Y351098D01*
X163368Y74798D02*
X162368Y75798D01*
X160369D01*
X159369Y74798D01*
Y70800D01*
X160369Y69800D01*
X162368D01*
X163368Y70800D01*
X165367Y69800D02*
X167367D01*
X166367D01*
Y75798D01*
X165367Y74798D01*
X170366D02*
X171365Y75798D01*
X173365D01*
X174365Y74798D01*
Y70800D01*
X173365Y69800D01*
X171365D01*
X170366Y70800D01*
Y74798D01*
X196148Y74769D02*
X195148Y75768D01*
X193149D01*
X192149Y74769D01*
Y70770D01*
X193149Y69770D01*
X195148D01*
X196148Y70770D01*
X198147D02*
X199147Y69770D01*
X201146D01*
X202146Y70770D01*
Y74769D01*
X201146Y75768D01*
X199147D01*
X198147Y74769D01*
Y73769D01*
X199147Y72769D01*
X202146D01*
X89859Y139898D02*
X88859Y140898D01*
X86860D01*
X85860Y139898D01*
Y135900D01*
X86860Y134900D01*
X88859D01*
X89859Y135900D01*
X91858Y139898D02*
X92858Y140898D01*
X94857D01*
X95857Y139898D01*
Y138899D01*
X94857Y137899D01*
X95857Y136899D01*
Y135900D01*
X94857Y134900D01*
X92858D01*
X91858Y135900D01*
Y136899D01*
X92858Y137899D01*
X91858Y138899D01*
Y139898D01*
X92858Y137899D02*
X94857D01*
X144229Y97898D02*
X143229Y98898D01*
X141230D01*
X140230Y97898D01*
Y93900D01*
X141230Y92900D01*
X143229D01*
X144229Y93900D01*
X146228Y98898D02*
X150227D01*
Y97898D01*
X146228Y93900D01*
Y92900D01*
X115529Y117898D02*
X114529Y118898D01*
X112530D01*
X111530Y117898D01*
Y113900D01*
X112530Y112900D01*
X114529D01*
X115529Y113900D01*
X121527Y118898D02*
X119527Y117898D01*
X117528Y115899D01*
Y113900D01*
X118528Y112900D01*
X120527D01*
X121527Y113900D01*
Y114899D01*
X120527Y115899D01*
X117528D01*
X12569Y187498D02*
X11569Y188498D01*
X9570D01*
X8570Y187498D01*
Y183500D01*
X9570Y182500D01*
X11569D01*
X12569Y183500D01*
X18567Y188498D02*
X14568D01*
Y185499D01*
X16567Y186499D01*
X17567D01*
X18567Y185499D01*
Y183500D01*
X17567Y182500D01*
X15568D01*
X14568Y183500D01*
X142400Y170107D02*
X141401Y171107D01*
X139401D01*
X138401Y170107D01*
Y166108D01*
X139401Y165109D01*
X141401D01*
X142400Y166108D01*
X147398Y165109D02*
Y171107D01*
X144399Y168108D01*
X148398D01*
X181575Y74769D02*
X180575Y75768D01*
X178576D01*
X177576Y74769D01*
Y70770D01*
X178576Y69770D01*
X180575D01*
X181575Y70770D01*
X187573Y69770D02*
X183574D01*
X187573Y73769D01*
Y74769D01*
X186573Y75768D01*
X184574D01*
X183574Y74769D01*
X13370Y105014D02*
X12370Y106014D01*
X10371D01*
X9371Y105014D01*
Y101016D01*
X10371Y100016D01*
X12370D01*
X13370Y101016D01*
X15370Y100016D02*
X17369D01*
X16369D01*
Y106014D01*
X15370Y105014D01*
M02*
